<svg width="1657" height="568" viewBox="0 0 1657 568" fill="none" xmlns="http://www.w3.org/2000/svg">
<rect x="720.477" y="504.402" width="215.231" height="18.7497" rx="9.37483" fill="#F7F7F7"/>
<rect y="59.5684" width="1656.18" height="486.549" fill="#21282C"/>
<rect x="221.02" y="201.088" width="1435.16" height="345.032" fill="#07264A"/>
<path d="M0 201.088H520.873L235.756 221.305L291.011 339.235L1013.01 507.034L996.067 546.12H0V201.088Z" fill="#605143"/>
<rect y="59.5684" width="1656.18" height="141.517" fill="#123D67"/>
<g clip-path="url(#clip0_760_2776)">
<circle cx="357.99" cy="108.382" r="1.71835" fill="#FFF2C2"/>
<circle cx="195.32" cy="132.382" r="1.71835" fill="#FFF2C2"/>
<g filter="url(#filter0_f_760_2776)">
<rect x="165" y="105.664" width="5" height="5" transform="rotate(-45 165 105.664)" fill="white"/>
</g>
<rect x="167" y="104.664" width="2" height="2" transform="rotate(-45 167 104.664)" fill="white"/>
<g filter="url(#filter1_f_760_2776)">
<rect x="35" y="133.199" width="5" height="5" transform="rotate(-45 35 133.199)" fill="white"/>
</g>
<rect x="37" y="132.199" width="2" height="2" transform="rotate(-45 37 132.199)" fill="white"/>
<g filter="url(#filter2_f_760_2776)">
<rect x="343" y="186.199" width="5" height="5" transform="rotate(-45 343 186.199)" fill="white"/>
</g>
<rect x="345" y="185.199" width="2" height="2" transform="rotate(-45 345 185.199)" fill="white"/>
<circle cx="313.312" cy="135.382" r="1.71835" fill="#FFF2C2"/>
<rect x="-1" y="184.664" width="80" height="4" fill="#0D2035"/>
<rect x="41" y="188.664" width="10" height="4" transform="rotate(90 41 188.664)" fill="#0D2035"/>
<rect x="74" y="188.664" width="10" height="4" transform="rotate(90 74 188.664)" fill="#0D2035"/>
<rect x="63" y="188.664" width="10" height="4" transform="rotate(90 63 188.664)" fill="#0D2035"/>
<rect x="19" y="188.664" width="10" height="4" transform="rotate(90 19 188.664)" fill="#0D2035"/>
<rect x="3" y="188.664" width="10" height="4" transform="rotate(90 3 188.664)" fill="#0D2035"/>
<g filter="url(#filter3_f_760_2776)">
<circle cx="44.6779" cy="176.955" r="2.29114" fill="#FFF2C2"/>
</g>
<rect x="39" y="176.664" width="8" height="1" transform="rotate(90 39 176.664)" fill="#0D2035"/>
<circle cx="44.1051" cy="176.382" r="1.71835" fill="#FFF2C2"/>
<g filter="url(#filter4_f_760_2776)">
<circle cx="13.7462" cy="176.955" r="2.29114" fill="#FFF2C2"/>
</g>
<rect x="12" y="176.664" width="8" height="1" transform="rotate(90 12 176.664)" fill="#0D2035"/>
<circle cx="13.1734" cy="176.382" r="1.71835" fill="#FFF2C2"/>
<g filter="url(#filter5_f_760_2776)">
<circle cx="76.754" cy="176.955" r="2.29114" fill="#FFF2C2"/>
</g>
<rect x="67" y="176.664" width="8" height="1" transform="rotate(90 67 176.664)" fill="#0D2035"/>
<circle cx="76.1812" cy="176.382" r="1.71835" fill="#FFF2C2"/>
</g>
<g filter="url(#filter6_f_760_2776)">
<rect x="1460.21" y="170.59" width="7.04613" height="7.04613" transform="rotate(-45 1460.21 170.59)" fill="white"/>
</g>
<rect x="1463.25" y="169.461" width="2.81845" height="2.81845" transform="rotate(-45 1463.25 169.461)" fill="white"/>
<g filter="url(#filter7_f_760_2776)">
<rect x="1580.02" y="103.639" width="7.04613" height="7.04613" transform="rotate(-45 1580.02 103.639)" fill="white"/>
</g>
<rect x="1582.84" y="102.227" width="2.81845" height="2.81845" transform="rotate(-45 1582.84 102.227)" fill="white"/>
<g filter="url(#filter8_f_760_2776)">
<rect x="955.037" y="73.7695" width="7.04613" height="7.04613" transform="rotate(-45 955.037 73.7695)" fill="white"/>
</g>
<rect x="957.855" y="72.3594" width="2.81845" height="2.81845" transform="rotate(-45 957.855 72.3594)" fill="white"/>
<circle cx="1564.09" cy="142.46" r="2.11384" fill="#FFF2C2"/>
<circle cx="1291.5" cy="165.372" r="2.11384" fill="#FFF2C2"/>
<circle cx="1334.23" cy="102.026" r="2.11384" fill="#FFF2C2"/>
<circle cx="1295.92" cy="87.1998" r="2.11384" fill="#FFF2C2"/>
<circle cx="1157.41" cy="135.719" r="2.11384" fill="#FFF2C2"/>
<circle cx="1138.26" cy="139.764" r="2.11384" fill="#FFF2C2"/>
<circle cx="917.235" cy="131.678" r="2.11384" fill="#FFF2C2"/>
<circle cx="1133.84" cy="162.678" r="2.11384" fill="#FFF2C2"/>
<circle cx="936.728" cy="132.369" r="45.0952" fill="#FFF2C2"/>
<ellipse cx="913.442" cy="107.421" rx="45.1684" ry="45.1684" transform="rotate(-103.971 913.442 107.421)" fill="#123D67"/>
<g filter="url(#filter9_f_760_2776)">
<circle cx="948.742" cy="141.595" r="41.5839" transform="rotate(-103.971 948.742 141.595)" fill="#DFE2E6" fill-opacity="0.92"/>
</g>
<circle cx="687.374" cy="114.159" r="2.11384" fill="#FFF2C2"/>
<path d="M1155.2 167.393L1362.96 185.588L1401.27 211.869H1190.56L1155.2 167.393Z" fill="#0D2035"/>
<path d="M1232.56 174.133L1408.64 182.219L1401.27 211.871L1362.96 185.589L1232.56 174.133Z" fill="#000F21"/>
<path d="M1197.93 159.307L1271.61 170.089L1343.81 184.914H1197.93V159.307Z" fill="#0D2035"/>
<rect x="1245.08" y="137.744" width="8.84084" height="35.0423" fill="#0D2035"/>
<rect width="15.1346" height="13.5841" transform="matrix(0.948947 0.315436 -0.369224 0.929341 1247.1 131.988)" fill="#0D2035"/>
<path d="M1259.38 123.646L1258.55 137.571L1249.13 133.973L1259.38 123.646Z" fill="#0D2035"/>
<path d="M1304.65 507.034L1655.45 542.75H1200.88L996.804 546.793C996.804 546.793 980.934 536.869 958.383 525.229C887.647 488.72 830.439 523.979 751.36 507.034C694.576 494.866 667.587 471.112 609.906 463.231C561.816 456.66 485.398 463.231 485.398 463.231C485.398 463.231 345.309 472.408 282.058 426.167C259.94 409.997 233.434 376.973 233.434 376.973C233.434 376.973 33.7787 345.3 1.36205 273.194C-31.0546 201.088 525.918 201.088 525.918 201.088C525.918 201.088 233.434 212.544 255.536 248.934C277.638 285.324 343.859 246.715 354.995 283.302C358.7 295.472 342.471 297.454 354.995 315.649C367.52 333.844 468.453 340.583 468.453 340.583C468.453 340.583 634.786 345.657 687.264 352.039C765.009 361.495 800.925 395.192 877.342 411.342C972.571 431.467 1066.43 363.634 1126.36 434.254C1138.13 448.126 1231.09 489.513 1231.09 489.513L1304.65 507.034Z" fill="#044765"/>
<g clip-path="url(#clip1_760_2776)">
<path d="M757.501 505H606.87C604.033 505 601.734 507.3 601.734 510.138V510.823C601.734 513.661 604.033 515.961 606.87 515.961H757.501C760.337 515.961 762.636 513.661 762.636 510.823V510.138C762.636 507.3 760.337 505 757.501 505Z" fill="#2E2E33"/>
<path d="M740.891 393.544C723.911 399.558 695.727 384.182 695.727 384.182C695.727 384.182 693.24 375.479 695.163 370.483C697.865 363.46 710.944 359.434 710.944 359.434C710.944 359.434 724.202 365.416 733.272 365.999C748.525 366.98 756.994 339.845 769.636 348.441C785.615 359.306 759.103 387.092 740.891 393.544Z" fill="#D9D9D9"/>
<path d="M679.104 342.724C679.104 340.039 681.07 337.758 683.725 337.365C683.725 337.365 716.901 334.658 727.374 348.84C735.121 359.33 736.101 369.459 732.167 381.895C728.116 394.698 708.715 404.933 703.503 407.485C702.641 407.907 701.735 408.187 700.792 408.362L693.267 409.756C685.901 411.121 679.104 405.464 679.104 397.968V342.724Z" fill="#A33F0F"/>
<path d="M685.438 357.195C690.285 348.938 702.239 343.602 709.692 353.676C715.206 361.128 712.492 368.571 709.692 377.405C708.029 382.655 701.994 386.416 696.361 388.868C690.462 391.437 684.164 387.54 683.332 381.157C682.305 373.276 681.943 363.149 685.438 357.195Z" fill="#EAEAEA"/>
<path d="M584.275 356.682C584.275 350.061 589.64 344.693 596.257 344.693H655.483V409.09C655.483 415.712 650.118 421.079 643.501 421.079H596.257C589.64 421.079 584.275 415.712 584.275 409.09V356.682Z" fill="#FE8101"/>
<path d="M629.806 370.384C629.806 372.275 628.274 373.809 626.383 373.809H585.644C583.753 373.809 582.221 372.275 582.221 370.384V356.682C582.221 350.061 587.585 344.693 594.203 344.693H629.806V370.384Z" fill="#FFB800"/>
<g filter="url(#filter10_f_760_2776)">
<path d="M757.663 314.747C760.147 304.173 768.081 295.727 778.476 292.593C788.871 289.458 800.148 292.111 808.059 299.551C815.97 306.991 819.312 318.089 816.828 328.664C814.343 339.239 806.409 347.684 796.014 350.818C785.619 353.953 774.342 351.301 766.431 343.86C758.521 336.42 755.178 325.322 757.663 314.747Z" fill="#D0E60A"/>
</g>
<g filter="url(#filter11_d_760_2776)">
<path d="M785.402 301.279C786.462 300.667 787.767 300.667 788.826 301.279L803.932 310.006C804.992 310.618 805.644 311.748 805.644 312.972V330.426C805.644 331.649 804.992 332.78 803.932 333.392L788.826 342.119C787.767 342.731 786.462 342.731 785.402 342.119L770.296 333.392C769.236 332.78 768.584 331.649 768.584 330.426V312.972C768.584 311.748 769.236 310.618 770.296 310.006L785.402 301.279Z" fill="#35984E"/>
</g>
<path d="M792.073 319.386C789.796 320.713 786.937 319.075 786.927 316.438L786.902 309.415C786.893 306.779 789.74 305.12 792.027 306.431L798.118 309.92C800.405 311.231 800.416 314.526 798.139 315.853L792.073 319.386Z" fill="#BEE275"/>
<path d="M734.042 439.095C726.16 422.063 696.275 406.311 696.275 406.311C696.275 406.311 686.858 409.11 683.63 413.541C679.093 419.769 683.992 433.052 683.992 433.052C683.992 433.052 696.777 441.928 702.365 449.561C711.999 462.721 709.908 480.292 712.316 488.686C714.723 497.078 736.746 495.906 747.741 488.603C757.469 482.142 769.102 473.397 759.495 462.438C749.888 451.479 738.964 464.964 738.964 464.964C738.964 464.964 738.445 448.609 734.042 439.095Z" fill="#D9D9D9"/>
<path d="M672.097 470.595C680.413 454.609 674.596 424.514 674.596 424.514C674.596 424.514 666.823 419.884 661.504 420.467C654.027 421.286 646.795 432.908 646.795 432.908C646.795 432.908 647.648 447.118 645.15 455.675C640.843 470.428 626.15 479.995 621.17 486.873C616.189 493.748 629.925 510.279 642.412 510.824C661.987 511.68 666.817 515.79 669.457 502.431C672.097 489.072 655.249 490.1 655.249 490.1C655.249 490.1 667.451 479.526 672.097 470.595Z" fill="#EAEAEA"/>
<path d="M596.662 294.607C597.327 282.781 601.039 276.47 606.247 265.834C615.662 246.608 615.833 230.038 641.509 223.873C667.184 217.707 685.328 250.077 685.328 250.077C685.328 250.077 692.175 224.044 719.049 227.812C745.923 231.58 745.581 265.834 749.689 283.132C753.797 300.43 756.023 296.376 755.851 305.397C755.691 313.839 753.825 318.76 749.689 326.12C743.396 337.32 723.5 347.186 723.5 347.186C723.5 347.186 730.398 385.737 718.536 405.075C707.799 422.578 696.283 430.594 675.229 434.876C654.175 439.157 631.708 472.476 601.626 464.848C586.11 460.913 575.053 456.866 566.878 443.096C558.902 429.663 553.697 407.301 563.968 403.191C574.238 399.08 573.806 424.873 586.391 430.594C595.505 434.737 602.256 435.862 611.896 433.163C627.938 428.671 628.973 413.925 634.772 398.299C641.822 379.301 641.79 367.985 637.572 347.186C637.572 347.186 606.468 330.223 601.626 321.496C596.446 312.16 596.062 305.268 596.662 294.607Z" fill="#EAEAEA"/>
<path d="M675.68 237.137L695.536 238.164C695.536 238.164 709.058 238.336 705.635 250.324C702.211 262.313 692.797 259.059 686.464 253.921C680.13 248.783 675.68 237.137 675.68 237.137Z" fill="#D9D9D9"/>
<path d="M604.077 272.166L610.922 283.416C610.922 283.416 615.884 290.873 607.802 293.663C599.72 296.453 598.044 290.043 598.59 284.584C599.135 279.126 604.077 272.166 604.077 272.166Z" fill="#D9D9D9"/>
<path d="M584.865 430.67L604.096 435.72C604.096 435.72 617.301 438.642 611.51 449.682C605.72 460.723 597.164 455.62 592.009 449.299C586.853 442.979 584.865 430.67 584.865 430.67Z" fill="#D9D9D9"/>
<path d="M719.157 301.361C719.157 307.321 714.329 312.151 708.374 312.151C702.418 312.151 697.59 307.321 697.59 301.361C697.59 295.402 699.166 285.947 705.121 285.947C711.077 285.947 719.157 295.402 719.157 301.361Z" fill="#EAEAEA"/>
<path d="M710.958 415.435L704.094 396.764C704.094 396.764 698.933 384.257 711.296 382.692C723.659 381.126 724.371 391.067 722.14 398.914C719.91 406.76 710.958 415.435 710.958 415.435Z" fill="#D9D9D9"/>
<path d="M690.402 308.042C692.293 308.042 693.825 306.509 693.825 304.617C693.825 302.725 692.293 301.191 690.402 301.191C688.511 301.191 686.979 302.725 686.979 304.617C686.979 306.509 688.511 308.042 690.402 308.042Z" fill="#D9D9D9"/>
<path d="M707.861 308.042C709.752 308.042 711.284 306.509 711.284 304.617C711.284 302.725 709.752 301.191 707.861 301.191C705.97 301.191 704.438 302.725 704.438 304.617C704.438 306.509 705.97 308.042 707.861 308.042Z" fill="#D9D9D9"/>
<path d="M713.144 319.761C717.081 324.385 707.91 335.346 694.486 335.346C681.062 335.346 664.189 323.528 668.981 315.136C672.307 309.313 679.765 321.131 694.486 321.131C707.91 321.131 709.207 315.136 713.144 319.761Z" fill="#A43F10"/>
<path d="M707.861 330.991C707.861 330.991 703.752 335.345 694.486 335.345C687.149 335.345 679.617 331.334 679.617 331.334C679.617 331.334 684.337 326.881 694.167 326.881C703.068 326.881 707.861 330.991 707.861 330.991Z" fill="#EE622D"/>
<path d="M629.121 346.492C629.121 343.807 631.088 341.526 633.743 341.132C633.743 341.132 666.918 338.426 677.392 352.607C685.139 363.098 686.118 373.226 682.184 385.662C678.134 398.465 658.733 408.701 653.521 411.252C652.659 411.674 651.752 411.955 650.809 412.129L643.285 413.523C635.919 414.888 629.121 409.231 629.121 401.735V346.492Z" fill="#A33F0F"/>
<path d="M635.456 360.965C640.302 352.707 652.256 347.371 659.71 357.445C665.224 364.898 662.51 372.34 659.71 381.174C658.046 386.424 652.012 390.186 646.379 392.638C640.479 395.206 634.181 391.309 633.349 384.926C632.323 377.045 631.961 366.919 635.456 360.965Z" fill="#EAEAEA"/>
<path d="M607.101 381.004C613.953 364.337 644.206 353.594 644.206 353.594C644.206 353.594 652.343 357.547 654.78 362.314C658.205 369.014 652.474 381.447 652.474 381.447C652.474 381.447 639.174 387.336 632.688 393.706C621.78 404.418 631.706 425.842 616.872 429.527C598.122 434.185 599.751 398.881 607.101 381.004Z" fill="#EAEAEA"/>
<path d="M675.68 277.899C675.68 263.711 664.184 252.209 650.004 252.209C635.824 252.209 624.328 263.711 624.328 277.899V287.833C624.328 302.021 635.824 313.523 650.004 313.523C664.184 313.523 675.68 302.021 675.68 287.833V277.899Z" fill="white"/>
<path d="M663.014 277.555C663.014 272.447 658.876 268.307 653.771 268.307C648.666 268.307 644.527 272.447 644.527 277.555V287.831C644.527 292.939 648.666 297.08 653.771 297.08C658.876 297.08 663.014 292.939 663.014 287.831V277.555Z" fill="#1E1E1E"/>
<path d="M649.662 286.462C651.552 286.462 653.085 284.928 653.085 283.037C653.085 281.145 651.552 279.611 649.662 279.611C647.771 279.611 646.238 281.145 646.238 283.037C646.238 284.928 647.771 286.462 649.662 286.462Z" fill="white"/>
<path d="M743.122 269.506C743.122 260.142 735.535 252.551 726.176 252.551C716.817 252.551 709.23 260.142 709.23 269.506V290.059C709.23 299.423 716.817 307.014 726.176 307.014C735.535 307.014 743.122 299.423 743.122 290.059V269.506Z" fill="white"/>
<path d="M730.113 277.555C730.113 272.447 725.975 268.307 720.87 268.307C715.765 268.307 711.627 272.447 711.627 277.555V287.831C711.627 292.939 715.765 297.08 720.87 297.08C725.975 297.08 730.113 292.939 730.113 287.831V277.555Z" fill="#1E1E1E"/>
<path d="M715.05 286.462C716.941 286.462 718.474 284.928 718.474 283.037C718.474 281.145 716.941 279.611 715.05 279.611C713.16 279.611 711.627 281.145 711.627 283.037C711.627 284.928 713.16 286.462 715.05 286.462Z" fill="white"/>
</g>
<defs>
<filter id="filter0_f_760_2776" x="153" y="90.1289" width="31.0703" height="31.0703" filterUnits="userSpaceOnUse" color-interpolation-filters="sRGB">
<feFlood flood-opacity="0" result="BackgroundImageFix"/>
<feBlend mode="normal" in="SourceGraphic" in2="BackgroundImageFix" result="shape"/>
<feGaussianBlur stdDeviation="6" result="effect1_foregroundBlur_760_2776"/>
</filter>
<filter id="filter1_f_760_2776" x="23" y="117.664" width="31.0703" height="31.0703" filterUnits="userSpaceOnUse" color-interpolation-filters="sRGB">
<feFlood flood-opacity="0" result="BackgroundImageFix"/>
<feBlend mode="normal" in="SourceGraphic" in2="BackgroundImageFix" result="shape"/>
<feGaussianBlur stdDeviation="6" result="effect1_foregroundBlur_760_2776"/>
</filter>
<filter id="filter2_f_760_2776" x="331" y="170.664" width="31.0703" height="31.0703" filterUnits="userSpaceOnUse" color-interpolation-filters="sRGB">
<feFlood flood-opacity="0" result="BackgroundImageFix"/>
<feBlend mode="normal" in="SourceGraphic" in2="BackgroundImageFix" result="shape"/>
<feGaussianBlur stdDeviation="6" result="effect1_foregroundBlur_760_2776"/>
</filter>
<filter id="filter3_f_760_2776" x="38.3867" y="170.664" width="12.582" height="12.582" filterUnits="userSpaceOnUse" color-interpolation-filters="sRGB">
<feFlood flood-opacity="0" result="BackgroundImageFix"/>
<feBlend mode="normal" in="SourceGraphic" in2="BackgroundImageFix" result="shape"/>
<feGaussianBlur stdDeviation="2" result="effect1_foregroundBlur_760_2776"/>
</filter>
<filter id="filter4_f_760_2776" x="7.45508" y="170.664" width="12.582" height="12.582" filterUnits="userSpaceOnUse" color-interpolation-filters="sRGB">
<feFlood flood-opacity="0" result="BackgroundImageFix"/>
<feBlend mode="normal" in="SourceGraphic" in2="BackgroundImageFix" result="shape"/>
<feGaussianBlur stdDeviation="2" result="effect1_foregroundBlur_760_2776"/>
</filter>
<filter id="filter5_f_760_2776" x="70.4629" y="170.664" width="12.582" height="12.582" filterUnits="userSpaceOnUse" color-interpolation-filters="sRGB">
<feFlood flood-opacity="0" result="BackgroundImageFix"/>
<feBlend mode="normal" in="SourceGraphic" in2="BackgroundImageFix" result="shape"/>
<feGaussianBlur stdDeviation="2" result="effect1_foregroundBlur_760_2776"/>
</filter>
<filter id="filter6_f_760_2776" x="1448.21" y="153.607" width="33.9648" height="33.9648" filterUnits="userSpaceOnUse" color-interpolation-filters="sRGB">
<feFlood flood-opacity="0" result="BackgroundImageFix"/>
<feBlend mode="normal" in="SourceGraphic" in2="BackgroundImageFix" result="shape"/>
<feGaussianBlur stdDeviation="6" result="effect1_foregroundBlur_760_2776"/>
</filter>
<filter id="filter7_f_760_2776" x="1568.02" y="86.6562" width="33.9648" height="33.9648" filterUnits="userSpaceOnUse" color-interpolation-filters="sRGB">
<feFlood flood-opacity="0" result="BackgroundImageFix"/>
<feBlend mode="normal" in="SourceGraphic" in2="BackgroundImageFix" result="shape"/>
<feGaussianBlur stdDeviation="6" result="effect1_foregroundBlur_760_2776"/>
</filter>
<filter id="filter8_f_760_2776" x="943.037" y="56.7871" width="33.9648" height="33.9648" filterUnits="userSpaceOnUse" color-interpolation-filters="sRGB">
<feFlood flood-opacity="0" result="BackgroundImageFix"/>
<feBlend mode="normal" in="SourceGraphic" in2="BackgroundImageFix" result="shape"/>
<feGaussianBlur stdDeviation="6" result="effect1_foregroundBlur_760_2776"/>
</filter>
<filter id="filter9_f_760_2776" x="807.148" y="0" width="283.188" height="283.188" filterUnits="userSpaceOnUse" color-interpolation-filters="sRGB">
<feFlood flood-opacity="0" result="BackgroundImageFix"/>
<feBlend mode="normal" in="SourceGraphic" in2="BackgroundImageFix" result="shape"/>
<feGaussianBlur stdDeviation="50" result="effect1_foregroundBlur_760_2776"/>
</filter>
<filter id="filter10_f_760_2776" x="656.855" y="191.299" width="260.779" height="260.814" filterUnits="userSpaceOnUse" color-interpolation-filters="sRGB">
<feFlood flood-opacity="0" result="BackgroundImageFix"/>
<feBlend mode="normal" in="SourceGraphic" in2="BackgroundImageFix" result="shape"/>
<feGaussianBlur stdDeviation="50" result="effect1_foregroundBlur_760_2776"/>
</filter>
<filter id="filter11_d_760_2776" x="764.584" y="300.82" width="45.0605" height="49.7578" filterUnits="userSpaceOnUse" color-interpolation-filters="sRGB">
<feFlood flood-opacity="0" result="BackgroundImageFix"/>
<feColorMatrix in="SourceAlpha" type="matrix" values="0 0 0 0 0 0 0 0 0 0 0 0 0 0 0 0 0 0 127 0" result="hardAlpha"/>
<feOffset dy="4"/>
<feGaussianBlur stdDeviation="2"/>
<feComposite in2="hardAlpha" operator="out"/>
<feColorMatrix type="matrix" values="0 0 0 0 0 0 0 0 0 0 0 0 0 0 0 0 0 0 0.25 0"/>
<feBlend mode="normal" in2="BackgroundImageFix" result="effect1_dropShadow_760_2776"/>
<feBlend mode="normal" in="SourceGraphic" in2="effect1_dropShadow_760_2776" result="shape"/>
</filter>
<clipPath id="clip0_760_2776">
<rect width="459.373" height="449.953" fill="white" transform="translate(0 77.6641)"/>
</clipPath>
<clipPath id="clip1_760_2776">
<rect width="434.091" height="425.431" fill="white" transform="translate(480.545 142.254)"/>
</clipPath>
</defs>
</svg>
