<svg width="1657" height="502" viewBox="0 0 1657 502" fill="none" xmlns="http://www.w3.org/2000/svg">
<rect y="27.1035" width="1656.18" height="457.45" fill="#3D4B54"/>
<rect x="704.32" y="431.334" width="247.543" height="20.2748" rx="10.1374" fill="#F7F7F7"/>
<rect y="2.76172" width="1656.18" height="487.326" fill="#21282C"/>
<rect y="2.76172" width="1656.18" height="141.743" fill="url(#paint0_linear_760_2890)"/>
<circle cx="956.737" cy="144.5" r="45.1312" fill="#FFB800"/>
<rect x="221.02" y="144.504" width="1435.16" height="345.583" fill="#18559C"/>
<path d="M0 144.504H520.871L235.755 164.753L291.01 282.872L1013.01 450.939L996.065 490.087H0V144.504Z" fill="#FFAF38"/>
<g filter="url(#filter0_f_760_2890)">
<rect x="1460.21" y="113.963" width="7.05175" height="7.05175" transform="rotate(-45 1460.21 113.963)" fill="white"/>
</g>
<rect x="1463.24" y="112.828" width="2.8207" height="2.8207" transform="rotate(-45 1463.24 112.828)" fill="white"/>
<g filter="url(#filter1_f_760_2890)">
<rect x="1580.01" y="46.8926" width="7.05174" height="7.05174" transform="rotate(-45 1580.01 46.8926)" fill="white"/>
</g>
<rect x="1582.83" y="45.4863" width="2.8207" height="2.8207" transform="rotate(-45 1582.83 45.4863)" fill="white"/>
<g filter="url(#filter2_f_760_2890)">
<rect x="955.033" y="16.9863" width="7.05174" height="7.05174" transform="rotate(-45 955.033 16.9863)" fill="white"/>
</g>
<rect x="957.852" y="15.5762" width="2.8207" height="2.8207" transform="rotate(-45 957.852 15.5762)" fill="white"/>
<circle cx="1564.09" cy="85.7815" r="2.11552" fill="#FFF2C2"/>
<circle cx="1291.49" cy="108.729" r="2.11552" fill="#FFF2C2"/>
<circle cx="1334.22" cy="45.2854" r="2.11552" fill="#FFF2C2"/>
<circle cx="1295.92" cy="30.4358" r="2.11552" fill="#FFF2C2"/>
<circle cx="1157.41" cy="79.0315" r="2.11552" fill="#FFF2C2"/>
<circle cx="1138.26" cy="83.0823" r="2.11552" fill="#FFF2C2"/>
<circle cx="917.235" cy="74.9827" r="2.11552" fill="#FFF2C2"/>
<circle cx="1133.83" cy="106.032" r="2.11552" fill="#FFF2C2"/>
<circle cx="697.373" cy="57.4319" r="2.11552" fill="#FFF2C2"/>
<path d="M1155.2 110.754L1362.96 128.978L1401.27 155.302H1190.56L1155.2 110.754Z" fill="#0D2035"/>
<path d="M1232.56 117.504L1408.64 125.604L1401.27 155.302L1362.96 128.978L1232.56 117.504Z" fill="#000F21"/>
<path d="M1197.93 102.656L1271.6 113.456L1343.8 128.305H1197.93V102.656Z" fill="#0D2035"/>
<rect x="1245.08" y="81.0547" width="8.84082" height="35.0982" fill="#0D2035"/>
<rect width="15.1369" height="13.6029" transform="matrix(0.948796 0.31589 -0.368714 0.929543 1247.09 75.2969)" fill="#0D2035"/>
<path d="M1259.37 66.938L1258.55 80.8854L1249.13 77.2818L1259.37 66.938Z" fill="#0D2035"/>
<path d="M1304.65 450.939L1655.44 486.712H1200.88L996.802 490.762C996.802 490.762 980.932 480.821 958.381 469.163C887.645 432.595 830.437 467.911 751.358 450.939C694.575 438.751 667.586 414.96 609.905 407.066C561.815 400.484 485.397 407.066 485.397 407.066C485.397 407.066 345.308 416.257 282.058 369.943C259.94 353.747 233.433 320.67 233.433 320.67C233.433 320.67 33.7787 288.947 1.36205 216.725C-31.0546 144.504 525.917 144.504 525.917 144.504C525.917 144.504 233.433 155.978 255.535 192.427C277.638 228.875 343.858 190.204 354.995 226.85C358.699 239.039 342.47 241.024 354.995 259.248C367.519 277.472 468.452 284.222 468.452 284.222C468.452 284.222 634.785 289.304 687.262 295.696C765.007 305.167 800.924 338.918 877.34 355.093C972.569 375.251 1066.42 307.31 1126.36 378.042C1138.13 391.937 1231.08 433.389 1231.08 433.389L1304.65 450.939Z" fill="#59A3C4"/>
<rect y="125.604" width="117.878" height="5.39973" fill="#0D2035"/>
<rect x="61.8848" y="131.004" width="13.4993" height="5.89388" transform="rotate(90 61.8848 131.004)" fill="#0D2035"/>
<rect x="110.51" y="131.004" width="13.4993" height="5.89388" transform="rotate(90 110.51 131.004)" fill="#0D2035"/>
<rect x="94.3008" y="131.004" width="13.4993" height="5.89388" transform="rotate(90 94.3008 131.004)" fill="#0D2035"/>
<rect x="29.4688" y="131.004" width="13.4993" height="5.89388" transform="rotate(90 29.4688 131.004)" fill="#0D2035"/>
<rect x="5.89453" y="131.004" width="13.4993" height="5.89388" transform="rotate(90 5.89453 131.004)" fill="#0D2035"/>
<g filter="url(#filter3_f_760_2890)">
<circle cx="59.0648" cy="115.164" r="2.8207" fill="#FFF2C2"/>
</g>
<rect x="58.9395" y="114.807" width="10.7995" height="1.47347" transform="rotate(90 58.9395 114.807)" fill="#0D2035"/>
<circle cx="58.1077" cy="114.223" r="2.11552" fill="#FFF2C2"/>
<g filter="url(#filter4_f_760_2890)">
<circle cx="19.1566" cy="115.164" r="2.8207" fill="#FFF2C2"/>
</g>
<rect x="19.1562" y="114.807" width="10.7995" height="1.47347" transform="rotate(90 19.1562 114.807)" fill="#0D2035"/>
<circle cx="18.3226" cy="114.397" r="2.11552" fill="#FFF2C2"/>
<g filter="url(#filter5_f_760_2890)">
<circle cx="100.321" cy="115.164" r="2.8207" fill="#FFF2C2"/>
</g>
<rect x="100.195" y="114.807" width="10.7995" height="1.47347" transform="rotate(90 100.195 114.807)" fill="#0D2035"/>
<circle cx="99.3655" cy="114.223" r="2.11552" fill="#FFF2C2"/>
<path d="M783.617 431.299H615.633C612.47 431.299 609.906 433.864 609.906 437.029V437.793C609.906 440.957 612.47 443.523 615.633 443.523H783.617C786.78 443.523 789.344 440.957 789.344 437.793V437.029C789.344 433.864 786.78 431.299 783.617 431.299Z" fill="#2E2E33"/>
<path d="M765.095 307C746.159 313.708 714.728 296.56 714.728 296.56C714.728 296.56 711.954 286.855 714.098 281.283C717.112 273.45 731.697 268.961 731.697 268.961C731.697 268.961 746.483 275.633 756.598 276.283C773.608 277.376 783.053 247.116 797.151 256.701C814.971 268.818 785.404 299.805 765.095 307Z" fill="#D9D9D9"/>
<path d="M696.189 250.327C696.189 247.332 698.382 244.788 701.344 244.35C701.344 244.35 738.341 241.331 750.021 257.146C758.661 268.846 759.753 280.141 755.366 294.009C750.849 308.287 729.212 319.702 723.4 322.548C722.439 323.018 721.428 323.331 720.376 323.526L711.985 325.08C703.77 326.603 696.189 320.293 696.189 311.934V250.327Z" fill="#A33F0F"/>
<path d="M703.252 266.466C708.658 257.257 721.989 251.307 730.301 262.542C736.45 270.852 733.424 279.152 730.301 289.004C728.446 294.859 721.716 299.054 715.434 301.788C708.855 304.653 701.832 300.307 700.904 293.188C699.759 284.399 699.355 273.106 703.252 266.466Z" fill="#EAEAEA"/>
<path d="M590.436 265.893C590.436 258.509 596.418 252.523 603.798 252.523H669.846V324.339C669.846 331.723 663.864 337.709 656.484 337.709H603.798C596.418 337.709 590.436 331.723 590.436 324.339V265.893Z" fill="#FE8101"/>
<path d="M641.212 281.173C641.212 283.283 639.503 284.993 637.394 284.993H591.962C589.854 284.993 588.145 283.283 588.145 281.173V265.893C588.145 258.509 594.127 252.523 601.507 252.523H641.212V281.173Z" fill="#FFB800"/>
<g filter="url(#filter6_f_760_2890)">
<path d="M783.799 219.127C786.569 207.333 795.417 197.915 807.01 194.42C818.603 190.924 831.179 193.882 840.001 202.179C848.823 210.477 852.55 222.853 849.78 234.646C847.009 246.439 838.161 255.857 826.568 259.353C814.975 262.849 802.399 259.891 793.578 251.593C784.755 243.296 781.028 230.92 783.799 219.127Z" fill="#D0E60A"/>
</g>
<g filter="url(#filter7_d_760_2890)">
<path d="M814.732 204.107C815.914 203.425 817.369 203.425 818.55 204.107L835.397 213.84C836.578 214.522 837.306 215.783 837.306 217.148V236.612C837.306 237.977 836.578 239.238 835.397 239.92L818.55 249.652C817.369 250.334 815.914 250.334 814.732 249.652L797.885 239.92C796.704 239.238 795.977 237.977 795.977 236.612V217.148C795.977 215.783 796.704 214.522 797.885 213.84L814.732 204.107Z" fill="#35984E"/>
</g>
<path d="M822.173 224.301C819.633 225.78 816.445 223.954 816.434 221.013L816.406 213.181C816.396 210.241 819.57 208.391 822.121 209.852L828.914 213.744C831.464 215.205 831.477 218.881 828.938 220.36L822.173 224.301Z" fill="#BEE275"/>
<path d="M757.457 357.799C748.667 338.806 715.338 321.238 715.338 321.238C715.338 321.238 704.836 324.361 701.237 329.302C696.177 336.247 701.64 351.06 701.64 351.06C701.64 351.06 715.899 360.959 722.13 369.471C732.874 384.147 730.542 403.743 733.227 413.103C735.912 422.462 760.472 421.156 772.733 413.012C783.582 405.806 796.555 396.054 785.841 383.832C775.128 371.611 762.946 386.649 762.946 386.649C762.946 386.649 762.367 368.409 757.457 357.799Z" fill="#D9D9D9"/>
<path d="M688.375 392.929C697.65 375.101 691.162 341.539 691.162 341.539C691.162 341.539 682.494 336.376 676.562 337.025C668.224 337.939 660.158 350.899 660.158 350.899C660.158 350.899 661.11 366.747 658.325 376.29C653.521 392.743 637.136 403.412 631.582 411.082C626.027 418.749 641.346 437.184 655.27 437.791C677.101 438.746 682.487 443.33 685.431 428.433C688.375 413.535 669.587 414.681 669.587 414.681C669.587 414.681 683.194 402.888 688.375 392.929Z" fill="#EAEAEA"/>
<path d="M604.248 196.668C604.99 183.48 609.129 176.442 614.938 164.58C625.437 143.139 625.628 124.661 654.261 117.785C682.895 110.909 703.13 147.008 703.13 147.008C703.13 147.008 710.765 117.976 740.735 122.178C770.705 126.38 770.323 164.58 774.905 183.871C779.486 203.162 781.968 198.641 781.777 208.701C781.598 218.115 779.517 223.604 774.905 231.812C767.887 244.301 745.698 255.304 745.698 255.304C745.698 255.304 753.392 298.296 740.162 319.862C728.188 339.382 715.347 348.321 691.867 353.096C668.387 357.871 643.332 395.028 609.784 386.521C592.48 382.133 580.15 377.62 571.033 362.264C562.138 347.282 556.334 322.345 567.788 317.761C579.241 313.177 578.76 341.941 592.794 348.321C602.958 352.942 610.487 354.197 621.237 351.186C639.127 346.176 640.281 329.731 646.748 312.306C654.611 291.119 654.575 278.499 649.871 255.304C649.871 255.304 615.184 236.387 609.784 226.655C604.007 216.243 603.579 208.557 604.248 196.668Z" fill="#EAEAEA"/>
<path d="M692.371 132.576L714.514 133.722C714.514 133.722 729.595 133.913 725.777 147.283C721.959 160.653 711.46 157.024 704.397 151.294C697.334 145.564 692.371 132.576 692.371 132.576Z" fill="#D9D9D9"/>
<path d="M612.521 171.641L620.155 184.187C620.155 184.187 625.688 192.503 616.675 195.614C607.662 198.725 605.793 191.577 606.402 185.49C607.01 179.402 612.521 171.641 612.521 171.641Z" fill="#D9D9D9"/>
<path d="M591.094 348.404L612.54 354.036C612.54 354.036 627.266 357.295 620.809 369.607C614.351 381.919 604.81 376.228 599.06 369.18C593.311 362.131 591.094 348.404 591.094 348.404Z" fill="#D9D9D9"/>
<path d="M740.859 204.2C740.859 210.845 735.475 216.233 728.833 216.233C722.191 216.233 716.807 210.845 716.807 204.2C716.807 197.554 718.564 187.01 725.206 187.01C731.848 187.01 740.859 197.554 740.859 204.2Z" fill="#EAEAEA"/>
<path d="M731.714 331.413L724.059 310.592C724.059 310.592 718.303 296.644 732.091 294.898C745.878 293.152 746.672 304.238 744.184 312.989C741.697 321.74 731.714 331.413 731.714 331.413Z" fill="#D9D9D9"/>
<path d="M708.789 211.65C710.897 211.65 712.606 209.939 712.606 207.83C712.606 205.72 710.897 204.01 708.789 204.01C706.68 204.01 704.971 205.72 704.971 207.83C704.971 209.939 706.68 211.65 708.789 211.65Z" fill="#D9D9D9"/>
<path d="M728.259 211.65C730.368 211.65 732.077 209.939 732.077 207.83C732.077 205.72 730.368 204.01 728.259 204.01C726.151 204.01 724.441 205.72 724.441 207.83C724.441 209.939 726.151 211.65 728.259 211.65Z" fill="#D9D9D9"/>
<path d="M734.151 224.717C738.542 229.874 728.315 242.098 713.344 242.098C698.374 242.098 679.557 228.919 684.902 219.56C688.61 213.066 696.928 226.245 713.344 226.245C728.315 226.245 729.761 219.56 734.151 224.717Z" fill="#A43F10"/>
<path d="M728.259 237.242C728.259 237.242 723.677 242.097 713.344 242.097C705.161 242.097 696.762 237.624 696.762 237.624C696.762 237.624 702.025 232.658 712.987 232.658C722.914 232.658 728.259 237.242 728.259 237.242Z" fill="#EE622D"/>
<path d="M640.449 254.528C640.449 251.533 642.642 248.99 645.603 248.551C645.603 248.551 682.601 245.532 694.281 261.348C702.92 273.047 704.013 284.342 699.625 298.211C695.109 312.488 673.472 323.903 667.66 326.749C666.699 327.219 665.688 327.532 664.636 327.727L656.245 329.281C648.03 330.804 640.449 324.495 640.449 316.135V254.528Z" fill="#A33F0F"/>
<path d="M647.512 270.667C652.918 261.458 666.249 255.508 674.561 266.743C680.71 275.053 677.683 283.353 674.561 293.205C672.705 299.06 665.976 303.255 659.694 305.99C653.115 308.854 646.091 304.508 645.164 297.389C644.019 288.601 643.615 277.308 647.512 270.667Z" fill="#EAEAEA"/>
<path d="M615.891 293.017C623.533 274.43 657.271 262.449 657.271 262.449C657.271 262.449 666.346 266.858 669.063 272.174C672.882 279.646 666.492 293.511 666.492 293.511C666.492 293.511 651.659 300.078 644.426 307.182C632.261 319.129 643.331 343.02 626.788 347.13C605.878 352.325 607.694 312.953 615.891 293.017Z" fill="#EAEAEA"/>
<path d="M692.371 178.033C692.371 162.21 679.551 149.383 663.737 149.383C647.923 149.383 635.104 162.21 635.104 178.033V189.111C635.104 204.934 647.923 217.761 663.737 217.761C679.551 217.761 692.371 204.934 692.371 189.111V178.033Z" fill="white"/>
<path d="M678.245 177.652C678.245 171.956 673.63 167.338 667.937 167.338C662.244 167.338 657.629 171.956 657.629 177.652V189.112C657.629 194.808 662.244 199.426 667.937 199.426C673.63 199.426 678.245 194.808 678.245 189.112V177.652Z" fill="#1E1E1E"/>
<path d="M663.357 187.583C665.465 187.583 667.175 185.873 667.175 183.763C667.175 181.654 665.465 179.943 663.357 179.943C661.248 179.943 659.539 181.654 659.539 183.763C659.539 185.873 661.248 187.583 663.357 187.583Z" fill="white"/>
<path d="M767.584 168.675C767.584 158.231 759.123 149.766 748.685 149.766C738.248 149.766 729.787 158.231 729.787 168.675V191.594C729.787 202.038 738.248 210.503 748.685 210.503C759.123 210.503 767.584 202.038 767.584 191.594V168.675Z" fill="white"/>
<path d="M753.075 177.652C753.075 171.956 748.46 167.338 742.767 167.338C737.074 167.338 732.459 171.956 732.459 177.652V189.112C732.459 194.808 737.074 199.426 742.767 199.426C748.46 199.426 753.075 194.808 753.075 189.112V177.652Z" fill="#1E1E1E"/>
<path d="M736.277 187.583C738.385 187.583 740.095 185.873 740.095 183.763C740.095 181.654 738.385 179.943 736.277 179.943C734.168 179.943 732.459 181.654 732.459 183.763C732.459 185.873 734.168 187.583 736.277 187.583Z" fill="white"/>
<defs>
<filter id="filter0_f_760_2890" x="1448.21" y="96.9766" width="33.9727" height="33.9727" filterUnits="userSpaceOnUse" color-interpolation-filters="sRGB">
<feFlood flood-opacity="0" result="BackgroundImageFix"/>
<feBlend mode="normal" in="SourceGraphic" in2="BackgroundImageFix" result="shape"/>
<feGaussianBlur stdDeviation="6" result="effect1_foregroundBlur_760_2890"/>
</filter>
<filter id="filter1_f_760_2890" x="1568.01" y="29.9062" width="33.9727" height="33.9727" filterUnits="userSpaceOnUse" color-interpolation-filters="sRGB">
<feFlood flood-opacity="0" result="BackgroundImageFix"/>
<feBlend mode="normal" in="SourceGraphic" in2="BackgroundImageFix" result="shape"/>
<feGaussianBlur stdDeviation="6" result="effect1_foregroundBlur_760_2890"/>
</filter>
<filter id="filter2_f_760_2890" x="943.033" y="0" width="33.9727" height="33.9727" filterUnits="userSpaceOnUse" color-interpolation-filters="sRGB">
<feFlood flood-opacity="0" result="BackgroundImageFix"/>
<feBlend mode="normal" in="SourceGraphic" in2="BackgroundImageFix" result="shape"/>
<feGaussianBlur stdDeviation="6" result="effect1_foregroundBlur_760_2890"/>
</filter>
<filter id="filter3_f_760_2890" x="52.2441" y="108.344" width="13.6406" height="13.6406" filterUnits="userSpaceOnUse" color-interpolation-filters="sRGB">
<feFlood flood-opacity="0" result="BackgroundImageFix"/>
<feBlend mode="normal" in="SourceGraphic" in2="BackgroundImageFix" result="shape"/>
<feGaussianBlur stdDeviation="2" result="effect1_foregroundBlur_760_2890"/>
</filter>
<filter id="filter4_f_760_2890" x="12.3359" y="108.344" width="13.6406" height="13.6406" filterUnits="userSpaceOnUse" color-interpolation-filters="sRGB">
<feFlood flood-opacity="0" result="BackgroundImageFix"/>
<feBlend mode="normal" in="SourceGraphic" in2="BackgroundImageFix" result="shape"/>
<feGaussianBlur stdDeviation="2" result="effect1_foregroundBlur_760_2890"/>
</filter>
<filter id="filter5_f_760_2890" x="93.5" y="108.344" width="13.6406" height="13.6406" filterUnits="userSpaceOnUse" color-interpolation-filters="sRGB">
<feFlood flood-opacity="0" result="BackgroundImageFix"/>
<feBlend mode="normal" in="SourceGraphic" in2="BackgroundImageFix" result="shape"/>
<feGaussianBlur stdDeviation="2" result="effect1_foregroundBlur_760_2890"/>
</filter>
<filter id="filter6_f_760_2890" x="682.898" y="92.9766" width="267.781" height="267.82" filterUnits="userSpaceOnUse" color-interpolation-filters="sRGB">
<feFlood flood-opacity="0" result="BackgroundImageFix"/>
<feBlend mode="normal" in="SourceGraphic" in2="BackgroundImageFix" result="shape"/>
<feGaussianBlur stdDeviation="50" result="effect1_foregroundBlur_760_2890"/>
</filter>
<filter id="filter7_d_760_2890" x="791.977" y="203.596" width="49.3301" height="54.5684" filterUnits="userSpaceOnUse" color-interpolation-filters="sRGB">
<feFlood flood-opacity="0" result="BackgroundImageFix"/>
<feColorMatrix in="SourceAlpha" type="matrix" values="0 0 0 0 0 0 0 0 0 0 0 0 0 0 0 0 0 0 127 0" result="hardAlpha"/>
<feOffset dy="4"/>
<feGaussianBlur stdDeviation="2"/>
<feComposite in2="hardAlpha" operator="out"/>
<feColorMatrix type="matrix" values="0 0 0 0 0 0 0 0 0 0 0 0 0 0 0 0 0 0 0.25 0"/>
<feBlend mode="normal" in2="BackgroundImageFix" result="effect1_dropShadow_760_2890"/>
<feBlend mode="normal" in="SourceGraphic" in2="effect1_dropShadow_760_2890" result="shape"/>
</filter>
<linearGradient id="paint0_linear_760_2890" x1="828.09" y1="144.505" x2="828.09" y2="2.76172" gradientUnits="userSpaceOnUse">
<stop stop-color="#CA892E"/>
<stop offset="1" stop-color="#79BCBF"/>
</linearGradient>
</defs>
</svg>
