<svg width="1657" height="501" viewBox="0 0 1657 501" fill="none" xmlns="http://www.w3.org/2000/svg">
<rect y="27.0762" width="1656.18" height="456.532" fill="#3D4B54"/>
<rect x="704.32" y="430.496" width="247.543" height="20.2341" rx="10.1171" fill="#F7F7F7"/>
<rect y="2.7832" width="1656.18" height="486.348" fill="#21282C"/>
<rect y="2.7832" width="1656.18" height="141.459" fill="url(#paint0_linear_760_2890)"/>
<circle cx="956.736" cy="144.238" r="45.0859" fill="#FFB800"/>
<rect x="221.02" y="144.24" width="1435.16" height="344.889" fill="#18559C"/>
<path d="M0 144.24H520.871L235.755 164.449L291.01 282.331L1013.01 450.06L996.065 489.13H0V144.24Z" fill="#FFAF38"/>
<g filter="url(#filter0_f_760_2890)">
<rect x="1460.21" y="113.756" width="7.04467" height="7.04467" transform="rotate(-45 1460.21 113.756)" fill="white"/>
</g>
<rect x="1463.25" y="112.629" width="2.81787" height="2.81787" transform="rotate(-45 1463.25 112.629)" fill="white"/>
<g filter="url(#filter1_f_760_2890)">
<rect x="1580.02" y="46.8301" width="7.04467" height="7.04467" transform="rotate(-45 1580.02 46.8301)" fill="white"/>
</g>
<rect x="1582.84" y="45.4238" width="2.81787" height="2.81787" transform="rotate(-45 1582.84 45.4238)" fill="white"/>
<g filter="url(#filter2_f_760_2890)">
<rect x="955.039" y="16.9805" width="7.04467" height="7.04467" transform="rotate(-45 955.039 16.9805)" fill="white"/>
</g>
<rect x="957.854" y="15.5723" width="2.81787" height="2.81787" transform="rotate(-45 957.854 15.5723)" fill="white"/>
<circle cx="1564.09" cy="85.6368" r="2.1134" fill="#FFF2C2"/>
<circle cx="1291.49" cy="108.537" r="2.1134" fill="#FFF2C2"/>
<circle cx="1334.22" cy="45.2208" r="2.1134" fill="#FFF2C2"/>
<circle cx="1295.92" cy="30.4025" r="2.1134" fill="#FFF2C2"/>
<circle cx="1157.41" cy="78.9005" r="2.1134" fill="#FFF2C2"/>
<circle cx="1138.26" cy="82.9435" r="2.1134" fill="#FFF2C2"/>
<circle cx="917.234" cy="74.8595" r="2.1134" fill="#FFF2C2"/>
<circle cx="1133.83" cy="105.846" r="2.1134" fill="#FFF2C2"/>
<circle cx="697.373" cy="57.3439" r="2.1134" fill="#FFF2C2"/>
<path d="M1155.2 110.559L1362.96 128.746L1401.27 155.017H1190.56L1155.2 110.559Z" fill="#0D2035"/>
<path d="M1232.56 117.295L1408.64 125.378L1401.27 155.017L1362.96 128.746L1232.56 117.295Z" fill="#000F21"/>
<path d="M1197.93 102.477L1271.6 113.254L1343.8 128.074H1197.93V102.477Z" fill="#0D2035"/>
<rect x="1245.08" y="80.9199" width="8.84082" height="35.0278" fill="#0D2035"/>
<rect width="15.1339" height="13.5793" transform="matrix(0.948986 0.315319 -0.369355 0.929289 1247.09 75.1719)" fill="#0D2035"/>
<path d="M1259.37 66.8303L1258.55 80.7497L1249.13 77.1533L1259.37 66.8303Z" fill="#0D2035"/>
<path d="M1304.65 450.06L1655.44 485.762H1200.88L996.802 489.803C996.802 489.803 980.932 479.883 958.381 468.248C887.645 431.753 830.437 466.998 751.358 450.06C694.575 437.897 667.586 414.153 609.905 406.275C561.815 399.707 485.397 406.275 485.397 406.275C485.397 406.275 345.308 415.448 282.058 369.227C259.94 353.063 233.433 320.053 233.433 320.053C233.433 320.053 33.7787 288.393 1.36205 216.317C-31.0546 144.24 525.917 144.24 525.917 144.24C525.917 144.24 233.433 155.692 255.535 192.067C277.638 228.442 343.858 189.849 354.995 226.421C358.699 238.585 342.47 240.567 354.995 258.754C367.519 276.942 468.452 283.678 468.452 283.678C468.452 283.678 634.785 288.75 687.262 295.129C765.007 304.581 800.924 338.265 877.34 354.407C972.569 374.524 1066.42 306.719 1126.36 377.31C1138.13 391.177 1231.08 432.546 1231.08 432.546L1304.65 450.06Z" fill="#59A3C4"/>
<rect y="125.379" width="117.878" height="5.3889" fill="#0D2035"/>
<rect x="61.8848" y="130.768" width="13.4722" height="5.89388" transform="rotate(90 61.8848 130.768)" fill="#0D2035"/>
<rect x="110.51" y="130.768" width="13.4722" height="5.89388" transform="rotate(90 110.51 130.768)" fill="#0D2035"/>
<rect x="94.3008" y="130.768" width="13.4722" height="5.89388" transform="rotate(90 94.3008 130.768)" fill="#0D2035"/>
<rect x="29.4688" y="130.768" width="13.4722" height="5.89388" transform="rotate(90 29.4688 130.768)" fill="#0D2035"/>
<rect x="5.89453" y="130.768" width="13.4722" height="5.89388" transform="rotate(90 5.89453 130.768)" fill="#0D2035"/>
<g filter="url(#filter3_f_760_2890)">
<circle cx="59.0679" cy="114.96" r="2.81787" fill="#FFF2C2"/>
</g>
<rect x="58.9395" y="114.604" width="10.7778" height="1.47347" transform="rotate(90 58.9395 114.604)" fill="#0D2035"/>
<circle cx="58.1056" cy="114.024" r="2.1134" fill="#FFF2C2"/>
<g filter="url(#filter4_f_760_2890)">
<circle cx="19.1558" cy="114.96" r="2.81787" fill="#FFF2C2"/>
</g>
<rect x="19.1562" y="114.604" width="10.7778" height="1.47347" transform="rotate(90 19.1562 114.604)" fill="#0D2035"/>
<circle cx="18.3204" cy="114.193" r="2.1134" fill="#FFF2C2"/>
<g filter="url(#filter5_f_760_2890)">
<circle cx="100.324" cy="114.96" r="2.81787" fill="#FFF2C2"/>
</g>
<rect x="100.195" y="114.604" width="10.7778" height="1.47347" transform="rotate(90 100.195 114.604)" fill="#0D2035"/>
<circle cx="99.3634" cy="114.024" r="2.1134" fill="#FFF2C2"/>
<path d="M753.55 430.391H585.735C582.575 430.391 580.014 432.953 580.014 436.115V436.878C580.014 440.039 582.575 442.602 585.735 442.602H753.55C756.71 442.602 759.271 440.039 759.271 436.878V436.115C759.271 432.953 756.71 430.391 753.55 430.391Z" fill="#2E2E33"/>
<path d="M735.045 306.217C716.128 312.918 684.728 295.787 684.728 295.787C684.728 295.787 681.958 286.092 684.1 280.526C687.11 272.701 701.681 268.217 701.681 268.217C701.681 268.217 716.452 274.881 726.557 275.531C743.55 276.623 752.985 246.393 767.069 255.969C784.871 268.074 755.334 299.03 735.045 306.217Z" fill="#D9D9D9"/>
<path d="M666.209 249.6C666.209 246.608 668.4 244.067 671.358 243.629C671.358 243.629 708.318 240.613 719.986 256.413C728.617 268.1 729.709 279.384 725.326 293.239C720.814 307.502 699.199 318.905 693.392 321.748C692.432 322.218 691.422 322.531 690.371 322.725L681.989 324.278C673.782 325.799 666.209 319.496 666.209 311.145V249.6Z" fill="#A33F0F"/>
<path d="M673.265 265.724C678.665 256.524 691.983 250.579 700.286 261.803C706.429 270.105 703.406 278.397 700.286 288.239C698.433 294.088 691.71 298.278 685.434 301.01C678.862 303.872 671.845 299.53 670.919 292.419C669.775 283.639 669.371 272.357 673.265 265.724Z" fill="#EAEAEA"/>
<path d="M560.562 265.151C560.562 257.775 566.539 251.795 573.911 251.795H639.894V323.539C639.894 330.915 633.917 336.895 626.545 336.895H573.911C566.539 336.895 560.562 330.915 560.562 323.539V265.151Z" fill="#FE8101"/>
<path d="M611.288 280.416C611.288 282.524 609.58 284.232 607.474 284.232H562.087C559.981 284.232 558.273 282.524 558.273 280.416V265.151C558.273 257.775 564.25 251.795 571.622 251.795H611.288V280.416Z" fill="#FFB800"/>
<g filter="url(#filter6_f_760_2890)">
<path d="M753.731 218.43C756.499 206.649 765.338 197.24 776.919 193.748C788.5 190.256 801.064 193.211 809.877 201.5C818.69 209.789 822.414 222.153 819.646 233.934C816.878 245.715 808.039 255.124 796.458 258.616C784.877 262.109 772.314 259.154 763.501 250.865C754.687 242.576 750.963 230.212 753.731 218.43Z" fill="#D0E60A"/>
</g>
<g filter="url(#filter7_d_760_2890)">
<path d="M784.633 203.427C785.814 202.746 787.267 202.746 788.447 203.427L805.277 213.15C806.458 213.831 807.184 215.091 807.184 216.454V235.899C807.184 237.262 806.458 238.522 805.277 239.204L788.447 248.926C787.267 249.608 785.814 249.608 784.633 248.926L767.803 239.204C766.623 238.522 765.896 237.262 765.896 235.899V216.454C765.896 215.091 766.623 213.831 767.803 213.15L784.633 203.427Z" fill="#35984E"/>
</g>
<path d="M792.065 223.6C789.528 225.078 786.343 223.253 786.333 220.316L786.305 212.492C786.294 209.554 789.466 207.707 792.014 209.166L798.8 213.054C801.347 214.514 801.36 218.186 798.823 219.664L792.065 223.6Z" fill="#BEE275"/>
<path d="M727.416 356.966C718.634 337.991 685.339 320.441 685.339 320.441C685.339 320.441 674.848 323.561 671.252 328.497C666.197 335.435 671.655 350.233 671.655 350.233C671.655 350.233 685.899 360.122 692.124 368.626C702.858 383.287 700.528 402.863 703.211 412.214C705.893 421.564 730.428 420.259 742.677 412.123C753.515 404.925 766.475 395.182 755.772 382.972C745.069 370.763 732.899 385.786 732.899 385.786C732.899 385.786 732.321 367.565 727.416 356.966Z" fill="#D9D9D9"/>
<path d="M658.403 392.06C667.668 374.25 661.187 340.722 661.187 340.722C661.187 340.722 652.528 335.564 646.602 336.213C638.272 337.125 630.214 350.073 630.214 350.073C630.214 350.073 631.166 365.905 628.383 375.438C623.584 391.874 607.215 402.532 601.666 410.195C596.118 417.854 611.421 436.271 625.331 436.878C647.141 437.832 652.521 442.411 655.462 427.528C658.403 412.645 639.634 413.79 639.634 413.79C639.634 413.79 653.227 402.009 658.403 392.06Z" fill="#EAEAEA"/>
<path d="M574.361 195.994C575.102 182.819 579.238 175.788 585.04 163.938C595.529 142.519 595.72 124.059 624.324 117.19C652.929 110.321 673.144 146.384 673.144 146.384C673.144 146.384 680.772 117.381 710.711 121.579C740.651 125.777 740.27 163.938 744.847 183.21C749.423 202.481 751.903 197.965 751.712 208.015C751.533 217.42 749.454 222.903 744.847 231.102C737.836 243.58 715.67 254.572 715.67 254.572C715.67 254.572 723.355 297.521 710.139 319.065C698.177 338.565 685.348 347.495 661.892 352.265C638.436 357.035 613.406 394.156 579.891 385.657C562.605 381.273 550.287 376.764 541.179 361.424C532.294 346.457 526.496 321.545 537.938 316.966C549.38 312.386 548.899 341.121 562.919 347.495C573.073 352.111 580.594 353.365 591.333 350.357C609.205 345.352 610.358 328.924 616.819 311.516C624.674 290.35 624.638 277.743 619.938 254.572C619.938 254.572 585.286 235.673 579.891 225.951C574.121 215.549 573.693 207.872 574.361 195.994Z" fill="#EAEAEA"/>
<path d="M662.396 131.967L684.518 133.112C684.518 133.112 699.583 133.302 695.769 146.659C691.955 160.016 681.466 156.39 674.411 150.666C667.355 144.942 662.396 131.967 662.396 131.967Z" fill="#D9D9D9"/>
<path d="M582.624 170.992L590.25 183.526C590.25 183.526 595.778 191.833 586.774 194.942C577.77 198.05 575.903 190.909 576.511 184.827C577.118 178.746 582.624 170.992 582.624 170.992Z" fill="#D9D9D9"/>
<path d="M561.219 347.58L582.644 353.206C582.644 353.206 597.355 356.461 590.904 368.762C584.452 381.061 574.921 375.376 569.177 368.335C563.434 361.293 561.219 347.58 561.219 347.58Z" fill="#D9D9D9"/>
<path d="M710.833 203.52C710.833 210.159 705.454 215.541 698.819 215.541C692.184 215.541 686.805 210.159 686.805 203.52C686.805 196.881 688.56 186.348 695.195 186.348C701.831 186.348 710.833 196.881 710.833 203.52Z" fill="#EAEAEA"/>
<path d="M701.699 330.605L694.052 309.805C694.052 309.805 688.302 295.87 702.076 294.126C715.849 292.382 716.642 303.457 714.157 312.199C711.672 320.941 701.699 330.605 701.699 330.605Z" fill="#D9D9D9"/>
<path d="M678.796 210.962C680.903 210.962 682.61 209.254 682.61 207.146C682.61 205.039 680.903 203.33 678.796 203.33C676.69 203.33 674.982 205.039 674.982 207.146C674.982 209.254 676.69 210.962 678.796 210.962Z" fill="#D9D9D9"/>
<path d="M698.248 210.962C700.354 210.962 702.062 209.254 702.062 207.146C702.062 205.039 700.354 203.33 698.248 203.33C696.141 203.33 694.434 205.039 694.434 207.146C694.434 209.254 696.141 210.962 698.248 210.962Z" fill="#D9D9D9"/>
<path d="M704.132 224.017C708.518 229.169 698.302 241.38 683.346 241.38C668.391 241.38 649.592 228.215 654.932 218.865C658.637 212.378 666.946 225.543 683.346 225.543C698.302 225.543 699.746 218.865 704.132 224.017Z" fill="#A43F10"/>
<path d="M698.247 236.531C698.247 236.531 693.67 241.38 683.347 241.38C675.172 241.38 666.781 236.912 666.781 236.912C666.781 236.912 672.039 231.951 682.991 231.951C692.907 231.951 698.247 236.531 698.247 236.531Z" fill="#EE622D"/>
<path d="M610.525 253.797C610.525 250.805 612.716 248.264 615.674 247.826C615.674 247.826 652.635 244.81 664.303 260.61C672.934 272.297 674.025 283.581 669.642 297.436C665.13 311.699 643.515 323.102 637.708 325.946C636.748 326.416 635.739 326.728 634.688 326.922L626.305 328.476C618.098 329.996 610.525 323.694 610.525 315.343V253.797Z" fill="#A33F0F"/>
<path d="M617.581 269.921C622.981 260.721 636.299 254.777 644.603 266C650.746 274.303 647.722 282.594 644.603 292.436C642.749 298.285 636.026 302.476 629.751 305.208C623.178 308.069 616.162 303.727 615.235 296.616C614.091 287.836 613.688 276.555 617.581 269.921Z" fill="#EAEAEA"/>
<path d="M585.991 292.249C593.625 273.68 627.329 261.711 627.329 261.711C627.329 261.711 636.395 266.115 639.109 271.426C642.925 278.891 636.54 292.742 636.54 292.742C636.54 292.742 621.723 299.302 614.497 306.399C602.344 318.334 613.403 342.201 596.876 346.307C575.988 351.496 577.802 312.164 585.991 292.249Z" fill="#EAEAEA"/>
<path d="M662.395 177.379C662.395 161.572 649.589 148.758 633.79 148.758C617.992 148.758 605.186 161.572 605.186 177.379V188.446C605.186 204.253 617.992 217.067 633.79 217.067C649.589 217.067 662.395 204.253 662.395 188.446V177.379Z" fill="white"/>
<path d="M648.283 176.997C648.283 171.306 643.673 166.693 637.985 166.693C632.298 166.693 627.688 171.306 627.688 176.997V188.445C627.688 194.136 632.298 198.749 637.985 198.749C643.673 198.749 648.283 194.136 648.283 188.445V176.997Z" fill="#1E1E1E"/>
<path d="M633.41 186.919C635.516 186.919 637.224 185.211 637.224 183.103C637.224 180.996 635.516 179.287 633.41 179.287C631.303 179.287 629.596 180.996 629.596 183.103C629.596 185.211 631.303 186.919 633.41 186.919Z" fill="white"/>
<path d="M737.532 168.031C737.532 157.598 729.079 149.141 718.653 149.141C708.226 149.141 699.773 157.598 699.773 168.031V190.927C699.773 201.36 708.226 209.817 718.653 209.817C729.079 209.817 737.532 201.36 737.532 190.927V168.031Z" fill="white"/>
<path d="M723.039 176.997C723.039 171.306 718.428 166.693 712.741 166.693C707.054 166.693 702.443 171.306 702.443 176.997V188.445C702.443 194.136 707.054 198.749 712.741 198.749C718.428 198.749 723.039 194.136 723.039 188.445V176.997Z" fill="#1E1E1E"/>
<path d="M706.257 186.919C708.364 186.919 710.071 185.211 710.071 183.103C710.071 180.996 708.364 179.287 706.257 179.287C704.151 179.287 702.443 180.996 702.443 183.103C702.443 185.211 704.151 186.919 706.257 186.919Z" fill="white"/>
<defs>
<filter id="filter0_f_760_2890" x="1448.21" y="96.7754" width="33.9629" height="33.9609" filterUnits="userSpaceOnUse" color-interpolation-filters="sRGB">
<feFlood flood-opacity="0" result="BackgroundImageFix"/>
<feBlend mode="normal" in="SourceGraphic" in2="BackgroundImageFix" result="shape"/>
<feGaussianBlur stdDeviation="6" result="effect1_foregroundBlur_760_2890"/>
</filter>
<filter id="filter1_f_760_2890" x="1568.02" y="29.8496" width="33.9629" height="33.9609" filterUnits="userSpaceOnUse" color-interpolation-filters="sRGB">
<feFlood flood-opacity="0" result="BackgroundImageFix"/>
<feBlend mode="normal" in="SourceGraphic" in2="BackgroundImageFix" result="shape"/>
<feGaussianBlur stdDeviation="6" result="effect1_foregroundBlur_760_2890"/>
</filter>
<filter id="filter2_f_760_2890" x="943.039" y="0" width="33.9629" height="33.9609" filterUnits="userSpaceOnUse" color-interpolation-filters="sRGB">
<feFlood flood-opacity="0" result="BackgroundImageFix"/>
<feBlend mode="normal" in="SourceGraphic" in2="BackgroundImageFix" result="shape"/>
<feGaussianBlur stdDeviation="6" result="effect1_foregroundBlur_760_2890"/>
</filter>
<filter id="filter3_f_760_2890" x="52.25" y="108.143" width="13.6348" height="13.6348" filterUnits="userSpaceOnUse" color-interpolation-filters="sRGB">
<feFlood flood-opacity="0" result="BackgroundImageFix"/>
<feBlend mode="normal" in="SourceGraphic" in2="BackgroundImageFix" result="shape"/>
<feGaussianBlur stdDeviation="2" result="effect1_foregroundBlur_760_2890"/>
</filter>
<filter id="filter4_f_760_2890" x="12.3379" y="108.143" width="13.6348" height="13.6348" filterUnits="userSpaceOnUse" color-interpolation-filters="sRGB">
<feFlood flood-opacity="0" result="BackgroundImageFix"/>
<feBlend mode="normal" in="SourceGraphic" in2="BackgroundImageFix" result="shape"/>
<feGaussianBlur stdDeviation="2" result="effect1_foregroundBlur_760_2890"/>
</filter>
<filter id="filter5_f_760_2890" x="93.5059" y="108.143" width="13.6348" height="13.6348" filterUnits="userSpaceOnUse" color-interpolation-filters="sRGB">
<feFlood flood-opacity="0" result="BackgroundImageFix"/>
<feBlend mode="normal" in="SourceGraphic" in2="BackgroundImageFix" result="shape"/>
<feGaussianBlur stdDeviation="2" result="effect1_foregroundBlur_760_2890"/>
</filter>
<filter id="filter6_f_760_2890" x="652.832" y="92.3066" width="267.713" height="267.752" filterUnits="userSpaceOnUse" color-interpolation-filters="sRGB">
<feFlood flood-opacity="0" result="BackgroundImageFix"/>
<feBlend mode="normal" in="SourceGraphic" in2="BackgroundImageFix" result="shape"/>
<feGaussianBlur stdDeviation="50" result="effect1_foregroundBlur_760_2890"/>
</filter>
<filter id="filter7_d_760_2890" x="761.896" y="202.916" width="49.2871" height="54.5215" filterUnits="userSpaceOnUse" color-interpolation-filters="sRGB">
<feFlood flood-opacity="0" result="BackgroundImageFix"/>
<feColorMatrix in="SourceAlpha" type="matrix" values="0 0 0 0 0 0 0 0 0 0 0 0 0 0 0 0 0 0 127 0" result="hardAlpha"/>
<feOffset dy="4"/>
<feGaussianBlur stdDeviation="2"/>
<feComposite in2="hardAlpha" operator="out"/>
<feColorMatrix type="matrix" values="0 0 0 0 0 0 0 0 0 0 0 0 0 0 0 0 0 0 0.25 0"/>
<feBlend mode="normal" in2="BackgroundImageFix" result="effect1_dropShadow_760_2890"/>
<feBlend mode="normal" in="SourceGraphic" in2="effect1_dropShadow_760_2890" result="shape"/>
</filter>
<linearGradient id="paint0_linear_760_2890" x1="828.09" y1="144.242" x2="828.09" y2="2.7832" gradientUnits="userSpaceOnUse">
<stop stop-color="#CA892E"/>
<stop offset="1" stop-color="#79BCBF"/>
</linearGradient>
</defs>
</svg>
