<svg width="1657" height="554" viewBox="0 0 1657 554" fill="none" xmlns="http://www.w3.org/2000/svg">
<rect x="720.477" y="492.561" width="215.231" height="18.1307" rx="9.06537" fill="#F7F7F7"/>
<rect y="62.4102" width="1656.18" height="470.488" fill="#21282C"/>
<rect x="221.02" y="199.258" width="1435.16" height="333.642" fill="#07264A"/>
<path d="M0 199.258H520.873L235.756 218.807L291.011 332.845L1013.01 495.105L996.067 532.9H0V199.258Z" fill="#605143"/>
<rect y="62.4102" width="1656.18" height="136.845" fill="#123D67"/>
<g clip-path="url(#clip0_760_2776)">
<circle cx="352.032" cy="106.916" r="1.68975" fill="#FFF2C2"/>
<circle cx="192.069" cy="130.916" r="1.68975" fill="#FFF2C2"/>
<g filter="url(#filter0_f_760_2776)">
<rect x="165" y="104.227" width="5" height="5" transform="rotate(-45 165 104.227)" fill="white"/>
</g>
<rect x="167" y="103.227" width="2" height="2" transform="rotate(-45 167 103.227)" fill="white"/>
<g filter="url(#filter1_f_760_2776)">
<rect x="35" y="131.762" width="5" height="5" transform="rotate(-45 35 131.762)" fill="white"/>
</g>
<rect x="37" y="130.762" width="2" height="2" transform="rotate(-45 37 130.762)" fill="white"/>
<g filter="url(#filter2_f_760_2776)">
<rect x="343" y="184.762" width="5" height="5" transform="rotate(-45 343 184.762)" fill="white"/>
</g>
<rect x="345" y="183.762" width="2" height="2" transform="rotate(-45 345 183.762)" fill="white"/>
<circle cx="308.098" cy="133.916" r="1.68975" fill="#FFF2C2"/>
<rect x="-1" y="183.227" width="80" height="4" fill="#0D2035"/>
<rect x="41" y="187.227" width="10" height="4" transform="rotate(90 41 187.227)" fill="#0D2035"/>
<rect x="74" y="187.227" width="10" height="4" transform="rotate(90 74 187.227)" fill="#0D2035"/>
<rect x="63" y="187.227" width="10" height="4" transform="rotate(90 63 187.227)" fill="#0D2035"/>
<rect x="19" y="187.227" width="10" height="4" transform="rotate(90 19 187.227)" fill="#0D2035"/>
<rect x="3" y="187.227" width="10" height="4" transform="rotate(90 3 187.227)" fill="#0D2035"/>
<g filter="url(#filter3_f_760_2776)">
<circle cx="43.9346" cy="175.48" r="2.253" fill="#FFF2C2"/>
</g>
<rect x="39" y="175.227" width="8" height="1" transform="rotate(90 39 175.227)" fill="#0D2035"/>
<circle cx="43.3714" cy="174.916" r="1.68975" fill="#FFF2C2"/>
<g filter="url(#filter4_f_760_2776)">
<circle cx="13.5186" cy="175.48" r="2.253" fill="#FFF2C2"/>
</g>
<rect x="12" y="175.227" width="8" height="1" transform="rotate(90 12 175.227)" fill="#0D2035"/>
<circle cx="12.9554" cy="174.916" r="1.68975" fill="#FFF2C2"/>
<g filter="url(#filter5_f_760_2776)">
<circle cx="75.4757" cy="175.48" r="2.253" fill="#FFF2C2"/>
</g>
<rect x="67" y="175.227" width="8" height="1" transform="rotate(90 67 175.227)" fill="#0D2035"/>
<circle cx="74.9124" cy="174.916" r="1.68975" fill="#FFF2C2"/>
</g>
<g filter="url(#filter6_f_760_2776)">
<rect x="1460.21" y="169.686" width="6.92886" height="6.92886" transform="rotate(-45 1460.21 169.686)" fill="white"/>
</g>
<rect x="1463.29" y="168.674" width="2.77154" height="2.77154" transform="rotate(-45 1463.29 168.674)" fill="white"/>
<g filter="url(#filter7_f_760_2776)">
<rect x="1580.18" y="105.107" width="6.92886" height="6.92886" transform="rotate(-45 1580.18 105.107)" fill="white"/>
</g>
<rect x="1582.96" y="103.719" width="2.77154" height="2.77154" transform="rotate(-45 1582.96 103.719)" fill="white"/>
<g filter="url(#filter8_f_760_2776)">
<rect x="955.119" y="76.1426" width="6.92886" height="6.92886" transform="rotate(-45 955.119 76.1426)" fill="white"/>
</g>
<rect x="957.891" y="74.7559" width="2.77154" height="2.77154" transform="rotate(-45 957.891 74.7559)" fill="white"/>
<circle cx="1564.09" cy="142.565" r="2.07866" fill="#FFF2C2"/>
<circle cx="1291.5" cy="164.719" r="2.07866" fill="#FFF2C2"/>
<circle cx="1334.23" cy="103.465" r="2.07866" fill="#FFF2C2"/>
<circle cx="1295.92" cy="89.1294" r="2.07866" fill="#FFF2C2"/>
<circle cx="1157.41" cy="136.047" r="2.07866" fill="#FFF2C2"/>
<circle cx="1138.26" cy="139.958" r="2.07866" fill="#FFF2C2"/>
<circle cx="917.235" cy="132.139" r="2.07866" fill="#FFF2C2"/>
<circle cx="1133.84" cy="162.116" r="2.07866" fill="#FFF2C2"/>
<circle cx="936.727" cy="132.806" r="44.3447" fill="#FFF2C2"/>
<ellipse cx="912.533" cy="109.578" rx="44.4167" ry="44.4167" transform="rotate(-103.971 912.533 109.578)" fill="#123D67"/>
<g filter="url(#filter9_f_760_2776)">
<ellipse cx="949.581" cy="140.902" rx="40.8918" ry="40.8918" transform="rotate(-103.971 949.581 140.902)" fill="#DFE2E6" fill-opacity="0.92"/>
</g>
<circle cx="687.374" cy="115.198" r="2.07866" fill="#FFF2C2"/>
<path d="M1155.2 166.674L1362.96 184.268L1401.27 209.682H1190.56L1155.2 166.674Z" fill="#0D2035"/>
<path d="M1232.56 173.191L1408.64 181.011L1401.27 209.684L1362.96 184.269L1232.56 173.191Z" fill="#000F21"/>
<path d="M1197.93 158.855L1271.61 169.282L1343.81 183.618H1197.93V158.855Z" fill="#0D2035"/>
<rect x="1245.08" y="138.004" width="8.84084" height="33.8855" fill="#0D2035"/>
<rect width="15.0856" height="13.1978" transform="matrix(0.952027 0.306013 -0.380033 0.924973 1247.1 132.439)" fill="#0D2035"/>
<path d="M1259.38 124.372L1258.55 137.837L1249.13 134.358L1259.38 124.372Z" fill="#0D2035"/>
<path d="M1304.65 495.105L1655.45 529.642H1200.88L996.804 533.552C996.804 533.552 980.934 523.955 958.383 512.699C887.647 477.395 830.439 511.491 751.36 495.105C694.576 483.339 667.587 460.369 609.906 452.748C561.816 446.394 485.398 452.748 485.398 452.748C485.398 452.748 345.309 461.621 282.058 416.907C259.94 401.271 233.434 369.337 233.434 369.337C233.434 369.337 33.7787 338.71 1.36205 268.984C-31.0546 199.258 525.918 199.258 525.918 199.258C525.918 199.258 233.434 210.336 255.536 245.525C277.638 280.713 343.859 243.379 354.995 278.758C358.7 290.526 342.471 292.443 354.995 310.037C367.52 327.632 468.453 334.148 468.453 334.148C468.453 334.148 634.786 339.055 687.264 345.226C765.009 354.369 800.925 386.955 877.342 402.571C972.571 422.032 1066.43 356.438 1126.36 424.727C1138.13 438.141 1231.09 478.162 1231.09 478.162L1304.65 495.105Z" fill="#044765"/>
<g clip-path="url(#clip1_760_2776)">
<path d="M769.504 492.111H621.38C618.591 492.111 616.33 494.373 616.33 497.164V497.838C616.33 500.628 618.591 502.89 621.38 502.89H769.504C772.293 502.89 774.553 500.628 774.553 497.838V497.164C774.553 494.373 772.293 492.111 769.504 492.111Z" fill="#2E2E33"/>
<path d="M753.171 382.509C736.474 388.423 708.759 373.303 708.759 373.303C708.759 373.303 706.313 364.746 708.203 359.832C710.861 352.926 723.722 348.967 723.722 348.967C723.722 348.967 736.759 354.85 745.678 355.423C760.678 356.388 769.006 329.704 781.437 338.157C797.15 348.841 771.079 376.165 753.171 382.509Z" fill="#D9D9D9"/>
<path d="M692.412 332.536C692.412 329.895 694.346 327.653 696.957 327.266C696.957 327.266 729.58 324.604 739.879 338.55C747.497 348.866 748.461 358.826 744.592 371.054C740.609 383.644 721.531 393.709 716.406 396.219C715.558 396.634 714.667 396.909 713.739 397.081L706.34 398.452C699.097 399.794 692.412 394.231 692.412 386.86V332.536Z" fill="#A33F0F"/>
<path d="M698.641 346.768C703.407 338.648 715.162 333.4 722.492 343.307C727.914 350.635 725.245 357.954 722.492 366.641C720.856 371.804 714.922 375.503 709.382 377.914C703.581 380.44 697.388 376.607 696.57 370.33C695.56 362.581 695.204 352.623 698.641 346.768Z" fill="#EAEAEA"/>
<path d="M599.162 346.262C599.162 339.751 604.437 334.473 610.945 334.473H669.184V397.798C669.184 404.309 663.909 409.587 657.402 409.587H610.945C604.437 409.587 599.162 404.309 599.162 397.798V346.262Z" fill="#FE8101"/>
<path d="M643.936 359.735C643.936 361.596 642.429 363.104 640.57 363.104H600.509C598.65 363.104 597.143 361.596 597.143 359.735V346.262C597.143 339.751 602.418 334.473 608.925 334.473H643.936V359.735Z" fill="#FFB800"/>
<g filter="url(#filter10_f_760_2776)">
<path d="M769.665 305.025C772.108 294.626 779.91 286.322 790.132 283.239C800.354 280.157 811.443 282.765 819.222 290.081C827.001 297.398 830.288 308.311 827.845 318.71C825.402 329.109 817.6 337.413 807.378 340.496C797.156 343.578 786.067 340.97 778.288 333.654C770.509 326.337 767.222 315.424 769.665 305.025Z" fill="#D0E60A"/>
</g>
<g filter="url(#filter11_d_760_2776)">
<path d="M796.941 291.779C797.982 291.178 799.266 291.178 800.307 291.779L815.162 300.361C816.204 300.962 816.846 302.074 816.846 303.278V320.441C816.846 321.644 816.204 322.756 815.162 323.358L800.307 331.939C799.266 332.541 797.982 332.541 796.941 331.939L782.086 323.358C781.044 322.756 780.402 321.644 780.402 320.441V303.278C780.402 302.074 781.044 300.962 782.086 300.361L796.941 291.779Z" fill="#35984E"/>
</g>
<path d="M803.501 309.587C801.261 310.891 798.45 309.281 798.441 306.688L798.416 299.782C798.407 297.189 801.206 295.558 803.455 296.847L809.445 300.278C811.694 301.567 811.705 304.808 809.466 306.112L803.501 309.587Z" fill="#BEE275"/>
<path d="M746.437 427.303C738.686 410.555 709.298 395.064 709.298 395.064C709.298 395.064 700.038 397.818 696.863 402.175C692.402 408.299 697.22 421.361 697.22 421.361C697.22 421.361 709.792 430.089 715.287 437.595C724.761 450.536 722.704 467.815 725.072 476.068C727.44 484.321 749.095 483.169 759.907 475.988C769.473 469.634 780.913 461.035 771.466 450.258C762.019 439.481 751.277 452.742 751.277 452.742C751.277 452.742 750.767 436.659 746.437 427.303Z" fill="#D9D9D9"/>
<path d="M685.521 458.28C693.699 442.559 687.978 412.966 687.978 412.966C687.978 412.966 680.335 408.413 675.104 408.985C667.752 409.791 660.64 421.219 660.64 421.219C660.64 421.219 661.479 435.194 659.023 443.608C654.787 458.116 640.339 467.523 635.442 474.287C630.544 481.047 644.051 497.303 656.33 497.838C675.58 498.68 680.329 502.722 682.925 489.586C685.521 476.449 668.954 477.46 668.954 477.46C668.954 477.46 680.952 467.061 685.521 458.28Z" fill="#EAEAEA"/>
<path d="M611.341 285.221C611.995 273.592 615.645 267.386 620.767 256.927C630.025 238.021 630.193 221.727 655.441 215.664C680.69 209.601 698.532 241.432 698.532 241.432C698.532 241.432 705.265 215.833 731.692 219.538C758.118 223.243 757.782 256.927 761.821 273.937C765.861 290.947 768.05 286.961 767.881 295.831C767.723 304.133 765.888 308.972 761.821 316.21C755.633 327.223 736.068 336.925 736.068 336.925C736.068 336.925 742.852 374.835 731.187 393.851C720.628 411.063 709.305 418.945 688.601 423.155C667.897 427.366 645.804 460.13 616.222 452.629C600.964 448.759 590.092 444.78 582.053 431.24C574.209 418.029 569.092 396.04 579.191 391.998C589.29 387.956 588.866 413.319 601.241 418.945C610.204 423.019 616.842 424.126 626.321 421.471C642.096 417.054 643.114 402.553 648.816 387.188C655.75 368.506 655.718 357.378 651.57 336.925C651.57 336.925 620.984 320.245 616.222 311.663C611.128 302.482 610.751 295.705 611.341 285.221Z" fill="#EAEAEA"/>
<path d="M689.047 228.705L708.572 229.716C708.572 229.716 721.87 229.884 718.503 241.673C715.137 253.463 705.879 250.263 699.651 245.21C693.423 240.158 689.047 228.705 689.047 228.705Z" fill="#D9D9D9"/>
<path d="M618.635 263.152L625.366 274.215C625.366 274.215 630.245 281.548 622.298 284.292C614.35 287.035 612.702 280.732 613.239 275.364C613.775 269.996 618.635 263.152 618.635 263.152Z" fill="#D9D9D9"/>
<path d="M599.742 419.018L618.653 423.984C618.653 423.984 631.638 426.857 625.944 437.714C620.25 448.57 611.837 443.552 606.767 437.337C601.697 431.121 599.742 419.018 599.742 419.018Z" fill="#D9D9D9"/>
<path d="M731.8 291.863C731.8 297.723 727.053 302.473 721.196 302.473C715.34 302.473 710.592 297.723 710.592 291.863C710.592 286.003 712.141 276.705 717.998 276.705C723.855 276.705 731.8 286.003 731.8 291.863Z" fill="#EAEAEA"/>
<path d="M723.736 404.036L716.986 385.676C716.986 385.676 711.911 373.377 724.069 371.837C736.226 370.298 736.926 380.073 734.732 387.789C732.539 395.506 723.736 404.036 723.736 404.036Z" fill="#D9D9D9"/>
<path d="M703.523 298.43C705.382 298.43 706.889 296.922 706.889 295.062C706.889 293.201 705.382 291.693 703.523 291.693C701.663 291.693 700.156 293.201 700.156 295.062C700.156 296.922 701.663 298.43 703.523 298.43Z" fill="#D9D9D9"/>
<path d="M720.691 298.43C722.55 298.43 724.057 296.922 724.057 295.062C724.057 293.201 722.55 291.693 720.691 291.693C718.831 291.693 717.324 293.201 717.324 295.062C717.324 296.922 718.831 298.43 720.691 298.43Z" fill="#D9D9D9"/>
<path d="M725.887 309.954C729.758 314.501 720.74 325.28 707.54 325.28C694.339 325.28 677.747 313.659 682.46 305.406C685.73 299.68 693.064 311.301 707.54 311.301C720.74 311.301 722.016 305.406 725.887 309.954Z" fill="#A43F10"/>
<path d="M720.691 320.999C720.691 320.999 716.651 325.28 707.539 325.28C700.324 325.28 692.918 321.336 692.918 321.336C692.918 321.336 697.559 316.957 707.225 316.957C715.978 316.957 720.691 320.999 720.691 320.999Z" fill="#EE622D"/>
<path d="M643.262 336.241C643.262 333.6 645.195 331.358 647.806 330.971C647.806 330.971 680.43 328.309 690.729 342.255C698.347 352.571 699.31 362.531 695.442 374.759C691.459 387.349 672.381 397.414 667.255 399.924C666.408 400.339 665.516 400.614 664.589 400.786L657.19 402.157C649.946 403.499 643.262 397.936 643.262 390.565V336.241Z" fill="#A33F0F"/>
<path d="M649.491 350.473C654.257 342.353 666.012 337.105 673.341 347.012C678.763 354.34 676.095 361.659 673.341 370.346C671.705 375.509 665.771 379.208 660.232 381.619C654.431 384.145 648.238 380.312 647.42 374.036C646.41 366.286 646.054 356.328 649.491 350.473Z" fill="#EAEAEA"/>
<path d="M621.607 370.179C628.345 353.789 658.095 343.225 658.095 343.225C658.095 343.225 666.096 347.112 668.492 351.799C671.86 358.389 666.225 370.614 666.225 370.614C666.225 370.614 653.146 376.405 646.768 382.669C636.041 393.203 645.803 414.27 631.215 417.894C612.778 422.474 614.379 387.758 621.607 370.179Z" fill="#EAEAEA"/>
<path d="M689.046 268.79C689.046 254.838 677.742 243.527 663.797 243.527C649.853 243.527 638.549 254.838 638.549 268.79V278.558C638.549 292.511 649.853 303.821 663.797 303.821C677.742 303.821 689.046 292.511 689.046 278.558V268.79Z" fill="white"/>
<path d="M676.591 268.452C676.591 263.429 672.521 259.357 667.502 259.357C662.482 259.357 658.412 263.429 658.412 268.452V278.557C658.412 283.58 662.482 287.652 667.502 287.652C672.521 287.652 676.591 283.58 676.591 278.557V268.452Z" fill="#1E1E1E"/>
<path d="M663.46 277.211C665.319 277.211 666.827 275.703 666.827 273.843C666.827 271.983 665.319 270.475 663.46 270.475C661.601 270.475 660.094 271.983 660.094 273.843C660.094 275.703 661.601 277.211 663.46 277.211Z" fill="white"/>
<path d="M755.365 260.537C755.365 251.328 747.904 243.863 738.701 243.863C729.498 243.863 722.037 251.328 722.037 260.537V280.747C722.037 289.955 729.498 297.42 738.701 297.42C747.904 297.42 755.365 289.955 755.365 280.747V260.537Z" fill="white"/>
<path d="M742.573 268.452C742.573 263.429 738.504 259.357 733.484 259.357C728.464 259.357 724.395 263.429 724.395 268.452V278.557C724.395 283.58 728.464 287.652 733.484 287.652C738.504 287.652 742.573 283.58 742.573 278.557V268.452Z" fill="#1E1E1E"/>
<path d="M727.761 277.211C729.62 277.211 731.127 275.703 731.127 273.843C731.127 271.983 729.62 270.475 727.761 270.475C725.902 270.475 724.395 271.983 724.395 273.843C724.395 275.703 725.902 277.211 727.761 277.211Z" fill="white"/>
</g>
<defs>
<filter id="filter0_f_760_2776" x="153" y="88.6914" width="31.0703" height="31.0703" filterUnits="userSpaceOnUse" color-interpolation-filters="sRGB">
<feFlood flood-opacity="0" result="BackgroundImageFix"/>
<feBlend mode="normal" in="SourceGraphic" in2="BackgroundImageFix" result="shape"/>
<feGaussianBlur stdDeviation="6" result="effect1_foregroundBlur_760_2776"/>
</filter>
<filter id="filter1_f_760_2776" x="23" y="116.227" width="31.0703" height="31.0703" filterUnits="userSpaceOnUse" color-interpolation-filters="sRGB">
<feFlood flood-opacity="0" result="BackgroundImageFix"/>
<feBlend mode="normal" in="SourceGraphic" in2="BackgroundImageFix" result="shape"/>
<feGaussianBlur stdDeviation="6" result="effect1_foregroundBlur_760_2776"/>
</filter>
<filter id="filter2_f_760_2776" x="331" y="169.227" width="31.0703" height="31.0703" filterUnits="userSpaceOnUse" color-interpolation-filters="sRGB">
<feFlood flood-opacity="0" result="BackgroundImageFix"/>
<feBlend mode="normal" in="SourceGraphic" in2="BackgroundImageFix" result="shape"/>
<feGaussianBlur stdDeviation="6" result="effect1_foregroundBlur_760_2776"/>
</filter>
<filter id="filter3_f_760_2776" x="37.6816" y="169.227" width="12.5059" height="12.5059" filterUnits="userSpaceOnUse" color-interpolation-filters="sRGB">
<feFlood flood-opacity="0" result="BackgroundImageFix"/>
<feBlend mode="normal" in="SourceGraphic" in2="BackgroundImageFix" result="shape"/>
<feGaussianBlur stdDeviation="2" result="effect1_foregroundBlur_760_2776"/>
</filter>
<filter id="filter4_f_760_2776" x="7.26562" y="169.227" width="12.5059" height="12.5059" filterUnits="userSpaceOnUse" color-interpolation-filters="sRGB">
<feFlood flood-opacity="0" result="BackgroundImageFix"/>
<feBlend mode="normal" in="SourceGraphic" in2="BackgroundImageFix" result="shape"/>
<feGaussianBlur stdDeviation="2" result="effect1_foregroundBlur_760_2776"/>
</filter>
<filter id="filter5_f_760_2776" x="69.2227" y="169.227" width="12.5059" height="12.5059" filterUnits="userSpaceOnUse" color-interpolation-filters="sRGB">
<feFlood flood-opacity="0" result="BackgroundImageFix"/>
<feBlend mode="normal" in="SourceGraphic" in2="BackgroundImageFix" result="shape"/>
<feGaussianBlur stdDeviation="2" result="effect1_foregroundBlur_760_2776"/>
</filter>
<filter id="filter6_f_760_2776" x="1448.21" y="152.785" width="33.7988" height="33.8008" filterUnits="userSpaceOnUse" color-interpolation-filters="sRGB">
<feFlood flood-opacity="0" result="BackgroundImageFix"/>
<feBlend mode="normal" in="SourceGraphic" in2="BackgroundImageFix" result="shape"/>
<feGaussianBlur stdDeviation="6" result="effect1_foregroundBlur_760_2776"/>
</filter>
<filter id="filter7_f_760_2776" x="1568.18" y="88.207" width="33.7988" height="33.8008" filterUnits="userSpaceOnUse" color-interpolation-filters="sRGB">
<feFlood flood-opacity="0" result="BackgroundImageFix"/>
<feBlend mode="normal" in="SourceGraphic" in2="BackgroundImageFix" result="shape"/>
<feGaussianBlur stdDeviation="6" result="effect1_foregroundBlur_760_2776"/>
</filter>
<filter id="filter8_f_760_2776" x="943.119" y="59.2422" width="33.7988" height="33.8008" filterUnits="userSpaceOnUse" color-interpolation-filters="sRGB">
<feFlood flood-opacity="0" result="BackgroundImageFix"/>
<feBlend mode="normal" in="SourceGraphic" in2="BackgroundImageFix" result="shape"/>
<feGaussianBlur stdDeviation="6" result="effect1_foregroundBlur_760_2776"/>
</filter>
<filter id="filter9_f_760_2776" x="808.68" y="0" width="281.803" height="281.803" filterUnits="userSpaceOnUse" color-interpolation-filters="sRGB">
<feFlood flood-opacity="0" result="BackgroundImageFix"/>
<feBlend mode="normal" in="SourceGraphic" in2="BackgroundImageFix" result="shape"/>
<feGaussianBlur stdDeviation="50" result="effect1_foregroundBlur_760_2776"/>
</filter>
<filter id="filter10_f_760_2776" x="668.871" y="181.967" width="259.768" height="259.801" filterUnits="userSpaceOnUse" color-interpolation-filters="sRGB">
<feFlood flood-opacity="0" result="BackgroundImageFix"/>
<feBlend mode="normal" in="SourceGraphic" in2="BackgroundImageFix" result="shape"/>
<feGaussianBlur stdDeviation="50" result="effect1_foregroundBlur_760_2776"/>
</filter>
<filter id="filter11_d_760_2776" x="776.402" y="291.328" width="44.4434" height="49.0625" filterUnits="userSpaceOnUse" color-interpolation-filters="sRGB">
<feFlood flood-opacity="0" result="BackgroundImageFix"/>
<feColorMatrix in="SourceAlpha" type="matrix" values="0 0 0 0 0 0 0 0 0 0 0 0 0 0 0 0 0 0 127 0" result="hardAlpha"/>
<feOffset dy="4"/>
<feGaussianBlur stdDeviation="2"/>
<feComposite in2="hardAlpha" operator="out"/>
<feColorMatrix type="matrix" values="0 0 0 0 0 0 0 0 0 0 0 0 0 0 0 0 0 0 0.25 0"/>
<feBlend mode="normal" in2="BackgroundImageFix" result="effect1_dropShadow_760_2776"/>
<feBlend mode="normal" in="SourceGraphic" in2="effect1_dropShadow_760_2776" result="shape"/>
</filter>
<clipPath id="clip0_760_2776">
<rect width="451.727" height="442.465" fill="white" transform="translate(0 76.2266)"/>
</clipPath>
<clipPath id="clip1_760_2776">
<rect width="426.867" height="418.351" fill="white" transform="translate(497.158 135.402)"/>
</clipPath>
</defs>
</svg>
