<svg width="1664" height="459" viewBox="0 0 1664 459" fill="none" xmlns="http://www.w3.org/2000/svg">
<rect y="27.1191" width="1663.51" height="417.033" fill="#3D4B54"/>
<rect x="707.438" y="395.635" width="248.639" height="18.4835" rx="9.24173" fill="#F7F7F7"/>
<rect y="4.01562" width="1663.51" height="435.492" fill="#21282C"/>
<rect y="4.01562" width="1663.51" height="126.667" fill="url(#paint0_linear_760_2890)"/>
<circle cx="739.996" cy="130.68" r="42.7579" fill="#FFB800"/>
<rect x="221.998" y="130.682" width="1441.51" height="308.825" fill="#18559C"/>
<path d="M0 130.682H523.177L236.799 148.777L292.298 254.332L1017.49 404.523L1000.47 439.507H0V130.682Z" fill="#FFAF38"/>
<g filter="url(#filter0_f_760_2890)">
<rect x="1466.67" y="103.121" width="6.68092" height="6.68092" transform="rotate(-45 1466.67 103.121)" fill="white"/>
</g>
<rect x="1469.84" y="102.375" width="2.67237" height="2.67237" transform="rotate(-45 1469.84 102.375)" fill="white"/>
<g filter="url(#filter1_f_760_2890)">
<rect x="1587.57" y="43.7227" width="6.68092" height="6.68092" transform="rotate(-45 1587.57 43.7227)" fill="white"/>
</g>
<rect x="1590.24" y="42.3887" width="2.67237" height="2.67237" transform="rotate(-45 1590.24 42.3887)" fill="white"/>
<g filter="url(#filter2_f_760_2890)">
<rect x="959.543" y="16.7246" width="6.68092" height="6.68092" transform="rotate(-45 959.543 16.7246)" fill="white"/>
</g>
<rect x="962.215" y="15.3867" width="2.67237" height="2.67237" transform="rotate(-45 962.215 15.3867)" fill="white"/>
<circle cx="1571.01" cy="78.2054" r="2.00428" fill="#FFF2C2"/>
<circle cx="1297.21" cy="98.7133" r="2.00428" fill="#FFF2C2"/>
<circle cx="1340.13" cy="42.016" r="2.00428" fill="#FFF2C2"/>
<circle cx="1301.65" cy="28.7465" r="2.00428" fill="#FFF2C2"/>
<circle cx="1162.53" cy="72.1742" r="2.00428" fill="#FFF2C2"/>
<circle cx="1143.3" cy="75.7933" r="2.00428" fill="#FFF2C2"/>
<circle cx="921.295" cy="68.5551" r="2.00428" fill="#FFF2C2"/>
<circle cx="1138.85" cy="96.3011" r="2.00428" fill="#FFF2C2"/>
<circle cx="690.416" cy="52.8715" r="2.00428" fill="#FFF2C2"/>
<path d="M1160.31 100.521L1368.99 116.807L1407.47 140.331H1195.83L1160.31 100.521Z" fill="#0D2035"/>
<path d="M1238.01 106.555L1414.87 113.793L1407.47 140.332L1368.99 116.809L1238.01 106.555Z" fill="#000F21"/>
<path d="M1203.23 93.2832L1277.23 102.934L1349.75 116.204H1203.23V93.2832Z" fill="#0D2035"/>
<rect x="1250.59" y="73.9824" width="8.87995" height="31.3651" fill="#0D2035"/>
<rect width="15.045" height="12.3717" transform="matrix(0.95882 0.284016 -0.407202 0.913338 1252.62 68.8359)" fill="#0D2035"/>
<path d="M1264.95 61.3651L1264.12 73.829L1254.66 70.6087L1264.95 61.3651Z" fill="#0D2035"/>
<path d="M1310.42 404.523L1662.77 436.491H1206.19L1001.21 440.11C1001.21 440.11 985.274 431.227 962.623 420.809C891.575 388.13 834.113 419.69 754.684 404.523C697.65 393.632 670.541 372.371 612.605 365.317C564.302 359.435 487.546 365.317 487.546 365.317C487.546 365.317 346.837 373.53 283.306 332.142C261.091 317.669 234.467 288.11 234.467 288.11C234.467 288.11 33.9282 259.761 1.36808 195.221C-31.192 130.682 528.245 130.682 528.245 130.682C528.245 130.682 234.467 140.936 256.667 173.507C278.867 206.078 345.38 171.521 356.566 204.269C360.287 215.161 343.986 216.936 356.566 233.221C369.146 249.507 470.526 255.539 470.526 255.539C470.526 255.539 637.595 260.08 690.305 265.793C768.394 274.256 804.469 304.418 881.223 318.872C976.874 336.885 1071.14 276.171 1131.34 339.38C1143.17 351.797 1236.53 388.84 1236.53 388.84L1310.42 404.523Z" fill="#59A3C4"/>
<rect y="113.791" width="118.399" height="4.8254" fill="#0D2035"/>
<rect x="62.1582" y="118.617" width="12.0635" height="5.91997" transform="rotate(90 62.1582 118.617)" fill="#0D2035"/>
<rect x="110.998" y="118.617" width="12.0635" height="5.91997" transform="rotate(90 110.998 118.617)" fill="#0D2035"/>
<rect x="94.7188" y="118.617" width="12.0635" height="5.91997" transform="rotate(90 94.7188 118.617)" fill="#0D2035"/>
<rect x="29.5996" y="118.617" width="12.0635" height="5.91997" transform="rotate(90 29.5996 118.617)" fill="#0D2035"/>
<rect x="5.91992" y="118.617" width="12.0635" height="5.91997" transform="rotate(90 5.91992 118.617)" fill="#0D2035"/>
<g filter="url(#filter3_f_760_2890)">
<circle cx="59.4868" cy="104.461" r="2.67237" fill="#FFF2C2"/>
</g>
<rect x="59.2012" y="104.143" width="9.65079" height="1.47999" transform="rotate(90 59.2012 104.143)" fill="#0D2035"/>
<circle cx="58.2445" cy="103.735" r="2.00428" fill="#FFF2C2"/>
<g filter="url(#filter4_f_760_2890)">
<circle cx="19.2407" cy="104.461" r="2.67237" fill="#FFF2C2"/>
</g>
<rect x="19.2402" y="104.143" width="9.65079" height="1.47999" transform="rotate(90 19.2402 104.143)" fill="#0D2035"/>
<circle cx="18.2836" cy="103.778" r="2.00428" fill="#FFF2C2"/>
<g filter="url(#filter5_f_760_2890)">
<circle cx="100.926" cy="104.461" r="2.67237" fill="#FFF2C2"/>
</g>
<rect x="100.639" y="104.143" width="9.65079" height="1.47999" transform="rotate(90 100.639 104.143)" fill="#0D2035"/>
<circle cx="99.684" cy="103.735" r="2.00428" fill="#FFF2C2"/>
<path d="M655.982 391.121H495.236C492.209 391.121 489.756 393.576 489.756 396.604V397.335C489.756 400.363 492.209 402.818 495.236 402.818H655.982C659.009 402.818 661.462 400.363 661.462 397.335V396.604C661.462 393.576 659.009 391.121 655.982 391.121Z" fill="#2E2E33"/>
<path d="M638.257 272.18C620.137 278.598 590.06 262.189 590.06 262.189C590.06 262.189 587.406 252.902 589.458 247.57C592.342 240.075 606.299 235.78 606.299 235.78C606.299 235.78 620.447 242.164 630.126 242.786C646.404 243.832 655.441 214.875 668.932 224.048C685.984 235.643 657.691 265.295 638.257 272.18Z" fill="#D9D9D9"/>
<path d="M572.32 217.948C572.32 215.082 574.419 212.648 577.252 212.228C577.252 212.228 612.656 209.34 623.832 224.474C632.1 235.669 633.145 246.477 628.947 259.748C624.625 273.411 603.92 284.334 598.358 287.057C597.439 287.507 596.471 287.806 595.465 287.993L587.435 289.481C579.574 290.937 572.32 284.9 572.32 276.901V217.948Z" fill="#A33F0F"/>
<path d="M579.08 233.392C584.253 224.58 597.009 218.886 604.963 229.637C610.847 237.589 607.951 245.532 604.963 254.959C603.188 260.562 596.748 264.576 590.737 267.193C584.441 269.933 577.72 265.775 576.833 258.963C575.737 250.553 575.35 239.746 579.08 233.392Z" fill="#EAEAEA"/>
<path d="M471.123 232.843C471.123 225.777 476.848 220.049 483.91 220.049H547.112V288.77C547.112 295.836 541.387 301.564 534.326 301.564H483.91C476.848 301.564 471.123 295.836 471.123 288.77V232.843Z" fill="#FE8101"/>
<path d="M519.713 247.464C519.713 249.483 518.077 251.12 516.06 251.12H472.585C470.567 251.12 468.932 249.483 468.932 247.464V232.843C468.932 225.777 474.656 220.049 481.718 220.049H519.713V247.464Z" fill="#FFB800"/>
<g filter="url(#filter6_f_760_2890)">
<path d="M656.156 188.092C658.808 176.807 667.275 167.794 678.367 164.449C689.461 161.104 701.495 163.935 709.937 171.874C718.379 179.814 721.946 191.657 719.295 202.942C716.643 214.227 708.176 223.24 697.083 226.585C685.99 229.93 673.956 227.099 665.514 219.16C657.072 211.22 653.505 199.377 656.156 188.092Z" fill="#D0E60A"/>
</g>
<g filter="url(#filter7_d_760_2890)">
<path d="M685.756 173.72C686.887 173.067 688.279 173.067 689.41 173.72L705.531 183.033C706.661 183.686 707.357 184.892 707.357 186.199V204.824C707.357 206.13 706.661 207.337 705.531 207.989L689.41 217.302C688.279 217.955 686.887 217.955 685.756 217.302L669.635 207.989C668.505 207.337 667.809 206.13 667.809 204.824V186.199C667.809 184.892 668.505 183.686 669.635 183.033L685.756 173.72Z" fill="#35984E"/>
</g>
<path d="M692.875 193.043C690.445 194.458 687.394 192.711 687.384 189.897L687.357 182.402C687.347 179.589 690.385 177.819 692.826 179.217L699.326 182.941C701.767 184.339 701.779 187.857 699.349 189.272L692.875 193.043Z" fill="#BEE275"/>
<path d="M630.948 320.79C622.536 302.615 590.644 285.805 590.644 285.805C590.644 285.805 580.595 288.793 577.15 293.521C572.308 300.167 577.536 314.342 577.536 314.342C577.536 314.342 591.18 323.814 597.143 331.959C607.424 346.003 605.193 364.754 607.762 373.711C610.332 382.667 633.833 381.417 645.566 373.624C655.947 366.729 668.361 357.397 658.109 345.702C647.858 334.007 636.2 348.397 636.2 348.397C636.2 348.397 635.647 330.943 630.948 320.79Z" fill="#D9D9D9"/>
<path d="M564.843 354.406C573.718 337.347 567.509 305.231 567.509 305.231C567.509 305.231 559.215 300.29 553.539 300.911C545.56 301.785 537.842 314.188 537.842 314.188C537.842 314.188 538.753 329.353 536.087 338.484C531.49 354.228 515.811 364.437 510.496 371.778C505.181 379.114 519.839 396.755 533.164 397.336C554.055 398.25 559.208 402.636 562.025 388.38C564.843 374.124 546.864 375.221 546.864 375.221C546.864 375.221 559.885 363.936 564.843 354.406Z" fill="#EAEAEA"/>
<path d="M484.34 166.6C485.05 153.981 489.011 147.246 494.569 135.895C504.616 115.378 504.799 97.6963 532.199 91.1166C559.599 84.5368 578.961 119.08 578.961 119.08C578.961 119.08 586.268 91.2993 614.947 95.3203C643.625 99.3412 643.26 135.895 647.644 154.355C652.028 172.815 654.403 168.488 654.22 178.115C654.048 187.124 652.057 192.376 647.644 200.23C640.928 212.182 619.696 222.711 619.696 222.711C619.696 222.711 627.058 263.85 614.399 284.487C602.94 303.166 590.652 311.72 568.184 316.289C545.716 320.858 521.74 356.414 489.637 348.274C473.079 344.075 461.28 339.756 452.556 325.062C444.045 310.726 438.491 286.863 449.451 282.476C460.411 278.09 459.95 305.614 473.38 311.72C483.106 316.141 490.31 317.342 500.597 314.461C517.717 309.667 518.821 293.931 525.009 277.257C532.533 256.982 532.499 244.906 527.997 222.711C527.997 222.711 494.805 204.609 489.637 195.295C484.11 185.332 483.7 177.978 484.34 166.6Z" fill="#EAEAEA"/>
<path d="M568.668 105.27L589.857 106.366C589.857 106.366 604.288 106.549 600.635 119.343C596.981 132.137 586.935 128.664 580.176 123.181C573.417 117.698 568.668 105.27 568.668 105.27Z" fill="#D9D9D9"/>
<path d="M492.257 142.652L499.561 154.658C499.561 154.658 504.856 162.616 496.232 165.593C487.607 168.57 485.819 161.73 486.401 155.905C486.983 150.079 492.257 142.652 492.257 142.652Z" fill="#D9D9D9"/>
<path d="M471.752 311.801L492.275 317.19C492.275 317.19 506.366 320.308 500.187 332.09C494.007 343.872 484.877 338.426 479.375 331.681C473.873 324.936 471.752 311.801 471.752 311.801Z" fill="#D9D9D9"/>
<path d="M615.065 173.809C615.065 180.168 609.912 185.323 603.557 185.323C597.201 185.323 592.049 180.168 592.049 173.809C592.049 167.449 593.73 157.359 600.086 157.359C606.442 157.359 615.065 167.449 615.065 173.809Z" fill="#EAEAEA"/>
<path d="M606.315 295.541L598.99 275.617C598.99 275.617 593.482 262.27 606.676 260.599C619.869 258.928 620.629 269.537 618.248 277.91C615.868 286.284 606.315 295.541 606.315 295.541Z" fill="#D9D9D9"/>
<path d="M584.376 180.936C586.394 180.936 588.029 179.299 588.029 177.28C588.029 175.262 586.394 173.625 584.376 173.625C582.358 173.625 580.723 175.262 580.723 177.28C580.723 179.299 582.358 180.936 584.376 180.936Z" fill="#D9D9D9"/>
<path d="M603.009 180.936C605.026 180.936 606.662 179.299 606.662 177.28C606.662 175.262 605.026 173.625 603.009 173.625C600.991 173.625 599.355 175.262 599.355 177.28C599.355 179.299 600.991 180.936 603.009 180.936Z" fill="#D9D9D9"/>
<path d="M608.648 193.441C612.849 198.376 603.062 210.073 588.737 210.073C574.412 210.073 556.405 197.462 561.52 188.506C565.069 182.292 573.028 194.903 588.737 194.903C603.062 194.903 604.446 188.506 608.648 193.441Z" fill="#A43F10"/>
<path d="M603.009 205.427C603.009 205.427 598.625 210.073 588.737 210.073C580.906 210.073 572.869 205.793 572.869 205.793C572.869 205.793 577.906 201.041 588.396 201.041C597.894 201.041 603.009 205.427 603.009 205.427Z" fill="#EE622D"/>
<path d="M518.982 221.969C518.982 219.104 521.081 216.67 523.914 216.25C523.914 216.25 559.318 213.361 570.494 228.495C578.762 239.69 579.807 250.499 575.609 263.77C571.287 277.433 550.583 288.355 545.02 291.079C544.101 291.529 543.133 291.828 542.127 292.014L534.097 293.502C526.236 294.959 518.982 288.922 518.982 280.922V221.969Z" fill="#A33F0F"/>
<path d="M525.74 237.412C530.913 228.6 543.669 222.905 551.623 233.656C557.507 241.609 554.611 249.551 551.623 258.979C549.848 264.581 543.408 268.596 537.397 271.213C531.102 273.953 524.381 269.794 523.493 262.982C522.397 254.572 522.011 243.766 525.74 237.412Z" fill="#EAEAEA"/>
<path d="M495.481 258.798C502.794 241.012 535.079 229.547 535.079 229.547C535.079 229.547 543.762 233.766 546.362 238.852C550.017 246.003 543.902 259.27 543.902 259.27C543.902 259.27 529.709 265.555 522.787 272.352C511.146 283.785 521.739 306.646 505.909 310.579C485.9 315.55 487.638 277.875 495.481 258.798Z" fill="#EAEAEA"/>
<path d="M568.667 148.769C568.667 133.628 556.4 121.354 541.267 121.354C526.135 121.354 513.867 133.628 513.867 148.769V159.37C513.867 174.511 526.135 186.785 541.267 186.785C556.4 186.785 568.667 174.511 568.667 159.37V148.769Z" fill="white"/>
<path d="M555.15 148.403C555.15 142.952 550.734 138.533 545.286 138.533C539.838 138.533 535.422 142.952 535.422 148.403V159.369C535.422 164.82 539.838 169.239 545.286 169.239C550.734 169.239 555.15 164.82 555.15 159.369V148.403Z" fill="#1E1E1E"/>
<path d="M540.901 157.908C542.919 157.908 544.555 156.272 544.555 154.253C544.555 152.234 542.919 150.598 540.901 150.598C538.884 150.598 537.248 152.234 537.248 154.253C537.248 156.272 538.884 157.908 540.901 157.908Z" fill="white"/>
<path d="M640.639 139.813C640.639 129.82 632.542 121.719 622.555 121.719C612.567 121.719 604.471 129.82 604.471 139.813V161.745C604.471 171.738 612.567 179.84 622.555 179.84C632.542 179.84 640.639 171.738 640.639 161.745V139.813Z" fill="white"/>
<path d="M626.755 148.403C626.755 142.952 622.339 138.533 616.891 138.533C611.444 138.533 607.027 142.952 607.027 148.403V159.369C607.027 164.82 611.444 169.239 616.891 169.239C622.339 169.239 626.755 164.82 626.755 159.369V148.403Z" fill="#1E1E1E"/>
<path d="M610.681 157.908C612.698 157.908 614.334 156.272 614.334 154.253C614.334 152.234 612.698 150.598 610.681 150.598C608.663 150.598 607.027 152.234 607.027 154.253C607.027 156.272 608.663 157.908 610.681 157.908Z" fill="white"/>
<defs>
<filter id="filter0_f_760_2890" x="1454.67" y="86.3965" width="33.4492" height="33.4492" filterUnits="userSpaceOnUse" color-interpolation-filters="sRGB">
<feFlood flood-opacity="0" result="BackgroundImageFix"/>
<feBlend mode="normal" in="SourceGraphic" in2="BackgroundImageFix" result="shape"/>
<feGaussianBlur stdDeviation="6" result="effect1_foregroundBlur_760_2890"/>
</filter>
<filter id="filter1_f_760_2890" x="1575.57" y="26.998" width="33.4492" height="33.4492" filterUnits="userSpaceOnUse" color-interpolation-filters="sRGB">
<feFlood flood-opacity="0" result="BackgroundImageFix"/>
<feBlend mode="normal" in="SourceGraphic" in2="BackgroundImageFix" result="shape"/>
<feGaussianBlur stdDeviation="6" result="effect1_foregroundBlur_760_2890"/>
</filter>
<filter id="filter2_f_760_2890" x="947.543" y="0" width="33.4492" height="33.4492" filterUnits="userSpaceOnUse" color-interpolation-filters="sRGB">
<feFlood flood-opacity="0" result="BackgroundImageFix"/>
<feBlend mode="normal" in="SourceGraphic" in2="BackgroundImageFix" result="shape"/>
<feGaussianBlur stdDeviation="6" result="effect1_foregroundBlur_760_2890"/>
</filter>
<filter id="filter3_f_760_2890" x="52.8145" y="97.7891" width="13.3457" height="13.3457" filterUnits="userSpaceOnUse" color-interpolation-filters="sRGB">
<feFlood flood-opacity="0" result="BackgroundImageFix"/>
<feBlend mode="normal" in="SourceGraphic" in2="BackgroundImageFix" result="shape"/>
<feGaussianBlur stdDeviation="2" result="effect1_foregroundBlur_760_2890"/>
</filter>
<filter id="filter4_f_760_2890" x="12.5684" y="97.7891" width="13.3457" height="13.3457" filterUnits="userSpaceOnUse" color-interpolation-filters="sRGB">
<feFlood flood-opacity="0" result="BackgroundImageFix"/>
<feBlend mode="normal" in="SourceGraphic" in2="BackgroundImageFix" result="shape"/>
<feGaussianBlur stdDeviation="2" result="effect1_foregroundBlur_760_2890"/>
</filter>
<filter id="filter5_f_760_2890" x="94.2539" y="97.7891" width="13.3457" height="13.3457" filterUnits="userSpaceOnUse" color-interpolation-filters="sRGB">
<feFlood flood-opacity="0" result="BackgroundImageFix"/>
<feBlend mode="normal" in="SourceGraphic" in2="BackgroundImageFix" result="shape"/>
<feGaussianBlur stdDeviation="2" result="effect1_foregroundBlur_760_2890"/>
</filter>
<filter id="filter6_f_760_2890" x="555.295" y="63.0684" width="264.861" height="264.896" filterUnits="userSpaceOnUse" color-interpolation-filters="sRGB">
<feFlood flood-opacity="0" result="BackgroundImageFix"/>
<feBlend mode="normal" in="SourceGraphic" in2="BackgroundImageFix" result="shape"/>
<feGaussianBlur stdDeviation="50" result="effect1_foregroundBlur_760_2890"/>
</filter>
<filter id="filter7_d_760_2890" x="663.809" y="173.23" width="47.5488" height="52.5605" filterUnits="userSpaceOnUse" color-interpolation-filters="sRGB">
<feFlood flood-opacity="0" result="BackgroundImageFix"/>
<feColorMatrix in="SourceAlpha" type="matrix" values="0 0 0 0 0 0 0 0 0 0 0 0 0 0 0 0 0 0 127 0" result="hardAlpha"/>
<feOffset dy="4"/>
<feGaussianBlur stdDeviation="2"/>
<feComposite in2="hardAlpha" operator="out"/>
<feColorMatrix type="matrix" values="0 0 0 0 0 0 0 0 0 0 0 0 0 0 0 0 0 0 0.25 0"/>
<feBlend mode="normal" in2="BackgroundImageFix" result="effect1_dropShadow_760_2890"/>
<feBlend mode="normal" in="SourceGraphic" in2="effect1_dropShadow_760_2890" result="shape"/>
</filter>
<linearGradient id="paint0_linear_760_2890" x1="831.756" y1="130.682" x2="831.756" y2="4.01563" gradientUnits="userSpaceOnUse">
<stop stop-color="#CA892E"/>
<stop offset="1" stop-color="#79BCBF"/>
</linearGradient>
</defs>
</svg>
