<svg width="1659" height="404" viewBox="0 0 1659 404" fill="none" xmlns="http://www.w3.org/2000/svg">
<rect width="7721" height="2419" transform="translate(-1484 -662)" fill="white"/>
<rect x="722.385" y="374" width="215.231" height="16" rx="8" fill="#F7F7F7"/>
<rect x="1.9082" y="-5.59766" width="1656.18" height="415.196" fill="#21282C"/>
<rect x="222.928" y="115.164" width="1435.16" height="294.432" fill="#07264A"/>
<path d="M1.9082 115.164H522.781L237.664 132.416L292.919 233.052L1014.92 376.243L997.976 409.596H1.9082V115.164Z" fill="#605143"/>
<rect x="1.9082" y="-5.59766" width="1656.18" height="120.763" fill="#123D67"/>
<g clip-path="url(#clip0_760_2889)">
<circle cx="336.424" cy="24.5841" r="1.58603" fill="#FFF2C2"/>
<circle cx="186.279" cy="48.5841" r="1.58603" fill="#FFF2C2"/>
<g filter="url(#filter0_f_760_2889)">
<rect x="171" y="21.998" width="5" height="5" transform="rotate(-45 171 21.998)" fill="white"/>
</g>
<rect x="173" y="20.998" width="2" height="2" transform="rotate(-45 173 20.998)" fill="white"/>
<g filter="url(#filter1_f_760_2889)">
<rect x="41" y="49.5332" width="5" height="5" transform="rotate(-45 41 49.5332)" fill="white"/>
</g>
<rect x="43" y="48.5332" width="2" height="2" transform="rotate(-45 43 48.5332)" fill="white"/>
<g filter="url(#filter2_f_760_2889)">
<rect x="349" y="102.533" width="5" height="5" transform="rotate(-45 349 102.533)" fill="white"/>
</g>
<rect x="351" y="101.533" width="2" height="2" transform="rotate(-45 351 101.533)" fill="white"/>
<circle cx="295.188" cy="51.5841" r="1.58603" fill="#FFF2C2"/>
<rect x="5" y="100.998" width="80" height="4" fill="#0D2035"/>
<rect x="47" y="104.998" width="10" height="4" transform="rotate(90 47 104.998)" fill="#0D2035"/>
<rect x="80" y="104.998" width="10" height="4" transform="rotate(90 80 104.998)" fill="#0D2035"/>
<rect x="69" y="104.998" width="10" height="4" transform="rotate(90 69 104.998)" fill="#0D2035"/>
<rect x="25" y="104.998" width="10" height="4" transform="rotate(90 25 104.998)" fill="#0D2035"/>
<rect x="9" y="104.998" width="10" height="4" transform="rotate(90 9 104.998)" fill="#0D2035"/>
<g filter="url(#filter3_f_760_2889)">
<circle cx="47.2378" cy="93.1128" r="2.11471" fill="#FFF2C2"/>
</g>
<rect x="45" y="92.998" width="8" height="1" transform="rotate(90 45 92.998)" fill="#0D2035"/>
<circle cx="46.7091" cy="92.5841" r="1.58603" fill="#FFF2C2"/>
<g filter="url(#filter4_f_760_2889)">
<circle cx="18.6889" cy="93.1128" r="2.11471" fill="#FFF2C2"/>
</g>
<rect x="18" y="92.998" width="8" height="1" transform="rotate(90 18 92.998)" fill="#0D2035"/>
<circle cx="18.1603" cy="92.5841" r="1.58603" fill="#FFF2C2"/>
<g filter="url(#filter5_f_760_2889)">
<circle cx="76.8432" cy="93.1128" r="2.11471" fill="#FFF2C2"/>
</g>
<rect x="73" y="92.998" width="8" height="1" transform="rotate(90 73 92.998)" fill="#0D2035"/>
<circle cx="76.3146" cy="92.5841" r="1.58603" fill="#FFF2C2"/>
</g>
<g filter="url(#filter6_f_760_2889)">
<rect x="1462.12" y="88.791" width="6.50899" height="6.50899" transform="rotate(-45 1462.12 88.791)" fill="white"/>
</g>
<rect x="1465.31" y="88.1777" width="2.6036" height="2.6036" transform="rotate(-45 1465.31 88.1777)" fill="white"/>
<g filter="url(#filter7_f_760_2889)">
<rect x="1582.69" y="32.3594" width="6.50899" height="6.50899" transform="rotate(-45 1582.69 32.3594)" fill="white"/>
</g>
<rect x="1585.29" y="31.0547" width="2.6036" height="2.6036" transform="rotate(-45 1585.29 31.0547)" fill="white"/>
<g filter="url(#filter8_f_760_2889)">
<rect x="957.324" y="6.51953" width="6.50899" height="6.50899" transform="rotate(-45 957.324 6.51953)" fill="white"/>
</g>
<rect x="959.928" y="5.2168" width="2.6036" height="2.6036" transform="rotate(-45 959.928 5.2168)" fill="white"/>
<ellipse cx="1566" cy="65.1343" rx="1.9527" ry="1.9527" fill="#FFF2C2"/>
<ellipse cx="1293.41" cy="84.6871" rx="1.9527" ry="1.9527" fill="#FFF2C2"/>
<ellipse cx="1336.14" cy="30.6304" rx="1.9527" ry="1.9527" fill="#FFF2C2"/>
<ellipse cx="1297.83" cy="17.98" rx="1.9527" ry="1.9527" fill="#FFF2C2"/>
<ellipse cx="1159.32" cy="59.3843" rx="1.9527" ry="1.9527" fill="#FFF2C2"/>
<ellipse cx="1140.17" cy="62.8355" rx="1.9527" ry="1.9527" fill="#FFF2C2"/>
<ellipse cx="919.144" cy="55.9332" rx="1.9527" ry="1.9527" fill="#FFF2C2"/>
<ellipse cx="1135.75" cy="82.3863" rx="1.9527" ry="1.9527" fill="#FFF2C2"/>
<ellipse cx="738.646" cy="56.5071" rx="41.6576" ry="41.6575" fill="#FFF2C2"/>
<ellipse cx="711.188" cy="39.0758" rx="41.7252" ry="41.7252" transform="rotate(-103.971 711.188 39.0758)" fill="#123D67"/>
<g filter="url(#filter9_f_760_2889)">
<ellipse cx="754.499" cy="60.8347" rx="38.4139" ry="38.4139" transform="rotate(-103.971 754.499 60.8347)" fill="#DFE2E6" fill-opacity="0.92"/>
</g>
<ellipse cx="689.283" cy="40.982" rx="1.9527" ry="1.9527" fill="#FFF2C2"/>
<path d="M1157.11 86.4102L1364.87 101.937L1403.18 124.364H1192.47L1157.11 86.4102Z" fill="#0D2035"/>
<path d="M1234.47 92.1602L1410.55 99.0609L1403.18 124.364L1364.87 101.936L1234.47 92.1602Z" fill="#000F21"/>
<path d="M1199.84 79.5098L1273.51 88.7108L1345.71 101.362H1199.84V79.5098Z" fill="#0D2035"/>
<rect x="1246.99" y="61.1074" width="8.84084" height="29.9033" fill="#0D2035"/>
<rect width="14.9285" height="11.8833" transform="matrix(0.962045 0.272892 -0.422071 0.906563 1249.01 56.1992)" fill="#0D2035"/>
<path d="M1261.28 49.0793L1260.46 60.9623L1251.04 57.892L1261.28 49.0793Z" fill="#0D2035"/>
<path d="M1306.56 376.243L1657.35 406.721H1202.79L998.712 410.171C998.712 410.171 982.842 401.702 960.291 391.769C889.555 360.614 832.347 390.703 753.268 376.243C696.485 365.859 669.495 345.589 611.815 338.864C563.725 333.256 487.306 338.864 487.306 338.864C487.306 338.864 347.217 346.694 283.967 307.235C261.849 293.437 235.342 265.256 235.342 265.256C235.342 265.256 35.6869 238.228 3.27025 176.696C-29.1464 115.164 527.827 115.164 527.827 115.164C527.827 115.164 235.342 124.94 257.444 155.994C279.546 187.047 345.767 154.1 356.904 185.322C360.608 195.706 344.379 197.398 356.904 212.925C369.428 228.451 470.361 234.202 470.361 234.202C470.361 234.202 636.694 238.532 689.172 243.978C766.917 252.047 802.834 280.803 879.25 294.584C974.479 311.757 1068.33 253.873 1128.27 314.136C1140.04 325.974 1232.99 361.291 1232.99 361.291L1306.56 376.243Z" fill="#044765"/>
<g clip-path="url(#clip1_760_2889)">
<path d="M677.843 370.094H538.695C536.075 370.094 533.951 372.219 533.951 374.84V375.473C533.951 378.094 536.075 380.219 538.695 380.219H677.843C680.463 380.219 682.587 378.094 682.587 375.473V374.84C682.587 372.219 680.463 370.094 677.843 370.094Z" fill="#2E2E33"/>
<path d="M662.5 267.133C646.815 272.689 620.779 258.485 620.779 258.485C620.779 258.485 618.482 250.446 620.258 245.83C622.754 239.342 634.836 235.624 634.836 235.624C634.836 235.624 647.083 241.15 655.462 241.689C669.552 242.595 677.375 217.528 689.053 225.469C703.814 235.505 679.323 261.174 662.5 267.133Z" fill="#D9D9D9"/>
<path d="M605.422 220.187C605.422 217.706 607.238 215.599 609.691 215.236C609.691 215.236 640.338 212.735 650.013 225.836C657.169 235.527 658.074 244.883 654.44 256.371C650.699 268.198 632.776 277.653 627.961 280.01C627.165 280.4 626.328 280.659 625.457 280.821L618.506 282.108C611.701 283.369 605.422 278.143 605.422 271.219V220.187Z" fill="#A33F0F"/>
<path d="M611.274 233.557C615.752 225.929 626.794 220.999 633.68 230.306C638.773 237.19 636.266 244.065 633.68 252.226C632.143 257.076 626.568 260.55 621.365 262.816C615.915 265.188 610.097 261.588 609.329 255.692C608.38 248.412 608.046 239.057 611.274 233.557Z" fill="#EAEAEA"/>
<path d="M517.822 233.083C517.822 226.966 522.778 222.008 528.891 222.008H583.601V281.496C583.601 287.612 578.646 292.571 572.533 292.571H528.891C522.778 292.571 517.822 287.612 517.822 281.496V233.083Z" fill="#FE8101"/>
<path d="M559.884 245.74C559.884 247.487 558.468 248.904 556.722 248.904H519.088C517.342 248.904 515.926 247.487 515.926 245.74V233.083C515.926 226.966 520.881 222.008 526.994 222.008H559.884V245.74Z" fill="#FFB800"/>
<g filter="url(#filter10_f_760_2889)">
<path d="M677.994 194.343C680.289 184.574 687.618 176.773 697.221 173.877C706.823 170.981 717.241 173.431 724.548 180.305C731.856 187.178 734.944 197.429 732.649 207.198C730.353 216.967 723.024 224.768 713.422 227.664C703.819 230.56 693.402 228.109 686.094 221.236C678.786 214.363 675.698 204.111 677.994 194.343Z" fill="#D0E60A"/>
</g>
<g filter="url(#filter11_d_760_2889)">
<path d="M703.616 181.902C704.595 181.337 705.8 181.337 706.779 181.902L720.734 189.964C721.712 190.529 722.315 191.574 722.315 192.704V208.827C722.315 209.958 721.712 211.002 720.734 211.567L706.779 219.629C705.8 220.194 704.595 220.194 703.616 219.629L689.661 211.567C688.683 211.002 688.08 209.958 688.08 208.827V192.704C688.08 191.574 688.683 190.529 689.661 189.964L703.616 181.902Z" fill="#35984E"/>
</g>
<path d="M709.779 198.629C707.675 199.855 705.034 198.342 705.025 195.906L705.002 189.419C704.993 186.983 707.623 185.451 709.736 186.661L715.363 189.885C717.475 191.095 717.486 194.14 715.382 195.366L709.779 198.629Z" fill="#BEE275"/>
<path d="M656.173 309.213C648.892 293.48 621.285 278.928 621.285 278.928C621.285 278.928 612.586 281.514 609.604 285.607C605.413 291.36 609.939 303.63 609.939 303.63C609.939 303.63 621.749 311.83 626.911 318.881C635.811 331.038 633.879 347.27 636.103 355.023C638.327 362.776 658.671 361.693 668.828 354.947C677.814 348.979 688.56 340.901 679.686 330.777C670.812 320.653 660.72 333.11 660.72 333.11C660.72 333.11 660.241 318.001 656.173 309.213Z" fill="#D9D9D9"/>
<path d="M598.949 338.311C606.632 323.543 601.258 295.743 601.258 295.743C601.258 295.743 594.078 291.466 589.164 292.004C582.257 292.76 575.576 303.496 575.576 303.496C575.576 303.496 576.365 316.624 574.057 324.528C570.078 338.157 556.505 346.994 551.905 353.348C547.304 359.699 559.993 374.97 571.527 375.473C589.611 376.264 594.072 380.061 596.51 367.72C598.949 355.38 583.386 356.329 583.386 356.329C583.386 356.329 594.658 346.561 598.949 338.311Z" fill="#EAEAEA"/>
<path d="M529.263 175.739C529.878 164.815 533.307 158.985 538.118 149.159C546.815 131.399 546.973 116.093 570.692 110.397C594.41 104.702 611.171 134.604 611.171 134.604C611.171 134.604 617.496 110.555 642.321 114.036C667.147 117.517 666.83 149.159 670.625 165.139C674.42 181.118 676.476 177.373 676.318 185.706C676.169 193.505 674.446 198.051 670.625 204.85C664.812 215.196 646.432 224.31 646.432 224.31C646.432 224.31 652.805 259.922 641.847 277.786C631.928 293.955 621.291 301.36 601.842 305.315C582.393 309.27 561.638 340.049 533.849 333.002C519.516 329.367 509.302 325.629 501.75 312.909C494.382 300.499 489.574 279.843 499.062 276.046C508.549 272.249 508.15 296.075 519.776 301.36C528.195 305.187 534.431 306.227 543.336 303.733C558.155 299.583 559.111 285.961 564.468 271.527C570.981 253.977 570.951 243.524 567.055 224.31C567.055 224.31 538.322 208.64 533.849 200.578C529.064 191.954 528.71 185.588 529.263 175.739Z" fill="#EAEAEA"/>
<path d="M602.26 122.65L620.602 123.6C620.602 123.6 633.094 123.758 629.931 134.833C626.769 145.908 618.072 142.902 612.222 138.155C606.371 133.409 602.26 122.65 602.26 122.65Z" fill="#D9D9D9"/>
<path d="M536.116 155.008L542.44 165.4C542.44 165.4 547.023 172.289 539.558 174.866C532.092 177.443 530.544 171.522 531.048 166.479C531.551 161.437 536.116 155.008 536.116 155.008Z" fill="#D9D9D9"/>
<path d="M518.367 301.43L536.132 306.095C536.132 306.095 548.331 308.794 542.981 318.993C537.632 329.192 529.729 324.477 524.966 318.639C520.204 312.8 518.367 301.43 518.367 301.43Z" fill="#D9D9D9"/>
<path d="M642.424 181.979C642.424 187.484 637.963 191.947 632.462 191.947C626.96 191.947 622.5 187.484 622.5 181.979C622.5 176.475 623.956 167.74 629.457 167.74C634.959 167.74 642.424 176.475 642.424 181.979Z" fill="#EAEAEA"/>
<path d="M634.85 287.356L628.508 270.109C628.508 270.109 623.741 258.555 635.162 257.109C646.582 255.662 647.24 264.845 645.179 272.094C643.119 279.343 634.85 287.356 634.85 287.356Z" fill="#D9D9D9"/>
<path d="M615.86 188.149C617.606 188.149 619.022 186.732 619.022 184.985C619.022 183.237 617.606 181.82 615.86 181.82C614.113 181.82 612.697 183.237 612.697 184.985C612.697 186.732 614.113 188.149 615.86 188.149Z" fill="#D9D9D9"/>
<path d="M631.987 188.149C633.733 188.149 635.149 186.732 635.149 184.985C635.149 183.237 633.733 181.82 631.987 181.82C630.24 181.82 628.824 183.237 628.824 184.985C628.824 186.732 630.24 188.149 631.987 188.149Z" fill="#D9D9D9"/>
<path d="M636.868 198.975C640.505 203.246 632.033 213.372 619.632 213.372C607.232 213.372 591.645 202.455 596.072 194.703C599.144 189.324 606.034 200.24 619.632 200.24C632.033 200.24 633.231 194.703 636.868 198.975Z" fill="#A43F10"/>
<path d="M631.987 209.35C631.987 209.35 628.192 213.371 619.632 213.371C612.854 213.371 605.896 209.666 605.896 209.666C605.896 209.666 610.256 205.553 619.337 205.553C627.559 205.553 631.987 209.35 631.987 209.35Z" fill="#EE622D"/>
<path d="M559.25 223.669C559.25 221.189 561.067 219.082 563.519 218.718C563.519 218.718 594.166 216.218 603.841 229.318C610.997 239.009 611.902 248.366 608.268 259.853C604.527 271.68 586.604 281.136 581.789 283.493C580.993 283.883 580.156 284.142 579.285 284.303L572.334 285.591C565.529 286.852 559.25 281.626 559.25 274.701V223.669Z" fill="#A33F0F"/>
<path d="M565.102 237.037C569.58 229.409 580.622 224.48 587.508 233.786C592.601 240.67 590.094 247.546 587.508 255.706C585.971 260.556 580.396 264.031 575.193 266.296C569.743 268.669 563.925 265.069 563.157 259.172C562.208 251.892 561.874 242.538 565.102 237.037Z" fill="#EAEAEA"/>
<path d="M538.907 255.549C545.238 240.153 573.184 230.229 573.184 230.229C573.184 230.229 580.701 233.88 582.952 238.284C586.116 244.474 580.822 255.958 580.822 255.958C580.822 255.958 568.536 261.398 562.544 267.283C552.467 277.179 561.637 296.969 547.934 300.373C530.613 304.676 532.118 272.063 538.907 255.549Z" fill="#EAEAEA"/>
<path d="M602.261 160.304C602.261 147.197 591.642 136.572 578.543 136.572C565.443 136.572 554.824 147.197 554.824 160.304V169.48C554.824 182.587 565.443 193.212 578.543 193.212C591.642 193.212 602.261 182.587 602.261 169.48V160.304Z" fill="white"/>
<path d="M590.56 159.989C590.56 155.27 586.737 151.445 582.021 151.445C577.305 151.445 573.482 155.27 573.482 159.989V169.482C573.482 174.2 577.305 178.025 582.021 178.025C586.737 178.025 590.56 174.2 590.56 169.482V159.989Z" fill="#1E1E1E"/>
<path d="M578.225 168.215C579.972 168.215 581.387 166.799 581.387 165.051C581.387 163.303 579.972 161.887 578.225 161.887C576.478 161.887 575.062 163.303 575.062 165.051C575.062 166.799 576.478 168.215 578.225 168.215Z" fill="white"/>
<path d="M664.56 152.552C664.56 143.901 657.552 136.889 648.906 136.889C640.261 136.889 633.252 143.901 633.252 152.552V171.537C633.252 180.188 640.261 187.2 648.906 187.2C657.552 187.2 664.56 180.188 664.56 171.537V152.552Z" fill="white"/>
<path d="M652.544 159.989C652.544 155.27 648.721 151.445 644.005 151.445C639.29 151.445 635.467 155.27 635.467 159.989V169.482C635.467 174.2 639.29 178.025 644.005 178.025C648.721 178.025 652.544 174.2 652.544 169.482V159.989Z" fill="#1E1E1E"/>
<path d="M638.629 168.215C640.376 168.215 641.792 166.799 641.792 165.051C641.792 163.303 640.376 161.887 638.629 161.887C636.883 161.887 635.467 163.303 635.467 165.051C635.467 166.799 636.883 168.215 638.629 168.215Z" fill="white"/>
</g>
<defs>
<filter id="filter0_f_760_2889" x="159" y="6.46289" width="31.0703" height="31.0703" filterUnits="userSpaceOnUse" color-interpolation-filters="sRGB">
<feFlood flood-opacity="0" result="BackgroundImageFix"/>
<feBlend mode="normal" in="SourceGraphic" in2="BackgroundImageFix" result="shape"/>
<feGaussianBlur stdDeviation="6" result="effect1_foregroundBlur_760_2889"/>
</filter>
<filter id="filter1_f_760_2889" x="29" y="33.998" width="31.0703" height="31.0703" filterUnits="userSpaceOnUse" color-interpolation-filters="sRGB">
<feFlood flood-opacity="0" result="BackgroundImageFix"/>
<feBlend mode="normal" in="SourceGraphic" in2="BackgroundImageFix" result="shape"/>
<feGaussianBlur stdDeviation="6" result="effect1_foregroundBlur_760_2889"/>
</filter>
<filter id="filter2_f_760_2889" x="337" y="86.998" width="31.0703" height="31.0703" filterUnits="userSpaceOnUse" color-interpolation-filters="sRGB">
<feFlood flood-opacity="0" result="BackgroundImageFix"/>
<feBlend mode="normal" in="SourceGraphic" in2="BackgroundImageFix" result="shape"/>
<feGaussianBlur stdDeviation="6" result="effect1_foregroundBlur_760_2889"/>
</filter>
<filter id="filter3_f_760_2889" x="41.123" y="86.998" width="12.2285" height="12.2285" filterUnits="userSpaceOnUse" color-interpolation-filters="sRGB">
<feFlood flood-opacity="0" result="BackgroundImageFix"/>
<feBlend mode="normal" in="SourceGraphic" in2="BackgroundImageFix" result="shape"/>
<feGaussianBlur stdDeviation="2" result="effect1_foregroundBlur_760_2889"/>
</filter>
<filter id="filter4_f_760_2889" x="12.5742" y="86.998" width="12.2285" height="12.2285" filterUnits="userSpaceOnUse" color-interpolation-filters="sRGB">
<feFlood flood-opacity="0" result="BackgroundImageFix"/>
<feBlend mode="normal" in="SourceGraphic" in2="BackgroundImageFix" result="shape"/>
<feGaussianBlur stdDeviation="2" result="effect1_foregroundBlur_760_2889"/>
</filter>
<filter id="filter5_f_760_2889" x="70.7285" y="86.998" width="12.2285" height="12.2285" filterUnits="userSpaceOnUse" color-interpolation-filters="sRGB">
<feFlood flood-opacity="0" result="BackgroundImageFix"/>
<feBlend mode="normal" in="SourceGraphic" in2="BackgroundImageFix" result="shape"/>
<feGaussianBlur stdDeviation="2" result="effect1_foregroundBlur_760_2889"/>
</filter>
<filter id="filter6_f_760_2889" x="1450.12" y="72.1875" width="33.2051" height="33.207" filterUnits="userSpaceOnUse" color-interpolation-filters="sRGB">
<feFlood flood-opacity="0" result="BackgroundImageFix"/>
<feBlend mode="normal" in="SourceGraphic" in2="BackgroundImageFix" result="shape"/>
<feGaussianBlur stdDeviation="6" result="effect1_foregroundBlur_760_2889"/>
</filter>
<filter id="filter7_f_760_2889" x="1570.69" y="15.7559" width="33.2051" height="33.207" filterUnits="userSpaceOnUse" color-interpolation-filters="sRGB">
<feFlood flood-opacity="0" result="BackgroundImageFix"/>
<feBlend mode="normal" in="SourceGraphic" in2="BackgroundImageFix" result="shape"/>
<feGaussianBlur stdDeviation="6" result="effect1_foregroundBlur_760_2889"/>
</filter>
<filter id="filter8_f_760_2889" x="945.324" y="-10.084" width="33.2051" height="33.207" filterUnits="userSpaceOnUse" color-interpolation-filters="sRGB">
<feFlood flood-opacity="0" result="BackgroundImageFix"/>
<feBlend mode="normal" in="SourceGraphic" in2="BackgroundImageFix" result="shape"/>
<feGaussianBlur stdDeviation="6" result="effect1_foregroundBlur_760_2889"/>
</filter>
<filter id="filter9_f_760_2889" x="616.076" y="-77.5879" width="276.846" height="276.846" filterUnits="userSpaceOnUse" color-interpolation-filters="sRGB">
<feFlood flood-opacity="0" result="BackgroundImageFix"/>
<feBlend mode="normal" in="SourceGraphic" in2="BackgroundImageFix" result="shape"/>
<feGaussianBlur stdDeviation="50" result="effect1_foregroundBlur_760_2889"/>
</filter>
<filter id="filter10_f_760_2889" x="577.248" y="72.6816" width="256.146" height="256.178" filterUnits="userSpaceOnUse" color-interpolation-filters="sRGB">
<feFlood flood-opacity="0" result="BackgroundImageFix"/>
<feBlend mode="normal" in="SourceGraphic" in2="BackgroundImageFix" result="shape"/>
<feGaussianBlur stdDeviation="50" result="effect1_foregroundBlur_760_2889"/>
</filter>
<filter id="filter11_d_760_2889" x="684.08" y="181.479" width="42.2344" height="46.5742" filterUnits="userSpaceOnUse" color-interpolation-filters="sRGB">
<feFlood flood-opacity="0" result="BackgroundImageFix"/>
<feColorMatrix in="SourceAlpha" type="matrix" values="0 0 0 0 0 0 0 0 0 0 0 0 0 0 0 0 0 0 127 0" result="hardAlpha"/>
<feOffset dy="4"/>
<feGaussianBlur stdDeviation="2"/>
<feComposite in2="hardAlpha" operator="out"/>
<feColorMatrix type="matrix" values="0 0 0 0 0 0 0 0 0 0 0 0 0 0 0 0 0 0 0.25 0"/>
<feBlend mode="normal" in2="BackgroundImageFix" result="effect1_dropShadow_760_2889"/>
<feBlend mode="normal" in="SourceGraphic" in2="effect1_dropShadow_760_2889" result="shape"/>
</filter>
<clipPath id="clip0_760_2889">
<rect width="424" height="416" fill="white" transform="translate(6 -6.00195)"/>
</clipPath>
<clipPath id="clip1_760_2889">
<rect width="401" height="393" fill="white" transform="translate(422 35)"/>
</clipPath>
</defs>
</svg>
