<svg width="1657" height="506" viewBox="0 0 1657 506" fill="none" xmlns="http://www.w3.org/2000/svg">
<rect x="720.477" y="451.572" width="215.231" height="16" rx="8" fill="#F7F7F7"/>
<rect y="71.9746" width="1656.18" height="415.196" fill="#21282C"/>
<rect x="221.02" y="192.738" width="1435.16" height="294.432" fill="#07264A"/>
<path d="M0 192.738H520.873L235.756 209.99L291.011 310.626L1013.01 453.817L996.067 487.171H0V192.738Z" fill="#605143"/>
<rect y="71.9746" width="1656.18" height="120.763" fill="#123D67"/>
<g clip-path="url(#clip0_760_2776)">
<circle cx="334.516" cy="102.158" r="1.58603" fill="#FFF2C2"/>
<circle cx="184.371" cy="126.158" r="1.58603" fill="#FFF2C2"/>
<g filter="url(#filter0_f_760_2776)">
<rect x="169.092" y="99.5723" width="5" height="5" transform="rotate(-45 169.092 99.5723)" fill="white"/>
</g>
<rect x="171.092" y="98.5723" width="2" height="2" transform="rotate(-45 171.092 98.5723)" fill="white"/>
<g filter="url(#filter1_f_760_2776)">
<rect x="39.0918" y="127.107" width="5" height="5" transform="rotate(-45 39.0918 127.107)" fill="white"/>
</g>
<rect x="41.0918" y="126.107" width="2" height="2" transform="rotate(-45 41.0918 126.107)" fill="white"/>
<g filter="url(#filter2_f_760_2776)">
<rect x="347.092" y="180.107" width="5" height="5" transform="rotate(-45 347.092 180.107)" fill="white"/>
</g>
<rect x="349.092" y="179.107" width="2" height="2" transform="rotate(-45 349.092 179.107)" fill="white"/>
<circle cx="293.279" cy="129.158" r="1.58603" fill="#FFF2C2"/>
<rect x="3.0918" y="178.572" width="80" height="4" fill="#0D2035"/>
<rect x="45.0918" y="182.572" width="10" height="4" transform="rotate(90 45.0918 182.572)" fill="#0D2035"/>
<rect x="78.0918" y="182.572" width="10" height="4" transform="rotate(90 78.0918 182.572)" fill="#0D2035"/>
<rect x="67.0918" y="182.572" width="10" height="4" transform="rotate(90 67.0918 182.572)" fill="#0D2035"/>
<rect x="23.0918" y="182.572" width="10" height="4" transform="rotate(90 23.0918 182.572)" fill="#0D2035"/>
<rect x="7.0918" y="182.572" width="10" height="4" transform="rotate(90 7.0918 182.572)" fill="#0D2035"/>
<g filter="url(#filter3_f_760_2776)">
<circle cx="45.3296" cy="170.687" r="2.11471" fill="#FFF2C2"/>
</g>
<rect x="43.0918" y="170.572" width="8" height="1" transform="rotate(90 43.0918 170.572)" fill="#0D2035"/>
<circle cx="44.8009" cy="170.158" r="1.58603" fill="#FFF2C2"/>
<g filter="url(#filter4_f_760_2776)">
<circle cx="16.7807" cy="170.687" r="2.11471" fill="#FFF2C2"/>
</g>
<rect x="16.0918" y="170.572" width="8" height="1" transform="rotate(90 16.0918 170.572)" fill="#0D2035"/>
<circle cx="16.2521" cy="170.158" r="1.58603" fill="#FFF2C2"/>
<g filter="url(#filter5_f_760_2776)">
<circle cx="74.935" cy="170.687" r="2.11471" fill="#FFF2C2"/>
</g>
<rect x="71.0918" y="170.572" width="8" height="1" transform="rotate(90 71.0918 170.572)" fill="#0D2035"/>
<circle cx="74.4063" cy="170.158" r="1.58603" fill="#FFF2C2"/>
</g>
<g filter="url(#filter6_f_760_2776)">
<rect x="1460.21" y="166.363" width="6.50899" height="6.50899" transform="rotate(-45 1460.21 166.363)" fill="white"/>
</g>
<rect x="1463.4" y="165.75" width="2.6036" height="2.6036" transform="rotate(-45 1463.4 165.75)" fill="white"/>
<g filter="url(#filter7_f_760_2776)">
<rect x="1580.78" y="109.932" width="6.50899" height="6.50899" transform="rotate(-45 1580.78 109.932)" fill="white"/>
</g>
<rect x="1583.38" y="108.627" width="2.6036" height="2.6036" transform="rotate(-45 1583.38 108.627)" fill="white"/>
<g filter="url(#filter8_f_760_2776)">
<rect x="955.416" y="84.0918" width="6.50899" height="6.50899" transform="rotate(-45 955.416 84.0918)" fill="white"/>
</g>
<rect x="958.02" y="82.7891" width="2.6036" height="2.6036" transform="rotate(-45 958.02 82.7891)" fill="white"/>
<ellipse cx="1564.09" cy="142.709" rx="1.9527" ry="1.9527" fill="#FFF2C2"/>
<ellipse cx="1291.5" cy="162.259" rx="1.9527" ry="1.9527" fill="#FFF2C2"/>
<ellipse cx="1334.23" cy="108.205" rx="1.9527" ry="1.9527" fill="#FFF2C2"/>
<ellipse cx="1295.92" cy="95.5523" rx="1.9527" ry="1.9527" fill="#FFF2C2"/>
<ellipse cx="1157.41" cy="136.957" rx="1.9527" ry="1.9527" fill="#FFF2C2"/>
<ellipse cx="1138.26" cy="140.408" rx="1.9527" ry="1.9527" fill="#FFF2C2"/>
<ellipse cx="917.236" cy="133.507" rx="1.9527" ry="1.9527" fill="#FFF2C2"/>
<ellipse cx="1133.84" cy="159.961" rx="1.9527" ry="1.9527" fill="#FFF2C2"/>
<ellipse cx="936.728" cy="134.097" rx="41.6576" ry="41.6575" fill="#FFF2C2"/>
<ellipse cx="909.27" cy="116.664" rx="41.7252" ry="41.7252" transform="rotate(-103.971 909.27 116.664)" fill="#123D67"/>
<g filter="url(#filter9_f_760_2776)">
<ellipse cx="952.581" cy="138.423" rx="38.4139" ry="38.4139" transform="rotate(-103.971 952.581 138.423)" fill="#DFE2E6" fill-opacity="0.92"/>
</g>
<ellipse cx="687.375" cy="118.556" rx="1.9527" ry="1.9527" fill="#FFF2C2"/>
<path d="M1155.2 163.984L1362.96 179.511L1401.27 201.939H1190.56L1155.2 163.984Z" fill="#0D2035"/>
<path d="M1232.56 169.734L1408.64 176.635L1401.27 201.938L1362.96 179.51L1232.56 169.734Z" fill="#000F21"/>
<path d="M1197.93 157.084L1271.61 166.285L1343.81 178.936H1197.93V157.084Z" fill="#0D2035"/>
<rect x="1245.08" y="138.682" width="8.84084" height="29.9033" fill="#0D2035"/>
<rect width="14.9285" height="11.8833" transform="matrix(0.962045 0.272892 -0.422071 0.906563 1247.1 133.773)" fill="#0D2035"/>
<path d="M1259.38 126.653L1258.55 138.536L1249.13 135.466L1259.38 126.653Z" fill="#0D2035"/>
<path d="M1304.65 453.817L1655.45 484.295H1200.88L996.804 487.746C996.804 487.746 980.934 479.276 958.383 469.344C887.647 438.188 830.439 468.277 751.36 453.817C694.576 443.434 667.587 423.163 609.906 416.438C561.816 410.831 485.398 416.438 485.398 416.438C485.398 416.438 345.309 424.269 282.058 384.809C259.94 371.011 233.434 342.83 233.434 342.83C233.434 342.83 33.7787 315.802 1.36205 254.27C-31.0546 192.738 525.918 192.738 525.918 192.738C525.918 192.738 233.434 202.514 255.536 233.568C277.638 264.621 343.859 231.674 354.995 262.896C358.7 273.281 342.471 274.972 354.995 290.499C367.52 306.026 468.453 311.776 468.453 311.776C468.453 311.776 634.786 316.106 687.264 321.552C765.009 329.621 800.925 358.377 877.342 372.158C972.571 389.332 1066.43 331.447 1126.36 391.71C1138.13 403.548 1231.09 438.865 1231.09 438.865L1304.65 453.817Z" fill="#044765"/>
<g clip-path="url(#clip1_760_2776)">
<path d="M765.935 447.666H626.787C624.167 447.666 622.043 449.791 622.043 452.412V453.045C622.043 455.667 624.167 457.792 626.787 457.792H765.935C768.555 457.792 770.679 455.667 770.679 453.045V452.412C770.679 449.791 768.555 447.666 765.935 447.666Z" fill="#2E2E33"/>
<path d="M750.592 344.705C734.906 350.261 708.871 336.057 708.871 336.057C708.871 336.057 706.573 328.018 708.349 323.403C710.846 316.915 722.927 313.196 722.927 313.196C722.927 313.196 735.175 318.722 743.554 319.261C757.644 320.167 765.467 295.101 777.145 303.041C791.906 313.078 767.415 338.746 750.592 344.705Z" fill="#D9D9D9"/>
<path d="M693.514 297.759C693.514 295.278 695.33 293.172 697.783 292.808C697.783 292.808 728.429 290.308 738.104 303.408C745.261 313.099 746.166 322.455 742.532 333.943C738.79 345.77 720.868 355.225 716.053 357.583C715.257 357.973 714.42 358.231 713.548 358.393L706.598 359.681C699.793 360.942 693.514 355.716 693.514 348.791V297.759Z" fill="#A33F0F"/>
<path d="M699.366 311.129C703.843 303.501 714.886 298.572 721.771 307.878C726.865 314.762 724.358 321.637 721.771 329.798C720.234 334.648 714.66 338.123 709.456 340.388C704.007 342.76 698.189 339.16 697.42 333.264C696.472 325.984 696.137 316.629 699.366 311.129Z" fill="#EAEAEA"/>
<path d="M605.914 310.655C605.914 304.538 610.87 299.58 616.983 299.58H671.693V359.068C671.693 365.184 666.738 370.143 660.625 370.143H616.983C610.87 370.143 605.914 365.184 605.914 359.068V310.655Z" fill="#FE8101"/>
<path d="M647.976 323.312C647.976 325.06 646.56 326.476 644.813 326.476H607.18C605.433 326.476 604.018 325.06 604.018 323.312V310.655C604.018 304.538 608.973 299.58 615.086 299.58H647.976V323.312Z" fill="#FFB800"/>
<g filter="url(#filter10_f_760_2776)">
<path d="M766.086 271.915C768.381 262.146 775.71 254.345 785.312 251.449C794.915 248.554 805.332 251.004 812.64 257.877C819.948 264.75 823.035 275.002 820.74 284.77C818.445 294.539 811.116 302.341 801.513 305.236C791.911 308.132 781.493 305.682 774.186 298.809C766.878 291.936 763.79 281.684 766.086 271.915Z" fill="#D0E60A"/>
</g>
<g filter="url(#filter11_d_760_2776)">
<path d="M791.708 259.475C792.687 258.909 793.892 258.909 794.871 259.475L808.826 267.536C809.804 268.101 810.407 269.146 810.407 270.276V286.399C810.407 287.53 809.804 288.574 808.826 289.139L794.871 297.201C793.892 297.766 792.687 297.766 791.708 297.201L777.753 289.139C776.775 288.574 776.172 287.53 776.172 286.399V270.276C776.172 269.146 776.775 268.101 777.753 267.536L791.708 259.475Z" fill="#35984E"/>
</g>
<path d="M797.87 276.202C795.766 277.427 793.126 275.914 793.117 273.478L793.094 266.991C793.085 264.555 795.715 263.023 797.828 264.234L803.454 267.457C805.567 268.668 805.578 271.712 803.474 272.938L797.87 276.202Z" fill="#BEE275"/>
<path d="M744.265 386.785C736.984 371.052 709.377 356.5 709.377 356.5C709.377 356.5 700.678 359.086 697.696 363.179C693.505 368.932 698.03 381.203 698.03 381.203C698.03 381.203 709.841 389.402 715.003 396.453C723.903 408.61 721.971 424.842 724.195 432.595C726.419 440.348 746.763 439.266 756.92 432.52C765.906 426.551 776.652 418.473 767.778 408.349C758.903 398.225 748.812 410.682 748.812 410.682C748.812 410.682 748.333 395.574 744.265 386.785Z" fill="#D9D9D9"/>
<path d="M687.041 415.883C694.723 401.116 689.349 373.315 689.349 373.315C689.349 373.315 682.17 369.038 677.256 369.576C670.349 370.333 663.668 381.069 663.668 381.069C663.668 381.069 664.456 394.196 662.149 402.1C658.17 415.729 644.597 424.567 639.996 430.92C635.396 437.271 648.084 452.542 659.619 453.045C677.702 453.836 682.163 457.633 684.602 445.293C687.041 432.952 671.478 433.901 671.478 433.901C671.478 433.901 682.749 424.133 687.041 415.883Z" fill="#EAEAEA"/>
<path d="M617.355 253.311C617.97 242.387 621.399 236.557 626.21 226.731C634.907 208.971 635.065 193.665 658.783 187.969C682.502 182.274 699.263 212.176 699.263 212.176C699.263 212.176 705.588 188.128 730.413 191.608C755.238 195.089 754.922 226.731 758.717 242.711C762.512 258.69 764.568 254.946 764.41 263.279C764.261 271.077 762.538 275.623 758.717 282.422C752.904 292.768 734.524 301.882 734.524 301.882C734.524 301.882 740.897 337.495 729.939 355.358C720.02 371.527 709.383 378.932 689.934 382.887C670.484 386.843 649.73 417.622 621.941 410.574C607.607 406.94 597.394 403.201 589.842 390.482C582.474 378.072 577.666 357.415 587.154 353.618C596.641 349.821 596.242 373.647 607.868 378.932C616.287 382.759 622.523 383.799 631.428 381.305C646.247 377.155 647.203 363.533 652.56 349.099C659.073 331.549 659.043 321.096 655.146 301.882C655.146 301.882 626.414 286.212 621.941 278.151C617.156 269.526 616.801 263.16 617.355 253.311Z" fill="#EAEAEA"/>
<path d="M690.352 200.223L708.694 201.172C708.694 201.172 721.186 201.33 718.023 212.405C714.861 223.48 706.164 220.474 700.313 215.727C694.463 210.981 690.352 200.223 690.352 200.223Z" fill="#D9D9D9"/>
<path d="M624.208 232.58L630.532 242.973C630.532 242.973 635.115 249.861 627.649 252.438C620.184 255.016 618.635 249.094 619.139 244.052C619.643 239.009 624.208 232.58 624.208 232.58Z" fill="#D9D9D9"/>
<path d="M606.459 379.002L624.224 383.667C624.224 383.667 636.422 386.366 631.073 396.565C625.724 406.764 617.82 402.05 613.058 396.211C608.295 390.372 606.459 379.002 606.459 379.002Z" fill="#D9D9D9"/>
<path d="M730.515 259.552C730.515 265.056 726.055 269.519 720.554 269.519C715.052 269.519 710.592 265.056 710.592 259.552C710.592 254.047 712.047 245.312 717.549 245.312C723.051 245.312 730.515 254.047 730.515 259.552Z" fill="#EAEAEA"/>
<path d="M722.941 364.928L716.6 347.681C716.6 347.681 711.833 336.127 723.253 334.681C734.674 333.235 735.332 342.418 733.271 349.666C731.211 356.915 722.941 364.928 722.941 364.928Z" fill="#D9D9D9"/>
<path d="M703.952 265.721C705.698 265.721 707.114 264.304 707.114 262.557C707.114 260.809 705.698 259.393 703.952 259.393C702.205 259.393 700.789 260.809 700.789 262.557C700.789 264.304 702.205 265.721 703.952 265.721Z" fill="#D9D9D9"/>
<path d="M720.078 265.721C721.825 265.721 723.241 264.304 723.241 262.557C723.241 260.809 721.825 259.393 720.078 259.393C718.332 259.393 716.916 260.809 716.916 262.557C716.916 264.304 718.332 265.721 720.078 265.721Z" fill="#D9D9D9"/>
<path d="M724.96 276.547C728.597 280.819 720.125 290.944 707.724 290.944C695.324 290.944 679.737 280.027 684.164 272.275C687.236 266.896 694.126 277.812 707.724 277.812C720.125 277.812 721.323 272.275 724.96 276.547Z" fill="#A43F10"/>
<path d="M720.079 286.922C720.079 286.922 716.284 290.944 707.724 290.944C700.946 290.944 693.988 287.239 693.988 287.239C693.988 287.239 698.348 283.125 707.429 283.125C715.651 283.125 720.079 286.922 720.079 286.922Z" fill="#EE622D"/>
<path d="M647.342 301.242C647.342 298.761 649.158 296.654 651.611 296.29C651.611 296.29 682.258 293.79 691.932 306.891C699.089 316.582 699.994 325.938 696.36 337.426C692.618 349.253 674.696 358.708 669.881 361.065C669.085 361.455 668.248 361.714 667.377 361.875L660.426 363.163C653.621 364.424 647.342 359.198 647.342 352.274V301.242Z" fill="#A33F0F"/>
<path d="M653.194 314.609C657.672 306.981 668.714 302.052 675.6 311.358C680.693 318.243 678.186 325.118 675.6 333.279C674.063 338.128 668.488 341.603 663.285 343.869C657.835 346.241 652.017 342.641 651.249 336.744C650.3 329.464 649.966 320.11 653.194 314.609Z" fill="#EAEAEA"/>
<path d="M626.999 333.122C633.33 317.725 661.276 307.801 661.276 307.801C661.276 307.801 668.793 311.453 671.044 315.856C674.207 322.046 668.914 333.531 668.914 333.531C668.914 333.531 656.628 338.971 650.636 344.855C640.559 354.751 649.729 374.541 636.026 377.945C618.705 382.248 620.209 349.635 626.999 333.122Z" fill="#EAEAEA"/>
<path d="M690.353 237.876C690.353 224.77 679.734 214.145 666.634 214.145C653.535 214.145 642.916 224.77 642.916 237.876V247.053C642.916 260.16 653.535 270.785 666.634 270.785C679.734 270.785 690.353 260.16 690.353 247.053V237.876Z" fill="white"/>
<path d="M678.652 237.561C678.652 232.843 674.829 229.018 670.113 229.018C665.397 229.018 661.574 232.843 661.574 237.561V247.054C661.574 251.772 665.397 255.597 670.113 255.597C674.829 255.597 678.652 251.772 678.652 247.054V237.561Z" fill="#1E1E1E"/>
<path d="M666.317 245.787C668.063 245.787 669.479 244.371 669.479 242.623C669.479 240.876 668.063 239.459 666.317 239.459C664.57 239.459 663.154 240.876 663.154 242.623C663.154 244.371 664.57 245.787 666.317 245.787Z" fill="white"/>
<path d="M752.652 230.124C752.652 221.474 745.643 214.461 736.998 214.461C728.352 214.461 721.344 221.474 721.344 230.124V249.109C721.344 257.76 728.352 264.773 736.998 264.773C745.643 264.773 752.652 257.76 752.652 249.109V230.124Z" fill="white"/>
<path d="M740.636 237.561C740.636 232.843 736.813 229.018 732.097 229.018C727.381 229.018 723.559 232.843 723.559 237.561V247.054C723.559 251.772 727.381 255.597 732.097 255.597C736.813 255.597 740.636 251.772 740.636 247.054V237.561Z" fill="#1E1E1E"/>
<path d="M726.721 245.787C728.468 245.787 729.884 244.371 729.884 242.623C729.884 240.876 728.468 239.459 726.721 239.459C724.974 239.459 723.559 240.876 723.559 242.623C723.559 244.371 724.974 245.787 726.721 245.787Z" fill="white"/>
</g>
<defs>
<filter id="filter0_f_760_2776" x="157.092" y="84.0371" width="31.0703" height="31.0703" filterUnits="userSpaceOnUse" color-interpolation-filters="sRGB">
<feFlood flood-opacity="0" result="BackgroundImageFix"/>
<feBlend mode="normal" in="SourceGraphic" in2="BackgroundImageFix" result="shape"/>
<feGaussianBlur stdDeviation="6" result="effect1_foregroundBlur_760_2776"/>
</filter>
<filter id="filter1_f_760_2776" x="27.0918" y="111.572" width="31.0703" height="31.0703" filterUnits="userSpaceOnUse" color-interpolation-filters="sRGB">
<feFlood flood-opacity="0" result="BackgroundImageFix"/>
<feBlend mode="normal" in="SourceGraphic" in2="BackgroundImageFix" result="shape"/>
<feGaussianBlur stdDeviation="6" result="effect1_foregroundBlur_760_2776"/>
</filter>
<filter id="filter2_f_760_2776" x="335.092" y="164.572" width="31.0703" height="31.0703" filterUnits="userSpaceOnUse" color-interpolation-filters="sRGB">
<feFlood flood-opacity="0" result="BackgroundImageFix"/>
<feBlend mode="normal" in="SourceGraphic" in2="BackgroundImageFix" result="shape"/>
<feGaussianBlur stdDeviation="6" result="effect1_foregroundBlur_760_2776"/>
</filter>
<filter id="filter3_f_760_2776" x="39.2148" y="164.572" width="12.2285" height="12.2285" filterUnits="userSpaceOnUse" color-interpolation-filters="sRGB">
<feFlood flood-opacity="0" result="BackgroundImageFix"/>
<feBlend mode="normal" in="SourceGraphic" in2="BackgroundImageFix" result="shape"/>
<feGaussianBlur stdDeviation="2" result="effect1_foregroundBlur_760_2776"/>
</filter>
<filter id="filter4_f_760_2776" x="10.666" y="164.572" width="12.2285" height="12.2285" filterUnits="userSpaceOnUse" color-interpolation-filters="sRGB">
<feFlood flood-opacity="0" result="BackgroundImageFix"/>
<feBlend mode="normal" in="SourceGraphic" in2="BackgroundImageFix" result="shape"/>
<feGaussianBlur stdDeviation="2" result="effect1_foregroundBlur_760_2776"/>
</filter>
<filter id="filter5_f_760_2776" x="68.8203" y="164.572" width="12.2285" height="12.2285" filterUnits="userSpaceOnUse" color-interpolation-filters="sRGB">
<feFlood flood-opacity="0" result="BackgroundImageFix"/>
<feBlend mode="normal" in="SourceGraphic" in2="BackgroundImageFix" result="shape"/>
<feGaussianBlur stdDeviation="2" result="effect1_foregroundBlur_760_2776"/>
</filter>
<filter id="filter6_f_760_2776" x="1448.21" y="149.76" width="33.2051" height="33.207" filterUnits="userSpaceOnUse" color-interpolation-filters="sRGB">
<feFlood flood-opacity="0" result="BackgroundImageFix"/>
<feBlend mode="normal" in="SourceGraphic" in2="BackgroundImageFix" result="shape"/>
<feGaussianBlur stdDeviation="6" result="effect1_foregroundBlur_760_2776"/>
</filter>
<filter id="filter7_f_760_2776" x="1568.78" y="93.3281" width="33.2051" height="33.207" filterUnits="userSpaceOnUse" color-interpolation-filters="sRGB">
<feFlood flood-opacity="0" result="BackgroundImageFix"/>
<feBlend mode="normal" in="SourceGraphic" in2="BackgroundImageFix" result="shape"/>
<feGaussianBlur stdDeviation="6" result="effect1_foregroundBlur_760_2776"/>
</filter>
<filter id="filter8_f_760_2776" x="943.416" y="67.4883" width="33.2051" height="33.207" filterUnits="userSpaceOnUse" color-interpolation-filters="sRGB">
<feFlood flood-opacity="0" result="BackgroundImageFix"/>
<feBlend mode="normal" in="SourceGraphic" in2="BackgroundImageFix" result="shape"/>
<feGaussianBlur stdDeviation="6" result="effect1_foregroundBlur_760_2776"/>
</filter>
<filter id="filter9_f_760_2776" x="814.158" y="0" width="276.846" height="276.846" filterUnits="userSpaceOnUse" color-interpolation-filters="sRGB">
<feFlood flood-opacity="0" result="BackgroundImageFix"/>
<feBlend mode="normal" in="SourceGraphic" in2="BackgroundImageFix" result="shape"/>
<feGaussianBlur stdDeviation="50" result="effect1_foregroundBlur_760_2776"/>
</filter>
<filter id="filter10_f_760_2776" x="665.34" y="150.254" width="256.146" height="256.178" filterUnits="userSpaceOnUse" color-interpolation-filters="sRGB">
<feFlood flood-opacity="0" result="BackgroundImageFix"/>
<feBlend mode="normal" in="SourceGraphic" in2="BackgroundImageFix" result="shape"/>
<feGaussianBlur stdDeviation="50" result="effect1_foregroundBlur_760_2776"/>
</filter>
<filter id="filter11_d_760_2776" x="772.172" y="259.051" width="42.2344" height="46.5742" filterUnits="userSpaceOnUse" color-interpolation-filters="sRGB">
<feFlood flood-opacity="0" result="BackgroundImageFix"/>
<feColorMatrix in="SourceAlpha" type="matrix" values="0 0 0 0 0 0 0 0 0 0 0 0 0 0 0 0 0 0 127 0" result="hardAlpha"/>
<feOffset dy="4"/>
<feGaussianBlur stdDeviation="2"/>
<feComposite in2="hardAlpha" operator="out"/>
<feColorMatrix type="matrix" values="0 0 0 0 0 0 0 0 0 0 0 0 0 0 0 0 0 0 0.25 0"/>
<feBlend mode="normal" in2="BackgroundImageFix" result="effect1_dropShadow_760_2776"/>
<feBlend mode="normal" in="SourceGraphic" in2="effect1_dropShadow_760_2776" result="shape"/>
</filter>
<clipPath id="clip0_760_2776">
<rect width="424" height="416" fill="white" transform="translate(4.0918 71.5723)"/>
</clipPath>
<clipPath id="clip1_760_2776">
<rect width="401" height="393" fill="white" transform="translate(510.092 112.572)"/>
</clipPath>
</defs>
</svg>
