<svg width="624" height="1024" viewBox="0 0 624 1024" fill="none" xmlns="http://www.w3.org/2000/svg">
<g clip-path="url(#clip0_760_2624)">
<rect width="624" height="1024" fill="white"/>
<rect x="-315" y="-3.08398" width="3225.63" height="1035.99" fill="#3D4B54"/>
<rect x="-315" y="-3.08398" width="3225.63" height="1035.99" fill="#21282C"/>
<rect x="115.467" y="298.242" width="2795.16" height="734.663" fill="#07264A"/>
<path d="M-315 298.242H699.467L144.165 341.289L251.781 592.395L1657.97 949.682L1624.97 1032.91H-315V298.242Z" fill="#605143"/>
<rect x="-315" y="-3.08398" width="3225.63" height="301.327" fill="#123D67"/>
<g clip-path="url(#clip1_760_2624)">
<circle cx="174.575" cy="8.30711" r="4.30711" fill="#FFF2C2"/>
<g filter="url(#filter0_f_760_2624)">
<rect x="28" y="59.5352" width="5" height="5" transform="rotate(-45 28 59.5352)" fill="white"/>
</g>
<rect x="30" y="58.5352" width="2" height="2" transform="rotate(-45 30 58.5352)" fill="white"/>
<circle cx="470.329" cy="11.3071" r="4.30711" fill="#FFF2C2"/>
</g>
<path d="M2225.97 949.682L2909.2 1025.73H2023.87L1626.41 1034.34C1626.41 1034.34 1595.5 1013.21 1551.57 988.424C1413.81 910.686 1302.39 985.763 1148.37 949.682C1037.78 923.774 985.212 873.196 872.872 856.414C779.21 842.423 630.375 856.414 630.375 856.414C630.375 856.414 357.533 875.953 234.345 777.495C191.268 743.065 139.643 672.748 139.643 672.748C139.643 672.748 -249.212 605.309 -312.347 451.775C-375.483 298.242 709.294 298.242 709.294 298.242C709.294 298.242 139.643 322.635 182.689 400.119C225.736 477.603 354.709 395.395 376.4 473.299C383.614 499.21 352.006 503.431 376.4 542.173C400.793 580.915 597.373 595.264 597.373 595.264C597.373 595.264 921.329 606.068 1023.54 619.657C1174.95 639.79 1244.91 711.542 1393.74 745.928C1579.21 788.779 1762 644.346 1878.73 794.714C1901.66 824.252 2082.7 912.375 2082.7 912.375L2225.97 949.682Z" fill="#044765"/>
<path d="M435.174 907.285H130.506C124.769 907.285 120.119 911.935 120.119 917.672V919.056C120.119 924.793 124.769 929.443 130.506 929.443H435.174C440.911 929.443 445.561 924.793 445.561 919.056V917.672C445.561 911.935 440.911 907.285 435.174 907.285Z" fill="#2E2E33"/>
<path d="M401.581 681.977C367.238 694.135 310.232 663.052 310.232 663.052C310.232 663.052 305.202 645.461 309.09 635.36C314.556 621.163 341.009 613.026 341.009 613.026C341.009 613.026 367.825 625.118 386.171 626.297C417.022 628.279 434.151 573.427 459.721 590.803C492.04 612.766 438.416 668.935 401.581 681.977Z" fill="#D9D9D9"/>
<path d="M276.609 579.246C276.609 573.818 280.587 569.207 285.957 568.412C285.957 568.412 353.058 562.94 374.242 591.608C389.912 612.815 391.893 633.289 383.936 658.428C375.744 684.309 336.502 704.999 325.96 710.158C324.217 711.011 322.384 711.577 320.476 711.931L305.257 714.749C290.358 717.508 276.609 706.072 276.609 690.919V579.246Z" fill="#A33F0F"/>
<path d="M289.418 608.5C299.222 591.807 323.4 581.021 338.475 601.386C349.628 616.45 344.139 631.496 338.475 649.353C335.11 659.966 322.905 667.57 311.511 672.527C299.58 677.719 286.841 669.841 285.158 656.938C283.082 641.007 282.349 620.536 289.418 608.5Z" fill="#EAEAEA"/>
<path d="M84.8066 607.462C84.8066 594.077 95.657 583.227 109.042 583.227H228.832V713.404C228.832 726.788 217.982 737.639 204.597 737.639H109.042C95.657 737.639 84.8066 726.788 84.8066 713.404V607.462Z" fill="#FE8101"/>
<path d="M176.9 635.159C176.9 638.983 173.8 642.083 169.976 642.083H87.5766C83.7523 642.083 80.6523 638.983 80.6523 635.159V607.462C80.6523 594.077 91.5027 583.227 104.887 583.227H176.9V635.159Z" fill="#FFB800"/>
<g filter="url(#filter1_f_760_2624)">
<path d="M435.504 522.69C440.529 501.313 456.577 484.241 477.601 477.905C498.627 471.568 521.436 476.93 537.436 491.97C553.436 507.011 560.197 529.445 555.172 550.821C550.147 572.198 534.099 589.27 513.074 595.606C492.048 601.944 469.24 596.581 453.24 581.541C437.239 566.501 430.478 544.067 435.504 522.69Z" fill="#D0E60A"/>
</g>
<g filter="url(#filter2_d_760_2624)">
<path d="M491.609 495.465C493.751 494.228 496.391 494.228 498.533 495.465L529.088 513.106C531.23 514.342 532.55 516.628 532.55 519.102V554.384C532.55 556.858 531.23 559.143 529.088 560.38L498.533 578.021C496.391 579.258 493.751 579.258 491.609 578.021L461.054 560.38C458.912 559.143 457.592 556.858 457.592 554.384V519.102C457.592 516.628 458.912 514.342 461.054 513.106L491.609 495.465Z" fill="#35984E"/>
</g>
<path d="M505.099 532.069C500.492 534.75 494.711 531.439 494.691 526.109L494.641 511.913C494.621 506.582 500.38 503.23 505.006 505.879L517.325 512.933C521.951 515.582 521.974 522.244 517.368 524.926L505.099 532.069Z" fill="#BEE275"/>
<path d="M387.727 774.058C371.785 739.629 311.338 707.785 311.338 707.785C311.338 707.785 292.291 713.445 285.762 722.402C276.585 734.991 286.495 761.842 286.495 761.842C286.495 761.842 312.354 779.785 323.656 795.214C343.142 821.817 338.913 857.337 343.783 874.305C348.653 891.269 393.195 888.901 415.434 874.138C435.11 861.078 458.639 843.4 439.208 821.246C419.778 799.093 397.682 826.352 397.682 826.352C397.682 826.352 396.633 793.29 387.727 774.058Z" fill="#D9D9D9"/>
<path d="M262.436 837.735C279.256 805.419 267.49 744.584 267.49 744.584C267.49 744.584 251.769 735.224 241.01 736.401C225.887 738.057 211.259 761.55 211.259 761.55C211.259 761.55 212.986 790.277 207.933 807.574C199.221 837.398 169.503 856.737 159.43 870.641C149.356 884.538 177.139 917.955 202.394 919.056C241.988 920.787 251.756 929.096 257.096 902.091C262.435 875.086 228.36 877.164 228.36 877.164C228.36 877.164 253.039 855.787 262.436 837.735Z" fill="#EAEAEA"/>
<path d="M109.858 481.98C111.203 458.074 118.711 445.317 129.246 423.816C148.287 384.951 148.634 351.456 200.566 338.993C252.498 326.529 289.197 391.964 289.197 391.964C289.197 391.964 303.045 339.339 357.401 346.956C411.757 354.572 411.064 423.816 419.373 458.783C427.683 493.751 432.184 485.556 431.837 503.791C431.512 520.857 427.739 530.805 419.373 545.684C406.645 568.323 366.403 588.268 366.403 588.268C366.403 588.268 380.356 666.198 356.362 705.289C334.645 740.672 311.354 756.875 268.77 765.531C226.186 774.186 180.743 841.539 119.898 826.118C88.5149 818.164 66.1516 809.983 49.6164 782.149C33.4841 754.992 22.9578 709.79 43.7307 701.481C64.5036 693.171 63.6304 745.31 89.0848 756.875C107.519 765.251 121.173 767.525 140.671 762.068C173.117 752.987 175.21 723.179 186.94 691.593C201.2 653.188 201.134 630.312 192.603 588.268C192.603 588.268 129.692 553.977 119.898 536.336C109.421 517.463 108.645 503.532 109.858 481.98Z" fill="#EAEAEA"/>
<path d="M269.684 365.803L309.844 367.88C309.844 367.88 337.195 368.226 330.271 392.461C323.347 416.696 304.305 410.118 291.495 399.732C278.685 389.345 269.684 365.803 269.684 365.803Z" fill="#D9D9D9"/>
<path d="M124.86 436.615L138.706 459.357C138.706 459.357 148.741 474.431 132.395 480.071C116.049 485.711 112.658 472.753 113.762 461.719C114.865 450.684 124.86 436.615 124.86 436.615Z" fill="#D9D9D9"/>
<path d="M85.998 757.027L124.895 767.236C124.895 767.236 151.604 773.142 139.891 795.461C128.179 817.779 110.874 807.463 100.447 794.686C90.019 781.909 85.998 757.027 85.998 757.027Z" fill="#D9D9D9"/>
<path d="M357.623 495.634C357.623 507.68 347.858 517.446 335.812 517.446C323.765 517.446 314 507.68 314 495.634C314 483.588 317.187 464.475 329.233 464.475C341.28 464.475 357.623 483.588 357.623 495.634Z" fill="#EAEAEA"/>
<path d="M341.039 726.229L327.155 688.487C327.155 688.487 316.717 663.204 341.723 660.039C366.728 656.874 368.168 676.969 363.657 692.831C359.145 708.694 341.039 726.229 341.039 726.229Z" fill="#D9D9D9"/>
<path d="M299.459 509.138C303.284 509.138 306.384 506.038 306.384 502.213C306.384 498.389 303.284 495.289 299.459 495.289C295.635 495.289 292.535 498.389 292.535 502.213C292.535 506.038 295.635 509.138 299.459 509.138Z" fill="#D9D9D9"/>
<path d="M334.772 509.138C338.596 509.138 341.696 506.038 341.696 502.213C341.696 498.389 338.596 495.289 334.772 495.289C330.948 495.289 327.848 498.389 327.848 502.213C327.848 506.038 330.948 509.138 334.772 509.138Z" fill="#D9D9D9"/>
<path d="M345.459 532.825C353.422 542.173 334.873 564.331 307.722 564.331C280.57 564.331 246.442 540.442 256.136 523.477C262.862 511.706 277.947 535.595 307.722 535.595C334.873 535.595 337.496 523.477 345.459 532.825Z" fill="#A43F10"/>
<path d="M334.774 555.53C334.774 555.53 326.465 564.33 307.723 564.33C292.882 564.33 277.648 556.222 277.648 556.222C277.648 556.222 287.194 547.221 307.077 547.221C325.08 547.221 334.774 555.53 334.774 555.53Z" fill="#EE622D"/>
<path d="M175.514 586.861C175.514 581.433 179.491 576.823 184.861 576.027C184.861 576.027 251.963 570.555 273.146 599.223C288.816 620.43 290.797 640.904 282.84 666.043C274.648 691.924 235.407 712.615 224.864 717.773C223.122 718.626 221.288 719.193 219.38 719.546L204.162 722.364C189.263 725.123 175.514 713.687 175.514 698.535V586.861Z" fill="#A33F0F"/>
<path d="M188.324 616.117C198.128 599.425 222.306 588.638 237.382 609.003C248.534 624.068 243.045 639.113 237.382 656.971C234.016 667.583 221.811 675.188 210.418 680.145C198.486 685.336 185.747 677.458 184.065 664.555C181.988 648.624 181.255 628.154 188.324 616.117Z" fill="#EAEAEA"/>
<path d="M130.974 656.628C144.834 622.936 206.024 601.219 206.024 601.219C206.024 601.219 222.483 609.21 227.411 618.846C234.338 632.391 222.747 657.523 222.747 657.523C222.747 657.523 195.846 669.427 182.727 682.304C160.664 703.96 180.742 747.266 150.737 754.716C112.814 764.132 116.107 692.765 130.974 656.628Z" fill="#EAEAEA"/>
<path d="M269.685 448.204C269.685 419.522 246.434 396.271 217.752 396.271C189.071 396.271 165.82 419.522 165.82 448.204V468.284C165.82 496.966 189.071 520.217 217.752 520.217C246.434 520.217 269.685 496.966 269.685 468.284V448.204Z" fill="white"/>
<path d="M244.065 447.51C244.065 437.185 235.695 428.814 225.369 428.814C215.044 428.814 206.674 437.185 206.674 447.51V468.283C206.674 478.608 215.044 486.979 225.369 486.979C235.695 486.979 244.065 478.608 244.065 468.283V447.51Z" fill="#1E1E1E"/>
<path d="M217.059 465.513C220.883 465.513 223.983 462.413 223.983 458.588C223.983 454.764 220.883 451.664 217.059 451.664C213.235 451.664 210.135 454.764 210.135 458.588C210.135 462.413 213.235 465.513 217.059 465.513Z" fill="white"/>
<path d="M406.093 431.238C406.093 412.308 390.748 396.963 371.818 396.963C352.889 396.963 337.543 412.308 337.543 431.238V472.784C337.543 491.714 352.889 507.06 371.818 507.06C390.748 507.06 406.093 491.714 406.093 472.784V431.238Z" fill="white"/>
<path d="M379.782 447.51C379.782 437.185 371.411 428.814 361.086 428.814C350.761 428.814 342.391 437.185 342.391 447.51V468.283C342.391 478.608 350.761 486.979 361.086 486.979C371.411 486.979 379.782 478.608 379.782 468.283V447.51Z" fill="#1E1E1E"/>
<path d="M349.315 465.513C353.139 465.513 356.239 462.413 356.239 458.588C356.239 454.764 353.139 451.664 349.315 451.664C345.491 451.664 342.391 454.764 342.391 458.588C342.391 462.413 345.491 465.513 349.315 465.513Z" fill="white"/>
</g>
<defs>
<filter id="filter0_f_760_2624" x="16" y="44" width="31.0703" height="31.0703" filterUnits="userSpaceOnUse" color-interpolation-filters="sRGB">
<feFlood flood-opacity="0" result="BackgroundImageFix"/>
<feBlend mode="normal" in="SourceGraphic" in2="BackgroundImageFix" result="shape"/>
<feGaussianBlur stdDeviation="6" result="effect1_foregroundBlur_760_2624"/>
</filter>
<filter id="filter1_f_760_2624" x="333.871" y="375.289" width="322.934" height="322.934" filterUnits="userSpaceOnUse" color-interpolation-filters="sRGB">
<feFlood flood-opacity="0" result="BackgroundImageFix"/>
<feBlend mode="normal" in="SourceGraphic" in2="BackgroundImageFix" result="shape"/>
<feGaussianBlur stdDeviation="50" result="effect1_foregroundBlur_760_2624"/>
</filter>
<filter id="filter2_d_760_2624" x="453.592" y="494.537" width="82.959" height="92.4121" filterUnits="userSpaceOnUse" color-interpolation-filters="sRGB">
<feFlood flood-opacity="0" result="BackgroundImageFix"/>
<feColorMatrix in="SourceAlpha" type="matrix" values="0 0 0 0 0 0 0 0 0 0 0 0 0 0 0 0 0 0 127 0" result="hardAlpha"/>
<feOffset dy="4"/>
<feGaussianBlur stdDeviation="2"/>
<feComposite in2="hardAlpha" operator="out"/>
<feColorMatrix type="matrix" values="0 0 0 0 0 0 0 0 0 0 0 0 0 0 0 0 0 0 0.25 0"/>
<feBlend mode="normal" in2="BackgroundImageFix" result="effect1_dropShadow_760_2624"/>
<feBlend mode="normal" in="SourceGraphic" in2="effect1_dropShadow_760_2624" result="shape"/>
</filter>
<clipPath id="clip0_760_2624">
<rect width="624" height="1024" fill="white"/>
</clipPath>
<clipPath id="clip1_760_2624">
<rect width="1151.43" height="1127.82" fill="white" transform="translate(-315 -49)"/>
</clipPath>
</defs>
</svg>
