<svg width="401" height="393" viewBox="0 0 401 393" fill="none" xmlns="http://www.w3.org/2000/svg">
<g clip-path="url(#clip0_760_2850)">
<path d="M255.843 335.094H116.695C114.075 335.094 111.951 337.219 111.951 339.84V340.473C111.951 343.094 114.075 345.219 116.695 345.219H255.843C258.463 345.219 260.587 343.094 260.587 340.473V339.84C260.587 337.219 258.463 335.094 255.843 335.094Z" fill="#2E2E33"/>
<path d="M240.5 232.133C224.815 237.689 198.779 223.485 198.779 223.485C198.779 223.485 196.482 215.446 198.258 210.83C200.754 204.342 212.836 200.624 212.836 200.624C212.836 200.624 225.083 206.15 233.462 206.689C247.552 207.595 255.375 182.528 267.053 190.469C281.814 200.505 257.323 226.174 240.5 232.133Z" fill="#D9D9D9"/>
<path d="M183.422 185.187C183.422 182.706 185.238 180.599 187.691 180.236C187.691 180.236 218.338 177.735 228.013 190.836C235.169 200.527 236.074 209.883 232.44 221.371C228.699 233.198 210.776 242.653 205.961 245.01C205.165 245.4 204.328 245.659 203.457 245.821L196.506 247.108C189.701 248.369 183.422 243.143 183.422 236.219V185.187Z" fill="#A33F0F"/>
<path d="M189.274 198.557C193.752 190.929 204.794 185.999 211.68 195.306C216.773 202.19 214.266 209.065 211.68 217.226C210.143 222.076 204.568 225.55 199.365 227.816C193.915 230.188 188.097 226.588 187.329 220.692C186.38 213.412 186.046 204.057 189.274 198.557Z" fill="#EAEAEA"/>
<path d="M95.8223 198.083C95.8223 191.966 100.778 187.008 106.891 187.008H161.601V246.496C161.601 252.612 156.646 257.571 150.533 257.571H106.891C100.778 257.571 95.8223 252.612 95.8223 246.496V198.083Z" fill="#FE8101"/>
<path d="M137.884 210.74C137.884 212.487 136.468 213.904 134.722 213.904H97.0882C95.3416 213.904 93.9258 212.487 93.9258 210.74V198.083C93.9258 191.966 98.8814 187.008 104.994 187.008H137.884V210.74Z" fill="#FFB800"/>
<g filter="url(#filter0_f_760_2850)">
<path d="M255.994 159.343C258.289 149.574 265.618 141.773 275.221 138.877C284.823 135.981 295.241 138.431 302.548 145.305C309.856 152.178 312.944 162.429 310.649 172.198C308.353 181.967 301.024 189.768 291.422 192.664C281.819 195.56 271.402 193.109 264.094 186.236C256.786 179.363 253.698 169.111 255.994 159.343Z" fill="#D0E60A"/>
</g>
<g filter="url(#filter1_d_760_2850)">
<path d="M281.616 146.902C282.595 146.337 283.8 146.337 284.779 146.902L298.734 154.964C299.712 155.529 300.315 156.574 300.315 157.704V173.827C300.315 174.958 299.712 176.002 298.734 176.567L284.779 184.629C283.8 185.194 282.595 185.194 281.616 184.629L267.661 176.567C266.683 176.002 266.08 174.958 266.08 173.827V157.704C266.08 156.574 266.683 155.529 267.661 154.964L281.616 146.902Z" fill="#35984E"/>
</g>
<path d="M287.779 163.629C285.675 164.855 283.034 163.342 283.025 160.906L283.002 154.419C282.993 151.983 285.623 150.451 287.736 151.661L293.363 154.885C295.475 156.095 295.486 159.14 293.382 160.366L287.779 163.629Z" fill="#BEE275"/>
<path d="M234.173 274.213C226.892 258.48 199.285 243.928 199.285 243.928C199.285 243.928 190.586 246.514 187.604 250.607C183.413 256.36 187.939 268.63 187.939 268.63C187.939 268.63 199.749 276.83 204.911 283.881C213.811 296.038 211.879 312.27 214.103 320.023C216.327 327.776 236.671 326.693 246.828 319.947C255.814 313.979 266.56 305.901 257.686 295.777C248.812 285.653 238.72 298.11 238.72 298.11C238.72 298.11 238.241 283.001 234.173 274.213Z" fill="#D9D9D9"/>
<path d="M176.949 303.311C184.632 288.543 179.258 260.743 179.258 260.743C179.258 260.743 172.078 256.466 167.164 257.004C160.257 257.76 153.576 268.496 153.576 268.496C153.576 268.496 154.365 281.624 152.057 289.528C148.078 303.157 134.505 311.994 129.905 318.348C125.304 324.699 137.993 339.97 149.527 340.473C167.611 341.264 172.072 345.061 174.51 332.72C176.949 320.38 161.386 321.329 161.386 321.329C161.386 321.329 172.658 311.561 176.949 303.311Z" fill="#EAEAEA"/>
<path d="M107.263 140.739C107.878 129.815 111.307 123.985 116.118 114.159C124.815 96.3989 124.973 81.0928 148.692 75.3972C172.41 69.7015 189.171 99.6037 189.171 99.6037C189.171 99.6037 195.496 75.5554 220.321 79.036C245.147 82.5167 244.83 114.159 248.625 130.139C252.42 146.118 254.476 142.373 254.318 150.706C254.169 158.505 252.446 163.051 248.625 169.85C242.812 180.196 224.432 189.31 224.432 189.31C224.432 189.31 230.805 224.922 219.847 242.786C209.928 258.955 199.291 266.36 179.842 270.315C160.393 274.27 139.638 305.049 111.849 298.002C97.5156 294.367 87.3018 290.629 79.7499 277.909C72.382 265.499 67.5744 244.843 77.0618 241.046C86.5492 237.249 86.1504 261.075 97.7759 266.36C106.195 270.187 112.431 271.227 121.336 268.733C136.155 264.583 137.111 250.961 142.468 236.527C148.981 218.977 148.951 208.524 145.055 189.31C145.055 189.31 116.322 173.64 111.849 165.578C107.064 156.954 106.71 150.588 107.263 140.739Z" fill="#EAEAEA"/>
<path d="M180.26 87.6504L198.602 88.5997C198.602 88.5997 211.094 88.7579 207.931 99.8328C204.769 110.908 196.072 107.902 190.222 103.155C184.371 98.4088 180.26 87.6504 180.26 87.6504Z" fill="#D9D9D9"/>
<path d="M114.116 120.008L120.44 130.4C120.44 130.4 125.023 137.289 117.558 139.866C110.092 142.443 108.544 136.522 109.048 131.479C109.551 126.437 114.116 120.008 114.116 120.008Z" fill="#D9D9D9"/>
<path d="M96.3672 266.43L114.132 271.095C114.132 271.095 126.331 273.794 120.981 283.993C115.632 294.192 107.729 289.477 102.966 283.639C98.2036 277.8 96.3672 266.43 96.3672 266.43Z" fill="#D9D9D9"/>
<path d="M220.424 146.979C220.424 152.484 215.963 156.947 210.462 156.947C204.96 156.947 200.5 152.484 200.5 146.979C200.5 141.475 201.956 132.74 207.457 132.74C212.959 132.74 220.424 141.475 220.424 146.979Z" fill="#EAEAEA"/>
<path d="M212.85 252.356L206.508 235.109C206.508 235.109 201.741 223.555 213.162 222.109C224.582 220.662 225.24 229.845 223.179 237.094C221.119 244.343 212.85 252.356 212.85 252.356Z" fill="#D9D9D9"/>
<path d="M193.86 153.149C195.606 153.149 197.022 151.732 197.022 149.985C197.022 148.237 195.606 146.82 193.86 146.82C192.113 146.82 190.697 148.237 190.697 149.985C190.697 151.732 192.113 153.149 193.86 153.149Z" fill="#D9D9D9"/>
<path d="M209.987 153.149C211.733 153.149 213.149 151.732 213.149 149.985C213.149 148.237 211.733 146.82 209.987 146.82C208.24 146.82 206.824 148.237 206.824 149.985C206.824 151.732 208.24 153.149 209.987 153.149Z" fill="#D9D9D9"/>
<path d="M214.868 163.975C218.505 168.246 210.033 178.372 197.632 178.372C185.232 178.372 169.645 167.455 174.072 159.703C177.144 154.324 184.034 165.24 197.632 165.24C210.033 165.24 211.231 159.703 214.868 163.975Z" fill="#A43F10"/>
<path d="M209.987 174.35C209.987 174.35 206.192 178.371 197.632 178.371C190.854 178.371 183.896 174.666 183.896 174.666C183.896 174.666 188.256 170.553 197.337 170.553C205.559 170.553 209.987 174.35 209.987 174.35Z" fill="#EE622D"/>
<path d="M137.25 188.669C137.25 186.189 139.067 184.082 141.519 183.718C141.519 183.718 172.166 181.218 181.841 194.318C188.997 204.009 189.902 213.366 186.268 224.853C182.527 236.68 164.604 246.136 159.789 248.493C158.993 248.883 158.156 249.142 157.285 249.303L150.334 250.591C143.529 251.852 137.25 246.626 137.25 239.701V188.669Z" fill="#A33F0F"/>
<path d="M143.102 202.037C147.58 194.409 158.622 189.48 165.508 198.786C170.601 205.67 168.094 212.546 165.508 220.706C163.971 225.556 158.396 229.031 153.193 231.296C147.743 233.669 141.925 230.069 141.157 224.172C140.208 216.892 139.874 207.538 143.102 202.037Z" fill="#EAEAEA"/>
<path d="M116.907 220.549C123.238 205.153 151.184 195.229 151.184 195.229C151.184 195.229 158.701 198.88 160.952 203.284C164.116 209.474 158.822 220.958 158.822 220.958C158.822 220.958 146.536 226.398 140.544 232.283C130.467 242.179 139.637 261.969 125.934 265.373C108.613 269.676 110.118 237.063 116.907 220.549Z" fill="#EAEAEA"/>
<path d="M180.261 125.304C180.261 112.197 169.642 101.572 156.543 101.572C143.443 101.572 132.824 112.197 132.824 125.304V134.48C132.824 147.587 143.443 158.212 156.543 158.212C169.642 158.212 180.261 147.587 180.261 134.48V125.304Z" fill="white"/>
<path d="M168.56 124.989C168.56 120.27 164.737 116.445 160.021 116.445C155.305 116.445 151.482 120.27 151.482 124.989V134.482C151.482 139.2 155.305 143.025 160.021 143.025C164.737 143.025 168.56 139.2 168.56 134.482V124.989Z" fill="#1E1E1E"/>
<path d="M156.225 133.215C157.972 133.215 159.387 131.799 159.387 130.051C159.387 128.303 157.972 126.887 156.225 126.887C154.478 126.887 153.062 128.303 153.062 130.051C153.062 131.799 154.478 133.215 156.225 133.215Z" fill="white"/>
<path d="M242.56 117.552C242.56 108.901 235.552 101.889 226.906 101.889C218.261 101.889 211.252 108.901 211.252 117.552V136.537C211.252 145.188 218.261 152.2 226.906 152.2C235.552 152.2 242.56 145.188 242.56 136.537V117.552Z" fill="white"/>
<path d="M230.544 124.989C230.544 120.27 226.721 116.445 222.005 116.445C217.29 116.445 213.467 120.27 213.467 124.989V134.482C213.467 139.2 217.29 143.025 222.005 143.025C226.721 143.025 230.544 139.2 230.544 134.482V124.989Z" fill="#1E1E1E"/>
<path d="M216.629 133.215C218.376 133.215 219.792 131.799 219.792 130.051C219.792 128.303 218.376 126.887 216.629 126.887C214.883 126.887 213.467 128.303 213.467 130.051C213.467 131.799 214.883 133.215 216.629 133.215Z" fill="white"/>
</g>
<defs>
<filter id="filter0_f_760_2850" x="155.248" y="37.6816" width="256.146" height="256.178" filterUnits="userSpaceOnUse" color-interpolation-filters="sRGB">
<feFlood flood-opacity="0" result="BackgroundImageFix"/>
<feBlend mode="normal" in="SourceGraphic" in2="BackgroundImageFix" result="shape"/>
<feGaussianBlur stdDeviation="50" result="effect1_foregroundBlur_760_2850"/>
</filter>
<filter id="filter1_d_760_2850" x="262.08" y="146.479" width="42.2344" height="46.5742" filterUnits="userSpaceOnUse" color-interpolation-filters="sRGB">
<feFlood flood-opacity="0" result="BackgroundImageFix"/>
<feColorMatrix in="SourceAlpha" type="matrix" values="0 0 0 0 0 0 0 0 0 0 0 0 0 0 0 0 0 0 127 0" result="hardAlpha"/>
<feOffset dy="4"/>
<feGaussianBlur stdDeviation="2"/>
<feComposite in2="hardAlpha" operator="out"/>
<feColorMatrix type="matrix" values="0 0 0 0 0 0 0 0 0 0 0 0 0 0 0 0 0 0 0.25 0"/>
<feBlend mode="normal" in2="BackgroundImageFix" result="effect1_dropShadow_760_2850"/>
<feBlend mode="normal" in="SourceGraphic" in2="effect1_dropShadow_760_2850" result="shape"/>
</filter>
<clipPath id="clip0_760_2850">
<rect width="401" height="393" fill="white"/>
</clipPath>
</defs>
</svg>
