<svg width="435" height="426" viewBox="0 0 435 426" fill="none" xmlns="http://www.w3.org/2000/svg">
<g clip-path="url(#clip0_760_2850)">
<path d="M276.956 362.746H126.325C123.489 362.746 121.189 365.046 121.189 367.884V368.569C121.189 371.407 123.489 373.707 126.325 373.707H276.956C279.792 373.707 282.091 371.407 282.091 368.569V367.884C282.091 365.046 279.792 362.746 276.956 362.746Z" fill="#2E2E33"/>
<path d="M260.346 251.29C243.367 257.304 215.182 241.928 215.182 241.928C215.182 241.928 212.695 233.226 214.618 228.229C217.32 221.206 230.399 217.18 230.399 217.18C230.399 217.18 243.657 223.163 252.727 223.746C267.98 224.726 276.449 197.591 289.091 206.187C305.07 217.052 278.558 244.838 260.346 251.29Z" fill="#D9D9D9"/>
<path d="M198.559 200.471C198.559 197.785 200.525 195.504 203.18 195.111C203.18 195.111 236.356 192.404 246.829 206.586C254.576 217.076 255.556 227.205 251.622 239.641C247.572 252.444 228.17 262.679 222.958 265.231C222.096 265.653 221.19 265.933 220.247 266.108L212.722 267.502C205.356 268.867 198.559 263.21 198.559 255.714V200.471Z" fill="#A33F0F"/>
<path d="M204.893 214.941C209.74 206.684 221.694 201.348 229.147 211.422C234.661 218.874 231.947 226.317 229.147 235.151C227.484 240.401 221.449 244.162 215.816 246.615C209.917 249.183 203.619 245.286 202.787 238.903C201.76 231.022 201.398 220.895 204.893 214.941Z" fill="#EAEAEA"/>
<path d="M103.73 214.428C103.73 207.807 109.095 202.439 115.712 202.439H174.938V266.836C174.938 273.458 169.573 278.825 162.956 278.825H115.712C109.095 278.825 103.73 273.458 103.73 266.836V214.428Z" fill="#FE8101"/>
<path d="M149.261 228.13C149.261 230.022 147.729 231.555 145.838 231.555H105.099C103.208 231.555 101.676 230.022 101.676 228.13V214.428C101.676 207.807 107.04 202.439 113.658 202.439H149.261V228.13Z" fill="#FFB800"/>
<g filter="url(#filter0_f_760_2850)">
<path d="M277.118 172.494C279.602 161.919 287.536 153.473 297.931 150.339C308.326 147.204 319.603 149.857 327.514 157.297C335.425 164.737 338.767 175.835 336.283 186.41C333.798 196.985 325.864 205.43 315.469 208.564C305.074 211.699 293.797 209.047 285.887 201.606C277.976 194.166 274.633 183.068 277.118 172.494Z" fill="#D0E60A"/>
</g>
<g filter="url(#filter1_d_760_2850)">
<path d="M304.857 159.025C305.917 158.413 307.222 158.413 308.281 159.025L323.387 167.752C324.447 168.364 325.099 169.495 325.099 170.718V188.172C325.099 189.396 324.447 190.526 323.387 191.138L308.281 199.865C307.222 200.477 305.917 200.477 304.857 199.865L289.751 191.138C288.692 190.526 288.039 189.396 288.039 188.172V170.718C288.039 169.495 288.692 168.364 289.751 167.752L304.857 159.025Z" fill="#35984E"/>
</g>
<path d="M311.528 177.132C309.251 178.459 306.392 176.821 306.382 174.184L306.357 167.162C306.348 164.525 309.195 162.866 311.482 164.177L317.573 167.666C319.86 168.977 319.871 172.273 317.594 173.599L311.528 177.132Z" fill="#BEE275"/>
<path d="M253.497 296.841C245.615 279.81 215.73 264.057 215.73 264.057C215.73 264.057 206.313 266.857 203.085 271.287C198.548 277.515 203.447 290.798 203.447 290.798C203.447 290.798 216.232 299.674 221.82 307.307C231.454 320.467 229.363 338.038 231.771 346.432C234.179 354.824 256.201 353.652 267.196 346.349C276.924 339.889 288.557 331.144 278.95 320.184C269.343 309.225 258.419 322.71 258.419 322.71C258.419 322.71 257.901 306.355 253.497 296.841Z" fill="#D9D9D9"/>
<path d="M191.552 328.341C199.868 312.355 194.051 282.261 194.051 282.261C194.051 282.261 186.279 277.63 180.959 278.213C173.482 279.032 166.25 290.654 166.25 290.654C166.25 290.654 167.104 304.865 164.605 313.421C160.298 328.175 145.605 337.741 140.625 344.619C135.645 351.494 149.38 368.025 161.867 368.57C181.443 369.426 186.272 373.536 188.912 360.177C191.552 346.818 174.705 347.846 174.705 347.846C174.705 347.846 186.906 337.272 191.552 328.341Z" fill="#EAEAEA"/>
<path d="M116.117 152.353C116.782 140.527 120.494 134.216 125.702 123.58C135.117 104.354 135.288 87.7845 160.964 81.6188C186.639 75.4531 204.784 107.823 204.784 107.823C204.784 107.823 211.63 81.7901 238.504 85.558C265.378 89.3259 265.036 123.58 269.144 140.878C273.252 158.176 275.478 154.122 275.306 163.143C275.146 171.585 273.28 176.506 269.144 183.866C262.851 195.066 242.955 204.932 242.955 204.932C242.955 204.932 249.853 243.483 237.991 262.821C227.254 280.324 215.739 288.34 194.684 292.622C173.63 296.903 151.163 330.222 121.081 322.594C105.565 318.659 94.5079 314.612 86.3328 300.843C78.3569 287.409 73.1526 265.047 83.4229 260.937C93.6932 256.827 93.2615 282.619 105.846 288.34C114.96 292.483 121.711 293.609 131.351 290.909C147.393 286.417 148.428 271.671 154.227 256.046C161.277 237.047 161.245 225.731 157.027 204.932C157.027 204.932 125.923 187.969 121.081 179.242C115.901 169.906 115.517 163.014 116.117 152.353Z" fill="#EAEAEA"/>
<path d="M195.135 94.8828L214.991 95.9104C214.991 95.9104 228.513 96.0817 225.09 108.07C221.666 120.059 212.252 116.805 205.919 111.667C199.585 106.529 195.135 94.8828 195.135 94.8828Z" fill="#D9D9D9"/>
<path d="M123.532 129.912L130.377 141.162C130.377 141.162 135.339 148.619 127.257 151.409C119.175 154.199 117.499 147.789 118.045 142.33C118.59 136.872 123.532 129.912 123.532 129.912Z" fill="#D9D9D9"/>
<path d="M104.32 288.416L123.551 293.466C123.551 293.466 136.756 296.388 130.966 307.429C125.175 318.469 116.619 313.366 111.464 307.045C106.308 300.725 104.32 288.416 104.32 288.416Z" fill="#D9D9D9"/>
<path d="M238.613 159.108C238.613 165.067 233.784 169.897 227.829 169.897C221.873 169.897 217.045 165.067 217.045 159.108C217.045 153.148 218.621 143.693 224.576 143.693C230.532 143.693 238.613 153.148 238.613 159.108Z" fill="#EAEAEA"/>
<path d="M230.413 273.181L223.549 254.511C223.549 254.511 218.388 242.003 230.751 240.438C243.114 238.872 243.826 248.813 241.596 256.66C239.365 264.506 230.413 273.181 230.413 273.181Z" fill="#D9D9D9"/>
<path d="M209.857 165.788C211.748 165.788 213.28 164.255 213.28 162.363C213.28 160.471 211.748 158.938 209.857 158.938C207.966 158.938 206.434 160.471 206.434 162.363C206.434 164.255 207.966 165.788 209.857 165.788Z" fill="#D9D9D9"/>
<path d="M227.316 165.788C229.207 165.788 230.739 164.255 230.739 162.363C230.739 160.471 229.207 158.938 227.316 158.938C225.425 158.938 223.893 160.471 223.893 162.363C223.893 164.255 225.425 165.788 227.316 165.788Z" fill="#D9D9D9"/>
<path d="M232.599 177.507C236.536 182.131 227.365 193.092 213.941 193.092C200.517 193.092 183.644 181.275 188.436 172.882C191.762 167.059 199.22 178.877 213.941 178.877C227.365 178.877 228.662 172.882 232.599 177.507Z" fill="#A43F10"/>
<path d="M227.316 188.737C227.316 188.737 223.207 193.091 213.941 193.091C206.604 193.091 199.072 189.08 199.072 189.08C199.072 189.08 203.792 184.627 213.622 184.627C222.523 184.627 227.316 188.737 227.316 188.737Z" fill="#EE622D"/>
<path d="M148.576 204.238C148.576 201.553 150.543 199.272 153.198 198.878C153.198 198.878 186.373 196.172 196.847 210.353C204.594 220.844 205.573 230.972 201.639 243.408C197.589 256.211 178.188 266.447 172.976 268.999C172.114 269.421 171.207 269.701 170.264 269.875L162.74 271.27C155.374 272.635 148.576 266.977 148.576 259.481V204.238Z" fill="#A33F0F"/>
<path d="M154.911 218.711C159.758 210.453 171.711 205.117 179.165 215.192C184.679 222.644 181.965 230.086 179.165 238.92C177.501 244.171 171.467 247.932 165.834 250.384C159.935 252.952 153.636 249.055 152.805 242.672C151.778 234.791 151.416 224.665 154.911 218.711Z" fill="#EAEAEA"/>
<path d="M126.556 238.75C133.408 222.083 163.661 211.34 163.661 211.34C163.661 211.34 171.798 215.293 174.235 220.06C177.66 226.761 171.929 239.193 171.929 239.193C171.929 239.193 158.629 245.082 152.143 251.452C141.235 262.164 151.161 283.588 136.327 287.273C117.577 291.931 119.206 256.627 126.556 238.75Z" fill="#EAEAEA"/>
<path d="M195.135 135.645C195.135 121.457 183.639 109.955 169.459 109.955C155.279 109.955 143.783 121.457 143.783 135.645V145.579C143.783 159.767 155.279 171.269 169.459 171.269C183.639 171.269 195.135 159.767 195.135 145.579V135.645Z" fill="white"/>
<path d="M182.469 135.301C182.469 130.193 178.331 126.053 173.226 126.053C168.121 126.053 163.982 130.193 163.982 135.301V145.577C163.982 150.685 168.121 154.826 173.226 154.826C178.331 154.826 182.469 150.685 182.469 145.577V135.301Z" fill="#1E1E1E"/>
<path d="M169.117 144.208C171.008 144.208 172.54 142.675 172.54 140.783C172.54 138.891 171.008 137.357 169.117 137.357C167.226 137.357 165.693 138.891 165.693 140.783C165.693 142.675 167.226 144.208 169.117 144.208Z" fill="white"/>
<path d="M262.578 127.252C262.578 117.888 254.991 110.297 245.632 110.297C236.273 110.297 228.686 117.888 228.686 127.252V147.805C228.686 157.169 236.273 164.76 245.632 164.76C254.991 164.76 262.578 157.169 262.578 147.805V127.252Z" fill="white"/>
<path d="M249.569 135.301C249.569 130.193 245.43 126.053 240.325 126.053C235.22 126.053 231.082 130.193 231.082 135.301V145.577C231.082 150.685 235.22 154.826 240.325 154.826C245.43 154.826 249.569 150.685 249.569 145.577V135.301Z" fill="#1E1E1E"/>
<path d="M234.505 144.208C236.396 144.208 237.929 142.675 237.929 140.783C237.929 138.891 236.396 137.357 234.505 137.357C232.615 137.357 231.082 138.891 231.082 140.783C231.082 142.675 232.615 144.208 234.505 144.208Z" fill="white"/>
</g>
<defs>
<filter id="filter0_f_760_2850" x="176.311" y="49.0449" width="260.779" height="260.814" filterUnits="userSpaceOnUse" color-interpolation-filters="sRGB">
<feFlood flood-opacity="0" result="BackgroundImageFix"/>
<feBlend mode="normal" in="SourceGraphic" in2="BackgroundImageFix" result="shape"/>
<feGaussianBlur stdDeviation="50" result="effect1_foregroundBlur_760_2850"/>
</filter>
<filter id="filter1_d_760_2850" x="284.039" y="158.566" width="45.0605" height="49.7578" filterUnits="userSpaceOnUse" color-interpolation-filters="sRGB">
<feFlood flood-opacity="0" result="BackgroundImageFix"/>
<feColorMatrix in="SourceAlpha" type="matrix" values="0 0 0 0 0 0 0 0 0 0 0 0 0 0 0 0 0 0 127 0" result="hardAlpha"/>
<feOffset dy="4"/>
<feGaussianBlur stdDeviation="2"/>
<feComposite in2="hardAlpha" operator="out"/>
<feColorMatrix type="matrix" values="0 0 0 0 0 0 0 0 0 0 0 0 0 0 0 0 0 0 0.25 0"/>
<feBlend mode="normal" in2="BackgroundImageFix" result="effect1_dropShadow_760_2850"/>
<feBlend mode="normal" in="SourceGraphic" in2="effect1_dropShadow_760_2850" result="shape"/>
</filter>
<clipPath id="clip0_760_2850">
<rect width="434.091" height="425.431" fill="white"/>
</clipPath>
</defs>
</svg>
