<svg width="185" height="69" viewBox="0 0 185 69" fill="none" xmlns="http://www.w3.org/2000/svg">
<path d="M1.3125 6.70312H6.23438C9.41146 6.70312 11.5573 6.84896 12.6719 7.14062C13.7969 7.43229 14.651 7.91146 15.2344 8.57812C15.8177 9.24479 16.1823 9.98958 16.3281 10.8125C16.474 11.625 16.5469 13.2292 16.5469 15.625V24.4844C16.5469 26.7552 16.4375 28.276 16.2188 29.0469C16.0104 29.8073 15.6406 30.4062 15.1094 30.8438C14.5781 31.2708 13.9219 31.5729 13.1406 31.75C12.3594 31.9167 11.1823 32 9.60938 32H1.3125V6.70312ZM7.89062 11.0312V27.6719C8.83854 27.6719 9.42188 27.4844 9.64062 27.1094C9.85938 26.724 9.96875 25.6875 9.96875 24V14.1719C9.96875 13.026 9.93229 12.2917 9.85938 11.9688C9.78646 11.6458 9.61979 11.4115 9.35938 11.2656C9.09896 11.1094 8.60938 11.0312 7.89062 11.0312ZM33.1094 22H24.9375V26.4844C24.9375 27.4219 25.0052 28.026 25.1406 28.2969C25.276 28.5677 25.5365 28.7031 25.9219 28.7031C26.401 28.7031 26.7188 28.526 26.875 28.1719C27.0417 27.8073 27.125 27.1094 27.125 26.0781V23.3438H33.1094V24.875C33.1094 26.1562 33.026 27.1406 32.8594 27.8281C32.7031 28.5156 32.3281 29.25 31.7344 30.0312C31.1406 30.8125 30.3854 31.401 29.4688 31.7969C28.5625 32.1823 27.4219 32.375 26.0469 32.375C24.7135 32.375 23.5365 32.1823 22.5156 31.7969C21.4948 31.4115 20.6979 30.8854 20.125 30.2188C19.5625 29.5417 19.1719 28.8021 18.9531 28C18.7344 27.1875 18.625 26.0104 18.625 24.4688V18.4219C18.625 16.6094 18.8698 15.1823 19.3594 14.1406C19.849 13.0885 20.651 12.2865 21.7656 11.7344C22.8802 11.1719 24.1615 10.8906 25.6094 10.8906C27.3802 10.8906 28.8385 11.2292 29.9844 11.9062C31.1406 12.5729 31.9479 13.4635 32.4062 14.5781C32.875 15.6823 33.1094 17.2396 33.1094 19.25V22ZM26.7812 18.625V17.1094C26.7812 16.0365 26.724 15.3438 26.6094 15.0312C26.4948 14.7188 26.2604 14.5625 25.9062 14.5625C25.4688 14.5625 25.1979 14.6979 25.0938 14.9688C24.9896 15.2292 24.9375 15.9427 24.9375 17.1094V18.625H26.7812ZM48.0781 17.8906H42.4844V16.7656C42.4844 15.8073 42.4271 15.2031 42.3125 14.9531C42.2083 14.6927 41.9375 14.5625 41.5 14.5625C41.1458 14.5625 40.8802 14.6823 40.7031 14.9219C40.526 15.151 40.4375 15.5 40.4375 15.9688C40.4375 16.6042 40.4792 17.0729 40.5625 17.375C40.6562 17.6667 40.9219 17.9896 41.3594 18.3438C41.8073 18.6979 42.7188 19.2135 44.0938 19.8906C45.9271 20.7865 47.1302 21.6302 47.7031 22.4219C48.276 23.2135 48.5625 24.3646 48.5625 25.875C48.5625 27.5625 48.3438 28.8385 47.9062 29.7031C47.4688 30.5573 46.7344 31.2188 45.7031 31.6875C44.6823 32.1458 43.4479 32.375 42 32.375C40.3958 32.375 39.0208 32.125 37.875 31.625C36.7396 31.125 35.9583 30.4479 35.5312 29.5938C35.1042 28.7396 34.8906 27.4479 34.8906 25.7188V24.7188H40.4844V26.0312C40.4844 27.1458 40.5521 27.8698 40.6875 28.2031C40.8333 28.5365 41.1146 28.7031 41.5312 28.7031C41.9792 28.7031 42.2917 28.5938 42.4688 28.375C42.6458 28.1458 42.7344 27.6719 42.7344 26.9531C42.7344 25.9635 42.6198 25.3438 42.3906 25.0938C42.151 24.8438 40.9271 24.1042 38.7188 22.875C36.8646 21.8333 35.7344 20.8906 35.3281 20.0469C34.9219 19.1927 34.7188 18.1823 34.7188 17.0156C34.7188 15.3594 34.9375 14.1406 35.375 13.3594C35.8125 12.5677 36.5521 11.9583 37.5938 11.5312C38.6458 11.1042 39.8646 10.8906 41.25 10.8906C42.625 10.8906 43.7917 11.0677 44.75 11.4219C45.7188 11.7656 46.4583 12.224 46.9688 12.7969C47.4896 13.3698 47.8021 13.901 47.9062 14.3906C48.0208 14.8802 48.0781 15.6458 48.0781 16.6875V17.8906ZM64.2031 19.0938H58.25V16.7031C58.25 15.8698 58.1823 15.3073 58.0469 15.0156C57.9115 14.7135 57.6615 14.5625 57.2969 14.5625C56.9323 14.5625 56.6875 14.6927 56.5625 14.9531C56.4375 15.2135 56.375 15.7969 56.375 16.7031V26.4844C56.375 27.224 56.4688 27.7812 56.6562 28.1562C56.8438 28.5208 57.1198 28.7031 57.4844 28.7031C57.9115 28.7031 58.1979 28.5104 58.3438 28.125C58.5 27.7396 58.5781 27.0104 58.5781 25.9375V23.4688H64.2031C64.1927 25.125 64.1302 26.3698 64.0156 27.2031C63.9115 28.026 63.5625 28.875 62.9688 29.75C62.3854 30.6146 61.6198 31.2708 60.6719 31.7188C59.724 32.1562 58.5521 32.375 57.1562 32.375C55.375 32.375 53.9635 32.0729 52.9219 31.4688C51.8802 30.8542 51.1406 30 50.7031 28.9062C50.276 27.8021 50.0625 26.2396 50.0625 24.2188V18.3281C50.0625 16.5677 50.2396 15.2396 50.5938 14.3438C50.9479 13.4479 51.7031 12.651 52.8594 11.9531C54.0156 11.2448 55.4219 10.8906 57.0781 10.8906C58.724 10.8906 60.1302 11.2396 61.2969 11.9375C62.4635 12.6354 63.2396 13.5156 63.625 14.5781C64.0104 15.6406 64.2031 17.1458 64.2031 19.0938ZM71.7344 19.2969H65.8125V17.9062C65.8125 16.3021 65.9948 15.0677 66.3594 14.2031C66.7344 13.3281 67.4792 12.5573 68.5938 11.8906C69.7083 11.224 71.1562 10.8906 72.9375 10.8906C75.0729 10.8906 76.6823 11.2708 77.7656 12.0312C78.849 12.7812 79.5 13.7083 79.7188 14.8125C79.9375 15.9062 80.0469 18.1667 80.0469 21.5938V32H73.9062V30.1562C73.5208 30.8958 73.0208 31.4531 72.4062 31.8281C71.8021 32.1927 71.0781 32.375 70.2344 32.375C69.1302 32.375 68.1146 32.0677 67.1875 31.4531C66.2708 30.8281 65.8125 29.4688 65.8125 27.375V25.6719C65.8125 24.1198 66.0573 23.0625 66.5469 22.5C67.0365 21.9375 68.25 21.2812 70.1875 20.5312C72.2604 19.7188 73.3698 19.1719 73.5156 18.8906C73.6615 18.6094 73.7344 18.0365 73.7344 17.1719C73.7344 16.0885 73.651 15.3854 73.4844 15.0625C73.3281 14.7292 73.0625 14.5625 72.6875 14.5625C72.2604 14.5625 71.9948 14.7031 71.8906 14.9844C71.7865 15.2552 71.7344 15.9688 71.7344 17.125V19.2969ZM73.7344 22.1406C72.724 22.8802 72.1354 23.5 71.9688 24C71.8125 24.5 71.7344 25.2188 71.7344 26.1562C71.7344 27.2292 71.8021 27.9219 71.9375 28.2344C72.0833 28.5469 72.3646 28.7031 72.7812 28.7031C73.1771 28.7031 73.4323 28.5833 73.5469 28.3438C73.6719 28.0938 73.7344 27.4479 73.7344 26.4062V22.1406ZM88.5312 11.2656L88.2812 13.9844C89.1979 12.0365 90.526 11.0052 92.2656 10.8906V18.1875C91.1094 18.1875 90.2604 18.3438 89.7188 18.6562C89.1771 18.9688 88.8438 19.4062 88.7188 19.9688C88.5938 20.5208 88.5312 21.8021 88.5312 23.8125V32H82.2188V11.2656H88.5312ZM100.344 8.5V11.7656H102.047V15.0469H100.344V26.1406C100.344 27.5052 100.411 28.2656 100.547 28.4219C100.693 28.5781 101.281 28.6562 102.312 28.6562V32H99.7656C98.3281 32 97.3021 31.9427 96.6875 31.8281C96.0729 31.7031 95.5312 31.4271 95.0625 31C94.5938 30.5625 94.3021 30.0677 94.1875 29.5156C94.0729 28.9531 94.0156 27.6406 94.0156 25.5781V15.0469H92.6562V11.7656H94.0156V8.5H100.344ZM117.734 22H109.562V26.4844C109.562 27.4219 109.63 28.026 109.766 28.2969C109.901 28.5677 110.161 28.7031 110.547 28.7031C111.026 28.7031 111.344 28.526 111.5 28.1719C111.667 27.8073 111.75 27.1094 111.75 26.0781V23.3438H117.734V24.875C117.734 26.1562 117.651 27.1406 117.484 27.8281C117.328 28.5156 116.953 29.25 116.359 30.0312C115.766 30.8125 115.01 31.401 114.094 31.7969C113.188 32.1823 112.047 32.375 110.672 32.375C109.339 32.375 108.161 32.1823 107.141 31.7969C106.12 31.4115 105.323 30.8854 104.75 30.2188C104.188 29.5417 103.797 28.8021 103.578 28C103.359 27.1875 103.25 26.0104 103.25 24.4688V18.4219C103.25 16.6094 103.495 15.1823 103.984 14.1406C104.474 13.0885 105.276 12.2865 106.391 11.7344C107.505 11.1719 108.786 10.8906 110.234 10.8906C112.005 10.8906 113.464 11.2292 114.609 11.9062C115.766 12.5729 116.573 13.4635 117.031 14.5781C117.5 15.6823 117.734 17.2396 117.734 19.25V22ZM111.406 18.625V17.1094C111.406 16.0365 111.349 15.3438 111.234 15.0312C111.12 14.7188 110.885 14.5625 110.531 14.5625C110.094 14.5625 109.823 14.6979 109.719 14.9688C109.615 15.2292 109.562 15.9427 109.562 17.1094V18.625H111.406ZM127.547 19.4531V23.8125H119.25V19.4531H127.547ZM145.062 6.70312L141.719 32H131.734L127.938 6.70312H134.875C135.677 13.6719 136.25 19.5625 136.594 24.375C136.938 19.5104 137.297 15.1875 137.672 11.4062L138.125 6.70312H145.062ZM152.5 6.70312V10H146V6.70312H152.5ZM152.5 11.2656V32H146V11.2656H152.5ZM167.828 11.2656L164.875 32H156.641L153.469 11.2656H159.109L160.875 26.3906C161.01 25.2865 161.24 22.5781 161.562 18.2656C161.75 15.8594 161.958 13.526 162.188 11.2656H167.828ZM183.062 18.5469V23.625C183.062 25.4896 182.969 26.8594 182.781 27.7344C182.594 28.599 182.193 29.4115 181.578 30.1719C180.964 30.9219 180.172 31.4792 179.203 31.8438C178.245 32.1979 177.141 32.375 175.891 32.375C174.495 32.375 173.312 32.224 172.344 31.9219C171.375 31.6094 170.62 31.1458 170.078 30.5312C169.547 29.9062 169.167 29.1562 168.938 28.2812C168.708 27.3958 168.594 26.0729 168.594 24.3125V19C168.594 17.0729 168.802 15.5677 169.219 14.4844C169.635 13.401 170.385 12.5312 171.469 11.875C172.552 11.2188 173.938 10.8906 175.625 10.8906C177.042 10.8906 178.255 11.1042 179.266 11.5312C180.286 11.9479 181.073 12.4948 181.625 13.1719C182.177 13.849 182.552 14.5469 182.75 15.2656C182.958 15.9844 183.062 17.0781 183.062 18.5469ZM176.75 16.9844C176.75 15.9219 176.693 15.2552 176.578 14.9844C176.464 14.7031 176.219 14.5625 175.844 14.5625C175.469 14.5625 175.219 14.7031 175.094 14.9844C174.969 15.2552 174.906 15.9219 174.906 16.9844V26.3438C174.906 27.3229 174.969 27.9635 175.094 28.2656C175.219 28.5573 175.464 28.7031 175.828 28.7031C176.203 28.7031 176.448 28.5677 176.562 28.2969C176.688 28.026 176.75 27.4427 176.75 26.5469V16.9844Z" fill="black"/>
<path d="M59.88 61V39.24H71.4V41.544H62.44V48.968H69.704V51.272H62.44V61H59.88ZM80.3588 61.448C78.1614 61.448 76.4334 60.7013 75.1748 59.208C73.9374 57.7147 73.3188 55.6453 73.3188 53C73.3188 50.3333 73.9374 48.264 75.1748 46.792C76.4334 45.2987 78.1614 44.552 80.3588 44.552C82.5774 44.552 84.3054 45.3093 85.5428 46.824C86.8014 48.3173 87.4308 50.376 87.4308 53C87.4308 55.624 86.8014 57.6933 85.5428 59.208C84.3054 60.7013 82.5774 61.448 80.3588 61.448ZM80.3588 59.272C81.8094 59.272 82.9401 58.7173 83.7508 57.608C84.5828 56.4987 84.9988 54.9627 84.9988 53C84.9988 51.0373 84.5828 49.5013 83.7508 48.392C82.9401 47.2827 81.8094 46.728 80.3588 46.728C78.9081 46.728 77.7774 47.2827 76.9668 48.392C76.1561 49.5013 75.7508 51.0373 75.7508 53C75.7508 54.9627 76.1561 56.4987 76.9668 57.608C77.7774 58.7173 78.9081 59.272 80.3588 59.272ZM91.7513 61V48.2L91.4313 45L93.5433 44.84L94.1833 48.712C94.8019 47.432 95.5913 46.44 96.5513 45.736C97.5113 45.0107 98.5993 44.648 99.8153 44.648L99.9753 47.08C98.1193 47.2293 96.6899 48.04 95.6873 49.512C94.6846 50.984 94.1833 53.064 94.1833 55.752V61H91.7513ZM106.969 61.448C105.817 61.448 104.975 61.1387 104.441 60.52C103.908 59.88 103.641 58.8773 103.641 57.512V47.08H101.209V45H103.641L104.409 40.2H106.073V45H109.817V47.08H106.073V57.512C106.073 58.6853 106.553 59.272 107.513 59.272C108.239 59.272 109.028 58.9627 109.881 58.344L110.777 59.976C109.54 60.9573 108.271 61.448 106.969 61.448ZM118.587 61.448C116.646 61.448 115.11 60.7227 113.979 59.272C112.87 57.8 112.315 55.8053 112.315 53.288C112.315 51.5813 112.646 50.0773 113.307 48.776C113.99 47.4533 114.928 46.4187 116.123 45.672C117.318 44.9253 118.672 44.552 120.187 44.552C121.168 44.552 122.182 44.7227 123.227 45.064C124.294 45.4053 125.232 45.8533 126.043 46.408V57.8L126.363 61L124.251 61.16L123.675 58.28C123.12 59.2827 122.406 60.0613 121.531 60.616C120.656 61.1707 119.675 61.448 118.587 61.448ZM119.067 59.272C120.432 59.272 121.531 58.6107 122.363 57.288C123.195 55.944 123.611 54.1733 123.611 51.976V47.528C122.544 46.9947 121.403 46.728 120.187 46.728C119.142 46.728 118.203 47.0053 117.371 47.56C116.56 48.1147 115.92 48.8933 115.451 49.896C114.982 50.8773 114.747 52.008 114.747 53.288C114.747 55.1227 115.131 56.584 115.899 57.672C116.688 58.7387 117.744 59.272 119.067 59.272ZM134.666 61.448C133.535 61.448 132.692 61.128 132.138 60.488C131.604 59.848 131.338 58.8453 131.338 57.48V38.6H133.77V57.48C133.77 58.6533 134.25 59.24 135.21 59.24C135.786 59.24 136.394 59.0267 137.034 58.6L137.994 60.328C136.82 61.0747 135.711 61.448 134.666 61.448ZM145.408 61.448C143.381 61.448 141.77 60.744 140.576 59.336C139.381 57.9067 138.784 55.9867 138.784 53.576C138.784 51.8053 139.114 50.248 139.776 48.904C140.458 47.5387 141.397 46.472 142.592 45.704C143.786 44.936 145.162 44.552 146.72 44.552C147.68 44.552 148.533 44.7547 149.28 45.16C150.026 45.5653 150.613 46.1093 151.04 46.792C151.488 47.4747 151.712 48.2533 151.712 49.128C151.712 50.216 151.36 51.1867 150.656 52.04C149.973 52.872 149.013 53.5333 147.776 54.024C146.538 54.4933 145.12 54.728 143.52 54.728C142.773 54.728 142.026 54.696 141.28 54.632C141.45 56.0613 141.898 57.192 142.624 58.024C143.37 58.856 144.33 59.272 145.504 59.272C146.357 59.272 147.2 59.1227 148.032 58.824C148.864 58.504 149.568 58.0773 150.144 57.544L151.296 59.112C149.674 60.6693 147.712 61.448 145.408 61.448ZM143.584 52.616C145.248 52.616 146.613 52.296 147.68 51.656C148.746 51.016 149.28 50.2053 149.28 49.224C149.28 48.4987 149.024 47.9013 148.512 47.432C148.021 46.9627 147.392 46.728 146.624 46.728C145.152 46.728 143.925 47.2613 142.944 48.328C141.984 49.3733 141.418 50.7493 141.248 52.456C141.674 52.52 142.08 52.5627 142.464 52.584C142.848 52.6053 143.221 52.616 143.584 52.616ZM153.196 61L161.516 47.08H154.188V45H165.644L157.26 58.92H165.612V61H153.196ZM173.993 61.448C172.052 61.448 170.516 60.7227 169.385 59.272C168.276 57.8 167.721 55.8053 167.721 53.288C167.721 51.5813 168.052 50.0773 168.713 48.776C169.396 47.4533 170.335 46.4187 171.529 45.672C172.724 44.9253 174.079 44.552 175.593 44.552C176.575 44.552 177.588 44.7227 178.633 45.064C179.7 45.4053 180.639 45.8533 181.449 46.408V57.8L181.769 61L179.657 61.16L179.081 58.28C178.527 59.2827 177.812 60.0613 176.937 60.616C176.063 61.1707 175.081 61.448 173.993 61.448ZM174.473 59.272C175.839 59.272 176.937 58.6107 177.769 57.288C178.601 55.944 179.017 54.1733 179.017 51.976V47.528C177.951 46.9947 176.809 46.728 175.593 46.728C174.548 46.728 173.609 47.0053 172.777 47.56C171.967 48.1147 171.327 48.8933 170.857 49.896C170.388 50.8773 170.153 52.008 170.153 53.288C170.153 55.1227 170.537 56.584 171.305 57.672C172.095 58.7387 173.151 59.272 174.473 59.272Z" fill="black"/>
</svg>
